<?xml version="1.0" encoding="UTF-8"?>
<svg width="102px" height="102px" viewBox="0 0 102 102" version="1.1" xmlns="http://www.w3.org/2000/svg" xmlns:xlink="http://www.w3.org/1999/xlink">
    <!-- Generator: Sketch 52.2 (67145) - http://www.bohemiancoding.com/sketch -->
    <title>icon_bedroom</title>
    <desc>Created with Sketch.</desc>
    <g id="REBRAND" stroke="none" stroke-width="1" fill="none" fill-rule="evenodd">
        <g id="Services" transform="translate(-749.000000, -1216.000000)" fill="#000000">
            <g id="icon_bedroom" transform="translate(749.000000, 1216.000000)">
                <path d="M57.375,63.75 L14.8750664,63.75 C6.66366797,63.7593633 0.00936328125,70.413668 0,78.6250664 L0,91.3750664 C0,92.5486641 0.95146875,93.5001328 2.12506641,93.5001328 L70.125,93.5001328 C71.2985977,93.5001328 72.2500664,92.5486641 72.2500664,91.3750664 L72.2500664,78.6250664 C72.2407031,70.413668 65.5863984,63.7593633 57.375,63.75 Z M67.9999336,89.25 L4.24993359,89.25 L4.24993359,78.6250664 C4.25690625,72.7598672 9.00986719,68.0071055 14.8748672,68.0001328 L57.375,68.0001328 C63.2401992,68.0071055 67.9929609,72.7600664 67.9999336,78.6250664 L67.9999336,89.25 Z" id="Shape" fill-rule="nonzero"></path>
                <rect id="Rectangle" x="2.12506641" y="76.5" width="25.5" height="4.24993359"></rect>
                <rect id="Rectangle" x="31.875" y="76.5" width="4.24993359" height="4.24993359"></rect>
                <path d="M59.5000664,42.4999336 L12.75,42.4999336 C9.22920703,42.4999336 6.375,45.3541406 6.375,48.8749336 L6.375,67.9999336 L10.6249336,67.9999336 L10.6249336,48.8749336 C10.6249336,47.7013359 11.5764023,46.7498672 12.75,46.7498672 L59.5000664,46.7498672 C60.6736641,46.7498672 61.6251328,47.7013359 61.6251328,48.8749336 L61.6251328,67.9999336 L65.8750664,67.9999336 L65.8750664,48.8749336 C65.8750664,45.3541406 63.0208594,42.4999336 59.5000664,42.4999336 Z" id="Path"></path>
                <path d="M44.625,51 L27.6250664,51 C21.7598672,51.0069727 17.0071055,55.7599336 17.0001328,61.6249336 L17.0001328,65.8748672 L21.2500664,65.8748672 L21.2500664,61.6249336 C21.2500664,58.1041406 24.1042734,55.2499336 27.6250664,55.2499336 L44.625,55.2499336 C48.145793,55.2499336 51,58.1041406 51,61.6249336 L51,65.8748672 L55.2499336,65.8748672 L55.2499336,61.6249336 C55.2429609,55.7599336 50.4901992,51.0069727 44.625,51 Z" id="Path"></path>
                <path d="M12.75,91.3750664 L12.75,95.625 C12.75,96.7985977 11.7985312,97.7500664 10.6249336,97.7500664 C9.45133594,97.7500664 8.49986719,96.7985977 8.49986719,95.625 L8.49986719,91.3750664 L4.24993359,91.3750664 L4.24993359,95.625 C4.24993359,99.145793 7.10414062,102 10.6249336,102 C14.1457266,102 16.9999336,99.145793 16.9999336,95.625 L16.9999336,91.3750664 L12.75,91.3750664 Z" id="Path"></path>
                <path d="M63.75,91.3750664 L63.75,95.625 C63.75,96.7985977 62.7985312,97.7500664 61.6249336,97.7500664 C60.4513359,97.7500664 59.4998672,96.7985977 59.4998672,95.625 L59.4998672,91.3750664 L55.2499336,91.3750664 L55.2499336,95.625 C55.2499336,99.145793 58.1041406,102 61.6249336,102 C65.1457266,102 67.9999336,99.145793 67.9999336,95.625 L67.9999336,91.3750664 L63.75,91.3750664 Z" id="Path"></path>
                <path d="M64.3725586,79.247625 C63.3248672,80.2889414 62.81925,80.7499336 61.6249336,80.7499336 C60.4306172,80.7499336 59.918625,80.2887422 58.8773086,79.247625 C57.4576758,77.5297617 55.3533281,76.5247031 53.1248672,76.5 L40.3748672,76.5 L40.3748672,80.7499336 L53.1248672,80.7499336 C54.3191836,80.7499336 54.8248008,81.211125 55.8724922,82.2522422 C57.292125,83.9701055 59.3964727,84.9751641 61.6249336,84.9998672 C63.8533945,84.9751641 65.9577422,83.9701055 67.377375,82.2522422 C68.4250664,81.2109258 68.9306836,80.7499336 70.125,80.7499336 L70.125,76.5 C67.8965391,76.5247031 65.7921914,77.5297617 64.3725586,79.247625 Z" id="Path"></path>
                <path d="M99.8749336,57.375 L70.125,57.375 L70.125,61.6249336 L102,61.6249336 L102,59.4998672 C102,58.3264688 101.048531,57.375 99.8749336,57.375 Z" id="Path"></path>
                <path d="M95.625,59.5000664 L95.625,89.25 L76.5,89.25 L76.5,93.4999336 L97.7500664,93.4999336 C98.9236641,93.4999336 99.8751328,92.5484648 99.8751328,91.3748672 L99.8751328,59.4998672 L95.625,59.4998672 L95.625,59.5000664 Z" id="Path"></path>
                <path d="M91.3750664,91.3750664 L91.3750664,95.625 C91.3750664,96.7985977 90.4235977,97.7500664 89.25,97.7500664 C88.0764023,97.7500664 87.1249336,96.7985977 87.1249336,95.625 L87.1249336,91.3750664 L82.875,91.3750664 L82.875,95.625 C82.875,99.145793 85.729207,102 89.25,102 C92.770793,102 95.625,99.145793 95.625,95.625 L95.625,91.3750664 L91.3750664,91.3750664 Z" id="Path"></path>
                <rect id="Rectangle" x="76.5" y="74.3749336" width="21.2500664" height="4.24993359"></rect>
                <path d="M93.4999336,42.4999336 L76.5,42.4999336 C75.3264023,42.4999336 74.3749336,43.4514023 74.3749336,44.625 L74.3749336,59.5000664 L78.6248672,59.5000664 L78.6248672,46.7500664 L91.3748672,46.7500664 L91.3748672,59.5000664 L95.625,59.5000664 L95.625,44.625 C95.625,43.4514023 94.6735313,42.4999336 93.4999336,42.4999336 Z" id="Path"></path>
                <rect id="Rectangle" x="76.5" y="48.8749336" width="8.50006641" height="4.24993359"></rect>
                <rect id="Rectangle" x="82.875" y="36.1249336" width="4.24993359" height="8.50006641"></rect>
                <path d="M85.0000664,16.9999336 C79.1320781,16.9999336 74.3751328,21.7568789 74.3751328,27.6248672 C74.3751328,33.4928555 79.1318789,38.25 85.0000664,38.25 C90.8652656,38.2430273 95.6180273,33.4900664 95.625,27.6250664 C95.625,21.7568789 90.8680547,16.9999336 85.0000664,16.9999336 Z M85.0000664,34.0000664 C81.4792734,34.0000664 78.6250664,31.1458594 78.6250664,27.6250664 C78.6250664,24.1042734 81.4792734,21.2500664 85.0000664,21.2500664 C88.5208594,21.2500664 91.3750664,24.1042734 91.3750664,27.6250664 C91.3750664,31.1458594 88.5208594,34.0000664 85.0000664,34.0000664 Z" id="Shape" fill-rule="nonzero"></path>
                <path d="M63.75,0 L8.50006641,0 C7.32646875,0 6.375,0.95146875 6.375,2.12506641 L6.375,34.0000664 C6.375,35.1736641 7.32646875,36.1251328 8.50006641,36.1251328 L63.75,36.1251328 C64.9235977,36.1251328 65.8750664,35.1736641 65.8750664,34.0000664 L65.8750664,2.12506641 C65.8750664,0.95146875 64.9235977,0 63.75,0 Z M61.6249336,31.875 L10.6249336,31.875 L10.6249336,4.24993359 L61.6249336,4.24993359 L61.6249336,31.875 Z" id="Shape" fill-rule="nonzero"></path>
                <path d="M53.1250664,23.3749336 L37.0048828,23.3749336 L22.7525742,9.122625 C21.9228281,8.29307812 20.5777031,8.29307812 19.7477578,9.122625 L6.99775781,21.872625 L10.0025742,24.8774414 L21.2502656,13.62975 L34.6228242,27.0023086 C35.0212617,27.4009453 35.5617422,27.6248672 36.1251328,27.6248672 L53.1250664,27.6248672 L53.1250664,23.3749336 Z" id="Path"></path>
                <path d="M49.7546836,16.9999336 L45.064875,12.310125 C44.2351289,11.4805781 42.8900039,11.4805781 42.0600586,12.310125 L32.4975586,21.872625 L35.502375,24.8774414 L43.5625664,16.81725 L47.372625,20.6273086 C47.7710625,21.0259453 48.311543,21.2498672 48.8749336,21.2498672 L63.75,21.2498672 L63.75,16.9999336 L49.7546836,16.9999336 Z" id="Path"></path>
            </g>
        </g>
    </g>
</svg>