<?xml version="1.0" encoding="UTF-8"?>
<svg width="102px" height="102px" viewBox="0 0 102 102" version="1.1" xmlns="http://www.w3.org/2000/svg" xmlns:xlink="http://www.w3.org/1999/xlink">
    <!-- Generator: Sketch 52.2 (67145) - http://www.bohemiancoding.com/sketch -->
    <title>icon_house-plan</title>
    <desc>Created with Sketch.</desc>
    <g id="REBRAND" stroke="none" stroke-width="1" fill="none" fill-rule="evenodd">
        <g id="Services" transform="translate(-1188.000000, -1218.000000)" fill="#000000">
            <g id="icon_house-plan" transform="translate(1188.000000, 1218.000000)">
                <path d="M87.6038,42.4999336 L87.6038,78.6248672 L44.937,78.6248672 L44.937,42.4999336 L40.6704,42.4999336 L40.6704,80.7499336 C40.6704,81.9235312 41.6256,82.875 42.8038,82.875 L89.7372,82.875 C90.9154,82.875 91.8706,81.9235312 91.8706,80.7499336 L91.8706,42.4999336 L87.6038,42.4999336 Z" id="Path"></path>
                <path d="M67.7296,19.7009414 C66.909,18.9345469 65.6318,18.9345469 64.8112,19.7009414 L30.6778,51.5759414 L33.5962,54.6741914 L66.2704,24.1634414 L98.9446,54.6741914 L101.863,51.5759414 L67.7296,19.7009414 Z" id="Path"></path>
                <path d="M72.6704,51 L59.8704,51 C56.3358,51 53.4704,53.854207 53.4704,57.375 L53.4704,80.7499336 L57.737,80.7499336 L57.737,57.375 C57.737,56.2014023 58.6922,55.2499336 59.8704,55.2499336 L72.6704,55.2499336 C73.8486,55.2499336 74.8038,56.2014023 74.8038,57.375 L74.8038,80.7499336 L79.0704,80.7499336 L79.0704,57.375 C79.0704,53.854207 76.205,51 72.6704,51 Z" id="Path"></path>
                <rect id="Rectangle" x="42.8038" y="42.4999336" width="21.3334" height="4.24993359"></rect>
                <rect id="Rectangle" x="68.4038" y="42.4999336" width="21.3334" height="4.24993359"></rect>
                <path d="M76.937,19.125 L76.937,6.375 C76.937,2.85420703 74.0716,0 70.537,0 L19.337,0 C18.7712,0.00019921875 18.2288,0.224121094 17.8288,0.622558594 L0.7622,17.6226914 C0.3622,18.0211289 0.1372,18.5616094 0.1372,19.125 L0.1372,95.625 C0.1372,99.145793 3.0026,102 6.5372,102 L70.5372,102 C74.0718,102 76.9372,99.145793 76.9372,95.625 L76.9372,87.1249336 L72.6706,87.1249336 L72.6706,95.625 C72.6706,96.7985977 71.7154,97.7500664 70.5372,97.7500664 L6.5372,97.7500664 C5.359,97.7500664 4.4038,96.7985977 4.4038,95.625 L4.4038,20.00475 L20.2204,4.24993359 L70.5372,4.24993359 C71.7154,4.24993359 72.6706,5.20140234 72.6706,6.375 L72.6706,19.125 L76.937,19.125 Z" id="Path"></path>
                <path d="M17.2038,2.12506641 L17.2038,14.8750664 C17.2038,16.0486641 16.2486,17.0001328 15.0704,17.0001328 L10.8038,17.0001328 L10.8038,21.2500664 L15.0704,21.2500664 C18.605,21.2500664 21.4704,18.3958594 21.4704,14.8750664 L21.4704,2.12506641 L17.2038,2.12506641 Z" id="Path"></path>
                <rect id="Rectangle" x="19.337" y="29.7499336" width="21.3334" height="4.24993359"></rect>
                <rect id="Rectangle" x="10.8038" y="29.7499336" width="4.2666" height="4.24993359"></rect>
                <rect id="Rectangle" x="19.337" y="46.7500664" width="8.5334" height="4.24993359"></rect>
                <rect id="Rectangle" x="10.8038" y="46.7500664" width="4.2666" height="4.24993359"></rect>
                <rect id="Rectangle" x="23.6038" y="63.75" width="12.8" height="4.24993359"></rect>
                <rect id="Rectangle" x="15.0704" y="63.75" width="4.2666" height="4.24993359"></rect>
                <path d="M15.0704,89.25 C13.8922,89.25 12.937,88.2985312 12.937,87.1249336 L12.937,82.875 L8.6704,82.875 L8.6704,87.1249336 C8.6704,90.6457266 11.5358,93.4999336 15.0704,93.4999336 L19.337,93.4999336 L19.337,89.25 L15.0704,89.25 Z" id="Path"></path>
                <rect id="Rectangle" x="23.6038" y="89.25" width="4.2666" height="4.24993359"></rect>
            </g>
        </g>
    </g>
</svg>