<svg id="Layer_1" data-name="Layer 1" xmlns="http://www.w3.org/2000/svg" xmlns:xlink="http://www.w3.org/1999/xlink" viewBox="0 0 931.5 539"><defs><style>.cls-1{fill:none;}.cls-2{clip-path:url(#clip-path);}.cls-3{clip-path:url(#clip-path-2);}.cls-4{fill:#fff;}.cls-5{clip-path:url(#clip-path-3);}.cls-6{clip-path:url(#clip-path-4);}.cls-7{clip-path:url(#clip-path-5);}</style><clipPath id="clip-path"><rect class="cls-1" width="931.5" height="539"/></clipPath><clipPath id="clip-path-2"><rect class="cls-1" x="909.4" y="-279.5" width="931.5" height="539"/></clipPath><clipPath id="clip-path-3"><rect class="cls-1" x="909.4" y="259.5" width="931.5" height="539"/></clipPath><clipPath id="clip-path-4"><rect class="cls-1" x="-22.1" y="-279.5" width="931.5" height="539"/></clipPath><clipPath id="clip-path-5"><rect class="cls-1" x="-22.1" y="259.5" width="931.5" height="539"/></clipPath></defs><title>pattern_hex-light</title><g class="cls-2"><g class="cls-3"><polygon class="cls-4" points="755.97 529.78 752.51 527.78 907.38 259.53 830.23 125.91 833.7 123.91 912 259.53 911.42 260.53 755.97 529.78"/><polygon class="cls-4" points="1065.13 261.46 908.53 261.46 752.51 -8.79 755.97 -10.79 910.84 257.46 1065.13 257.46 1065.13 261.46"/><polygon class="cls-4" points="1054.04 242.23 919.64 242.23 774.71 -8.79 778.18 -10.79 921.95 238.23 1054.04 238.23 1054.04 242.23"/><polygon class="cls-4" points="1042.93 223 930.74 223 796.92 -8.79 800.38 -10.79 933.05 219 1042.93 219 1042.93 223"/><polygon class="cls-4" points="1031.83 203.77 941.84 203.77 819.13 -8.78 822.59 -10.78 944.15 199.77 1031.83 199.77 1031.83 203.77"/><polygon class="cls-4" points="952.95 184.54 841.33 -8.79 844.79 -10.79 955.26 180.54 1020.72 180.53 1020.72 184.53 952.95 184.54"/><polygon class="cls-4" points="1009.62 165.3 964.05 165.3 863.55 -8.78 867.01 -10.78 966.36 161.3 1009.62 161.3 1009.62 165.3"/><polygon class="cls-4" points="998.51 146.06 975.15 146.06 885.75 -8.79 889.21 -10.79 977.46 142.06 998.51 142.06 998.51 146.06"/><rect class="cls-4" x="946.55" y="-20.2" width="4" height="155.43" transform="translate(98.31 481.94) rotate(-30)"/><polygon class="cls-4" points="1218.85 260.46 1063.98 -7.78 909.69 -7.78 909.69 -11.78 1066.29 -11.78 1222.32 258.46 1218.85 260.46"/><polygon class="cls-4" points="1196.64 260.47 1052.87 11.45 920.78 11.45 920.78 7.45 1055.18 7.45 1200.11 258.47 1196.64 260.47"/><polygon class="cls-4" points="833.69 395.09 830.23 393.09 908.53 257.46 1220.58 257.46 1220.58 261.46 910.84 261.46 833.69 395.09"/></g><g class="cls-5"><polygon class="cls-4" points="1065.13 800.46 908.53 800.46 752.51 530.21 755.97 528.21 910.84 796.46 1065.13 796.46 1065.13 800.46"/><polygon class="cls-4" points="1054.04 781.23 919.64 781.23 774.71 530.21 778.18 528.21 921.95 777.23 1054.04 777.23 1054.04 781.23"/><polygon class="cls-4" points="1042.93 762 930.74 762 796.92 530.21 800.38 528.21 933.05 758 1042.93 758 1042.93 762"/><polygon class="cls-4" points="1031.83 742.77 941.84 742.77 819.13 530.22 822.59 528.22 944.15 738.77 1031.83 738.77 1031.83 742.77"/><polygon class="cls-4" points="952.95 723.54 841.33 530.21 844.79 528.21 955.26 719.54 1020.72 719.53 1020.72 723.53 952.95 723.54"/><polygon class="cls-4" points="1009.62 704.3 964.05 704.3 863.55 530.22 867.01 528.22 966.36 700.3 1009.62 700.3 1009.62 704.3"/><polygon class="cls-4" points="998.51 685.06 975.15 685.06 885.75 530.21 889.21 528.21 977.46 681.06 998.51 681.06 998.51 685.06"/><rect class="cls-4" x="946.55" y="518.8" width="4" height="155.43" transform="translate(-171.17 554.15) rotate(-30)"/><polygon class="cls-4" points="1218.85 799.47 1063.98 531.22 909.69 531.22 909.69 527.22 1066.29 527.22 1222.32 797.47 1218.85 799.47"/><polygon class="cls-4" points="755.97 529.78 752.51 527.78 907.38 259.53 830.23 125.91 833.7 123.91 912 259.53 911.42 260.53 755.97 529.78"/><polygon class="cls-4" points="1066.29 530.78 754.24 530.78 754.24 526.78 1063.98 526.78 1141.13 393.15 1144.59 395.15 1066.29 530.78"/><polygon class="cls-4" points="1055.19 511.54 765.34 511.54 765.34 507.54 1052.88 507.54 1118.93 393.15 1122.39 395.15 1055.19 511.54"/><polygon class="cls-4" points="1044.09 492.31 776.44 492.31 776.44 488.31 1041.78 488.31 1096.72 393.15 1100.18 395.15 1044.09 492.31"/><polygon class="cls-4" points="1032.98 473.08 787.55 473.08 787.55 469.08 1030.67 469.08 1074.51 393.15 1077.98 395.15 1032.98 473.08"/><polygon class="cls-4" points="1021.88 453.85 798.65 453.85 798.65 449.85 1019.58 449.85 1052.3 393.15 1055.77 395.15 1021.88 453.85"/><polygon class="cls-4" points="1010.77 434.61 809.76 434.61 809.76 430.61 1008.47 430.61 1030.09 393.15 1033.56 395.15 1010.77 434.61"/><polygon class="cls-4" points="999.66 415.38 820.86 415.38 820.86 411.38 997.36 411.38 1007.88 393.15 1011.34 395.15 999.66 415.38"/><rect class="cls-4" x="831.96" y="392.15" width="155.43" height="4"/><polygon class="cls-4" points="1065.13 261.46 908.53 261.46 752.51 -8.79 755.97 -10.79 910.84 257.46 1065.13 257.46 1065.13 261.46"/><polygon class="cls-4" points="1218.85 260.46 1063.98 -7.78 909.69 -7.78 909.69 -11.78 1066.29 -11.78 1222.32 258.46 1218.85 260.46"/><polygon class="cls-4" points="1196.64 260.47 1052.87 11.45 920.78 11.45 920.78 7.45 1055.18 7.45 1200.11 258.47 1196.64 260.47"/><polygon class="cls-4" points="833.69 395.09 830.23 393.09 908.53 257.46 1220.58 257.46 1220.58 261.46 910.84 261.46 833.69 395.09"/><polygon class="cls-4" points="855.89 395.09 852.43 393.09 919.63 276.7 1209.48 276.7 1209.48 280.7 921.93 280.7 855.89 395.09"/><polygon class="cls-4" points="878.11 395.09 874.64 393.09 930.74 295.93 1198.38 295.93 1198.38 299.93 933.05 299.93 878.11 395.09"/><polygon class="cls-4" points="900.31 395.09 896.84 393.09 941.84 315.16 1187.27 315.16 1187.27 319.16 944.14 319.16 900.31 395.09"/><polygon class="cls-4" points="922.52 395.09 919.06 393.09 952.94 334.39 1176.17 334.39 1176.17 338.39 955.25 338.39 922.52 395.09"/></g><g class="cls-6"><polygon class="cls-4" points="755.97 529.78 752.51 527.78 907.38 259.53 830.23 125.91 833.7 123.91 912 259.53 911.42 260.53 755.97 529.78"/><polygon class="cls-4" points="744.86 510.54 741.4 508.54 885.17 259.52 819.13 145.13 822.59 143.13 889.79 259.52 889.21 260.52 744.86 510.54"/><polygon class="cls-4" points="733.76 491.32 730.3 489.32 862.96 259.53 808.02 164.37 811.49 162.37 867.58 259.53 867.01 260.53 733.76 491.32"/><polygon class="cls-4" points="722.66 472.08 719.2 470.08 840.76 259.53 796.92 183.6 800.39 181.6 845.38 259.53 844.8 260.53 722.66 472.08"/><polygon class="cls-4" points="711.56 452.85 708.09 450.85 818.56 259.52 785.82 202.84 789.28 200.83 823.18 259.52 711.56 452.85"/><polygon class="cls-4" points="700.45 433.61 696.99 431.61 796.34 259.53 774.71 222.07 778.18 220.07 800.96 259.53 700.45 433.61"/><polygon class="cls-4" points="689.35 414.38 685.88 412.38 774.13 259.53 763.61 241.3 767.07 239.3 778.75 259.53 689.35 414.38"/><rect class="cls-4" x="637.65" y="324.85" width="155.43" height="4" transform="translate(74.61 782.93) rotate(-60)"/><polygon class="cls-4" points="1065.13 261.46 908.53 261.46 752.51 -8.79 755.97 -10.79 910.84 257.46 1065.13 257.46 1065.13 261.46"/><polygon class="cls-4" points="1054.04 242.23 919.64 242.23 774.71 -8.79 778.18 -10.79 921.95 238.23 1054.04 238.23 1054.04 242.23"/><polygon class="cls-4" points="1042.93 223 930.74 223 796.92 -8.79 800.38 -10.79 933.05 219 1042.93 219 1042.93 223"/><polygon class="cls-4" points="1031.83 203.77 941.84 203.77 819.13 -8.78 822.59 -10.78 944.15 199.77 1031.83 199.77 1031.83 203.77"/><polygon class="cls-4" points="952.95 184.54 841.33 -8.79 844.79 -10.79 955.26 180.54 1020.72 180.53 1020.72 184.53 952.95 184.54"/><polygon class="cls-4" points="1009.62 165.3 964.05 165.3 863.55 -8.78 867.01 -10.78 966.36 161.3 1009.62 161.3 1009.62 165.3"/><polygon class="cls-4" points="998.51 146.06 975.15 146.06 885.75 -8.79 889.21 -10.79 977.46 142.06 998.51 142.06 998.51 146.06"/><rect class="cls-4" x="946.55" y="-20.2" width="4" height="155.43" transform="translate(98.31 481.94) rotate(-30)"/><polygon class="cls-4" points="674.78 395.08 596.48 259.46 752.51 -10.79 755.97 -8.79 601.1 259.46 678.24 393.08 674.78 395.08"/><polygon class="cls-4" points="685.88 375.86 618.68 259.47 619.26 258.47 763.61 8.45 767.08 10.45 623.3 259.47 689.35 373.86 685.88 375.86"/><polygon class="cls-4" points="696.99 356.62 640.89 259.46 641.47 258.46 774.72 27.67 778.18 29.67 645.51 259.46 700.45 354.62 696.99 356.62"/><polygon class="cls-4" points="708.09 337.39 663.1 259.46 663.67 258.46 785.81 46.91 789.28 48.91 667.72 259.46 711.55 335.39 708.09 337.39"/><polygon class="cls-4" points="719.2 318.15 685.3 259.46 796.92 66.14 800.38 68.14 689.92 259.46 722.66 316.15 719.2 318.15"/><polygon class="cls-4" points="730.3 298.92 707.52 259.46 808.02 85.38 811.49 87.38 712.14 259.46 733.76 296.92 730.3 298.92"/><polygon class="cls-4" points="741.4 279.69 729.73 259.46 819.13 104.61 822.59 106.61 734.34 259.46 744.87 277.69 741.4 279.69"/><rect class="cls-4" x="715.39" y="190.14" width="155.43" height="4" transform="translate(230.14 782.9) rotate(-60)"/><polygon class="cls-4" points="833.69 395.09 830.23 393.09 908.53 257.46 1220.58 257.46 1220.58 261.46 910.84 261.46 833.69 395.09"/><polygon class="cls-4" points="599.38 530.96 442.78 530.96 286.75 260.71 290.22 258.71 445.09 526.96 599.38 526.96 599.38 530.96"/><polygon class="cls-4" points="588.29 511.73 453.89 511.73 308.96 260.71 312.43 258.71 456.2 507.73 588.29 507.73 588.29 511.73"/><polygon class="cls-4" points="577.18 492.5 464.99 492.5 331.17 260.71 334.63 258.71 467.3 488.5 577.18 488.5 577.18 492.5"/><polygon class="cls-4" points="566.08 473.27 476.09 473.27 353.38 260.72 356.84 258.72 478.4 469.27 566.08 469.27 566.08 473.27"/><polygon class="cls-4" points="487.2 454.04 375.58 260.71 379.04 258.71 489.51 450.04 554.97 450.03 554.97 454.03 487.2 454.04"/><polygon class="cls-4" points="543.87 434.8 498.3 434.8 397.8 260.72 401.26 258.72 500.61 430.8 543.87 430.8 543.87 434.8"/><polygon class="cls-4" points="532.76 415.56 509.4 415.56 420 260.71 423.46 258.71 511.71 411.56 532.76 411.56 532.76 415.56"/><rect class="cls-4" x="480.79" y="249.3" width="4" height="155.43" transform="translate(-98.82 285.19) rotate(-30)"/><polygon class="cls-4" points="209.03 664.58 130.73 528.96 286.76 258.71 290.22 260.71 135.35 528.96 212.49 662.58 209.03 664.58"/><polygon class="cls-4" points="753.1 529.97 598.23 261.72 443.94 261.72 443.94 257.72 600.54 257.72 756.57 527.97 753.1 529.97"/><polygon class="cls-4" points="133.63 261.46 -22.97 261.46 -179 -8.79 -175.53 -10.79 -20.66 257.46 133.63 257.46 133.63 261.46"/><polygon class="cls-4" points="122.54 242.23 -11.86 242.23 -156.79 -8.79 -153.32 -10.79 -9.55 238.23 122.54 238.23 122.54 242.23"/><polygon class="cls-4" points="111.43 223 -0.76 223 -134.58 -8.79 -131.12 -10.79 1.55 219 111.43 219 111.43 223"/><polygon class="cls-4" points="100.33 203.77 10.34 203.77 -112.38 -8.78 -108.91 -10.78 12.65 199.77 100.33 199.77 100.33 203.77"/><polygon class="cls-4" points="21.45 184.54 -90.17 -8.79 -86.71 -10.79 23.76 180.54 89.22 180.53 89.22 184.53 21.45 184.54"/><polygon class="cls-4" points="78.12 165.3 32.55 165.3 -67.95 -8.78 -64.49 -10.78 34.86 161.3 78.12 161.3 78.12 165.3"/><polygon class="cls-4" points="67.01 146.06 43.65 146.06 -45.75 -8.79 -42.28 -10.79 45.96 142.06 67.01 142.06 67.01 146.06"/><rect class="cls-4" x="15.04" y="-20.2" width="4" height="155.43" transform="translate(-26.47 16.23) rotate(-30)"/><polygon class="cls-4" points="287.35 260.46 132.48 -7.78 -21.81 -7.78 -21.81 -11.78 134.79 -11.78 290.81 258.46 287.35 260.46"/><polygon class="cls-4" points="265.14 260.47 121.37 11.45 -10.72 11.45 -10.72 7.45 123.68 7.45 268.61 258.47 265.14 260.47"/><polygon class="cls-4" points="242.94 260.47 110.27 30.68 0.39 30.68 0.39 26.68 112.58 26.68 246.4 258.47 242.94 260.47"/><polygon class="cls-4" points="220.73 260.46 99.17 49.91 11.49 49.91 11.49 45.91 101.48 45.91 224.19 258.46 220.73 260.46"/><polygon class="cls-4" points="198.53 260.46 88.06 69.14 22.6 69.15 22.6 65.15 90.37 65.14 201.99 258.46 198.53 260.46"/><polygon class="cls-4" points="176.31 260.46 76.96 88.38 33.7 88.38 33.7 84.38 79.27 84.38 179.77 258.46 176.31 260.46"/><polygon class="cls-4" points="154.11 260.46 65.86 107.61 44.81 107.61 44.81 103.61 68.17 103.61 157.57 258.46 154.11 260.46"/><rect class="cls-4" x="92.78" y="114.45" width="4" height="155.43" transform="translate(-83.38 73.13) rotate(-30)"/><polygon class="cls-4" points="-97.81 395.09 -101.27 393.09 -22.97 257.46 289.08 257.46 289.08 261.46 -20.66 261.46 -97.81 395.09"/><polygon class="cls-4" points="290.22 260.28 286.75 258.28 441.63 -9.97 364.48 -143.59 367.94 -145.59 446.25 -9.97 290.22 260.28"/><polygon class="cls-4" points="279.11 241.04 275.65 239.04 419.42 -9.98 353.38 -124.37 356.84 -126.37 424.04 -9.98 279.11 241.04"/><polygon class="cls-4" points="268.01 221.82 264.55 219.82 397.21 -9.97 342.27 -105.13 345.74 -107.13 401.83 -9.97 268.01 221.82"/><polygon class="cls-4" points="256.91 202.58 253.45 200.58 375.01 -9.97 331.17 -85.9 334.64 -87.9 379.63 -9.97 256.91 202.58"/><polygon class="cls-4" points="245.81 183.35 242.34 181.35 352.81 -9.97 320.07 -66.67 323.53 -68.67 357.43 -9.97 245.81 183.35"/><polygon class="cls-4" points="234.7 164.11 231.24 162.11 330.59 -9.97 308.96 -47.43 312.43 -49.43 335.21 -9.97 234.7 164.11"/><polygon class="cls-4" points="223.6 144.88 220.13 142.88 308.38 -9.97 297.86 -28.2 301.32 -30.2 313 -9.97 223.6 144.88"/><rect class="cls-4" x="171.9" y="55.35" width="155.43" height="4" transform="translate(75.14 244.85) rotate(-60)"/><polygon class="cls-4" points="600.54 261.28 288.49 261.28 288.49 257.28 598.23 257.28 675.38 123.65 678.84 125.65 600.54 261.28"/><polygon class="cls-4" points="589.45 242.04 299.59 242.04 299.59 238.04 587.13 238.04 653.18 123.65 656.64 125.65 589.45 242.04"/><polygon class="cls-4" points="578.34 222.81 310.69 222.81 310.69 218.81 576.02 218.81 630.97 123.65 634.43 125.65 578.34 222.81"/><polygon class="cls-4" points="567.24 203.58 321.8 203.58 321.8 199.58 564.92 199.58 608.76 123.65 612.23 125.65 567.24 203.58"/><polygon class="cls-4" points="556.13 184.35 332.9 184.35 332.9 180.35 553.83 180.35 586.55 123.65 590.01 125.65 556.13 184.35"/><polygon class="cls-4" points="545.02 165.11 344.01 165.11 344.01 161.11 542.72 161.11 564.34 123.65 567.81 125.65 545.02 165.11"/><polygon class="cls-4" points="533.91 145.88 355.11 145.88 355.11 141.88 531.61 141.88 542.13 123.65 545.6 125.65 533.91 145.88"/><rect class="cls-4" x="366.21" y="122.65" width="155.43" height="4"/><polygon class="cls-4" points="209.03 125.58 130.73 -10.04 286.76 -280.29 290.22 -278.29 135.35 -10.04 212.49 123.58 209.03 125.58"/><polygon class="cls-4" points="220.13 106.36 152.93 -10.03 297.86 -261.06 301.32 -259.06 157.55 -10.03 223.59 104.36 220.13 106.36"/><polygon class="cls-4" points="231.24 87.12 175.14 -10.04 308.96 -241.83 312.43 -239.83 179.76 -10.04 234.7 85.12 231.24 87.12"/><polygon class="cls-4" points="242.34 67.89 197.35 -10.04 320.06 -222.59 323.53 -220.59 201.97 -10.04 245.8 65.89 242.34 67.89"/><polygon class="cls-4" points="253.44 48.66 219.55 -10.04 331.17 -203.36 334.63 -201.36 224.17 -10.04 256.91 46.65 253.44 48.66"/><polygon class="cls-4" points="264.55 29.42 241.77 -10.04 342.27 -184.12 345.74 -182.12 246.38 -10.04 268.01 27.42 264.55 29.42"/><polygon class="cls-4" points="275.65 10.19 263.98 -10.04 353.38 -164.89 356.84 -162.89 268.59 -10.04 279.12 8.19 275.65 10.19"/><polygon class="cls-4" points="367.94 125.59 364.48 123.59 442.78 -12.04 754.83 -12.04 754.83 -8.04 445.09 -8.04 367.94 125.59"/><polygon class="cls-4" points="390.14 125.59 386.68 123.59 453.88 7.2 743.73 7.2 743.73 11.2 456.19 11.2 390.14 125.59"/><polygon class="cls-4" points="412.36 125.59 408.89 123.59 464.99 26.43 732.63 26.43 732.63 30.43 467.3 30.43 412.36 125.59"/><polygon class="cls-4" points="434.56 125.59 431.09 123.59 476.09 45.66 721.52 45.66 721.52 49.66 478.39 49.66 434.56 125.59"/><polygon class="cls-4" points="456.77 125.59 453.31 123.59 487.19 64.89 710.42 64.89 710.42 68.89 489.5 68.89 456.77 125.59"/><polygon class="cls-4" points="478.98 125.59 475.51 123.59 498.3 84.13 699.31 84.13 699.31 88.13 500.61 88.13 478.98 125.59"/><polygon class="cls-4" points="501.19 125.59 497.73 123.59 509.41 103.36 688.21 103.36 688.21 107.36 511.72 107.36 501.19 125.59"/><rect class="cls-4" x="521.68" y="122.59" width="155.43" height="4"/></g><g class="cls-7"><polygon class="cls-4" points="1065.13 800.46 908.53 800.46 752.51 530.21 755.97 528.21 910.84 796.46 1065.13 796.46 1065.13 800.46"/><polygon class="cls-4" points="1054.04 781.23 919.64 781.23 774.71 530.21 778.18 528.21 921.95 777.23 1054.04 777.23 1054.04 781.23"/><polygon class="cls-4" points="1042.93 762 930.74 762 796.92 530.21 800.38 528.21 933.05 758 1042.93 758 1042.93 762"/><polygon class="cls-4" points="1031.83 742.77 941.84 742.77 819.13 530.22 822.59 528.22 944.15 738.77 1031.83 738.77 1031.83 742.77"/><polygon class="cls-4" points="952.95 723.54 841.33 530.21 844.79 528.21 955.26 719.54 1020.72 719.53 1020.72 723.53 952.95 723.54"/><polygon class="cls-4" points="1009.62 704.3 964.05 704.3 863.55 530.22 867.01 528.22 966.36 700.3 1009.62 700.3 1009.62 704.3"/><polygon class="cls-4" points="998.51 685.06 975.15 685.06 885.75 530.21 889.21 528.21 977.46 681.06 998.51 681.06 998.51 685.06"/><rect class="cls-4" x="946.55" y="518.8" width="4" height="155.43" transform="translate(-171.17 554.15) rotate(-30)"/><polygon class="cls-4" points="674.78 934.08 596.48 798.46 752.51 528.21 755.97 530.21 601.1 798.46 678.24 932.08 674.78 934.08"/><polygon class="cls-4" points="133.63 800.46 -22.97 800.46 -179 530.21 -175.53 528.21 -20.66 796.46 133.63 796.46 133.63 800.46"/><polygon class="cls-4" points="122.54 781.23 -11.86 781.23 -156.79 530.21 -153.32 528.21 -9.55 777.23 122.54 777.23 122.54 781.23"/><polygon class="cls-4" points="111.43 762 -0.76 762 -134.58 530.21 -131.12 528.21 1.55 758 111.43 758 111.43 762"/><polygon class="cls-4" points="100.33 742.77 10.34 742.77 -112.38 530.22 -108.91 528.22 12.65 738.77 100.33 738.77 100.33 742.77"/><polygon class="cls-4" points="21.45 723.54 -90.17 530.21 -86.71 528.21 23.76 719.54 89.22 719.53 89.22 723.53 21.45 723.54"/><polygon class="cls-4" points="78.12 704.3 32.55 704.3 -67.95 530.22 -64.49 528.22 34.86 700.3 78.12 700.3 78.12 704.3"/><polygon class="cls-4" points="67.01 685.06 43.65 685.06 -45.75 530.21 -42.28 528.21 45.96 681.06 67.01 681.06 67.01 685.06"/><rect class="cls-4" x="15.04" y="518.8" width="4" height="155.43" transform="translate(-295.95 88.43) rotate(-30)"/><polygon class="cls-4" points="287.35 799.47 132.48 531.22 -21.81 531.22 -21.81 527.22 134.79 527.22 290.81 797.47 287.35 799.47"/><polygon class="cls-4" points="755.97 529.78 752.51 527.78 907.38 259.53 830.23 125.91 833.7 123.91 912 259.53 911.42 260.53 755.97 529.78"/><polygon class="cls-4" points="744.86 510.54 741.4 508.54 885.17 259.52 819.13 145.13 822.59 143.13 889.79 259.52 889.21 260.52 744.86 510.54"/><polygon class="cls-4" points="733.76 491.32 730.3 489.32 862.96 259.53 808.02 164.37 811.49 162.37 867.58 259.53 867.01 260.53 733.76 491.32"/><polygon class="cls-4" points="722.66 472.08 719.2 470.08 840.76 259.53 796.92 183.6 800.39 181.6 845.38 259.53 844.8 260.53 722.66 472.08"/><polygon class="cls-4" points="711.56 452.85 708.09 450.85 818.56 259.52 785.82 202.84 789.28 200.83 823.18 259.52 711.56 452.85"/><polygon class="cls-4" points="700.45 433.61 696.99 431.61 796.34 259.53 774.71 222.07 778.18 220.07 800.96 259.53 700.45 433.61"/><polygon class="cls-4" points="689.35 414.38 685.88 412.38 774.13 259.53 763.61 241.3 767.07 239.3 778.75 259.53 689.35 414.38"/><rect class="cls-4" x="637.65" y="324.85" width="155.43" height="4" transform="translate(74.61 782.93) rotate(-60)"/><polygon class="cls-4" points="1066.29 530.78 754.24 530.78 754.24 526.78 1063.98 526.78 1141.13 393.15 1144.59 395.15 1066.29 530.78"/><polygon class="cls-4" points="1055.19 511.54 765.34 511.54 765.34 507.54 1052.88 507.54 1118.93 393.15 1122.39 395.15 1055.19 511.54"/><polygon class="cls-4" points="1044.09 492.31 776.44 492.31 776.44 488.31 1041.78 488.31 1096.72 393.15 1100.18 395.15 1044.09 492.31"/><polygon class="cls-4" points="1032.98 473.08 787.55 473.08 787.55 469.08 1030.67 469.08 1074.51 393.15 1077.98 395.15 1032.98 473.08"/><polygon class="cls-4" points="1021.88 453.85 798.65 453.85 798.65 449.85 1019.58 449.85 1052.3 393.15 1055.77 395.15 1021.88 453.85"/><polygon class="cls-4" points="1010.77 434.61 809.76 434.61 809.76 430.61 1008.47 430.61 1030.09 393.15 1033.56 395.15 1010.77 434.61"/><polygon class="cls-4" points="999.66 415.38 820.86 415.38 820.86 411.38 997.36 411.38 1007.88 393.15 1011.34 395.15 999.66 415.38"/><rect class="cls-4" x="831.96" y="392.15" width="155.43" height="4"/><polygon class="cls-4" points="1065.13 261.46 908.53 261.46 752.51 -8.79 755.97 -10.79 910.84 257.46 1065.13 257.46 1065.13 261.46"/><polygon class="cls-4" points="674.78 395.08 596.48 259.46 752.51 -10.79 755.97 -8.79 601.1 259.46 678.24 393.08 674.78 395.08"/><polygon class="cls-4" points="685.88 375.86 618.68 259.47 619.26 258.47 763.61 8.45 767.08 10.45 623.3 259.47 689.35 373.86 685.88 375.86"/><polygon class="cls-4" points="696.99 356.62 640.89 259.46 641.47 258.46 774.72 27.67 778.18 29.67 645.51 259.46 700.45 354.62 696.99 356.62"/><polygon class="cls-4" points="708.09 337.39 663.1 259.46 663.67 258.46 785.81 46.91 789.28 48.91 667.72 259.46 711.55 335.39 708.09 337.39"/><polygon class="cls-4" points="719.2 318.15 685.3 259.46 796.92 66.14 800.38 68.14 689.92 259.46 722.66 316.15 719.2 318.15"/><polygon class="cls-4" points="730.3 298.92 707.52 259.46 808.02 85.38 811.49 87.38 712.14 259.46 733.76 296.92 730.3 298.92"/><polygon class="cls-4" points="741.4 279.69 729.73 259.46 819.13 104.61 822.59 106.61 734.34 259.46 744.87 277.69 741.4 279.69"/><rect class="cls-4" x="715.39" y="190.14" width="155.43" height="4" transform="translate(230.14 782.9) rotate(-60)"/><polygon class="cls-4" points="833.69 395.09 830.23 393.09 908.53 257.46 1220.58 257.46 1220.58 261.46 910.84 261.46 833.69 395.09"/><polygon class="cls-4" points="855.89 395.09 852.43 393.09 919.63 276.7 1209.48 276.7 1209.48 280.7 921.93 280.7 855.89 395.09"/><polygon class="cls-4" points="878.11 395.09 874.64 393.09 930.74 295.93 1198.38 295.93 1198.38 299.93 933.05 299.93 878.11 395.09"/><polygon class="cls-4" points="900.31 395.09 896.84 393.09 941.84 315.16 1187.27 315.16 1187.27 319.16 944.14 319.16 900.31 395.09"/><polygon class="cls-4" points="290.22 799.28 286.75 797.28 441.63 529.03 364.48 395.41 367.94 393.41 446.25 529.03 290.22 799.28"/><polygon class="cls-4" points="279.11 780.04 275.65 778.04 419.42 529.02 353.38 414.63 356.84 412.63 424.04 529.02 279.11 780.04"/><polygon class="cls-4" points="268.01 760.82 264.55 758.82 397.21 529.03 342.27 433.87 345.74 431.87 401.83 529.03 268.01 760.82"/><polygon class="cls-4" points="256.91 741.58 253.45 739.58 375.01 529.03 331.17 453.1 334.64 451.1 379.63 529.03 256.91 741.58"/><polygon class="cls-4" points="245.81 722.35 242.34 720.35 352.81 529.02 320.07 472.33 323.53 470.33 357.43 529.02 245.81 722.35"/><polygon class="cls-4" points="234.7 703.11 231.24 701.11 330.59 529.03 308.96 491.57 312.43 489.57 335.21 529.03 234.7 703.11"/><polygon class="cls-4" points="223.6 683.88 220.13 681.88 308.38 529.03 297.86 510.8 301.32 508.8 313 529.03 223.6 683.88"/><rect class="cls-4" x="171.9" y="594.35" width="155.43" height="4" transform="translate(-391.64 514.33) rotate(-60)"/><polygon class="cls-4" points="599.38 530.96 442.78 530.96 286.75 260.71 290.22 258.71 445.09 526.96 599.38 526.96 599.38 530.96"/><polygon class="cls-4" points="588.29 511.73 453.89 511.73 308.96 260.71 312.43 258.71 456.2 507.73 588.29 507.73 588.29 511.73"/><polygon class="cls-4" points="577.18 492.5 464.99 492.5 331.17 260.71 334.63 258.71 467.3 488.5 577.18 488.5 577.18 492.5"/><polygon class="cls-4" points="566.08 473.27 476.09 473.27 353.38 260.72 356.84 258.72 478.4 469.27 566.08 469.27 566.08 473.27"/><polygon class="cls-4" points="487.2 454.04 375.58 260.71 379.04 258.71 489.51 450.04 554.97 450.03 554.97 454.03 487.2 454.04"/><polygon class="cls-4" points="543.87 434.8 498.3 434.8 397.8 260.72 401.26 258.72 500.61 430.8 543.87 430.8 543.87 434.8"/><polygon class="cls-4" points="532.76 415.56 509.4 415.56 420 260.71 423.46 258.71 511.71 411.56 532.76 411.56 532.76 415.56"/><rect class="cls-4" x="480.79" y="249.3" width="4" height="155.43" transform="translate(-98.82 285.19) rotate(-30)"/><polygon class="cls-4" points="209.03 664.58 130.73 528.96 286.76 258.71 290.22 260.71 135.35 528.96 212.49 662.58 209.03 664.58"/><polygon class="cls-4" points="220.13 645.36 152.93 528.97 297.86 277.94 301.32 279.94 157.55 528.97 223.59 643.36 220.13 645.36"/><polygon class="cls-4" points="231.24 626.12 175.14 528.96 308.96 297.17 312.43 299.17 179.76 528.96 234.7 624.12 231.24 626.12"/><polygon class="cls-4" points="242.34 606.89 197.35 528.96 320.06 316.41 323.53 318.41 201.97 528.96 245.8 604.89 242.34 606.89"/><polygon class="cls-4" points="253.44 587.65 219.55 528.96 331.17 335.64 334.63 337.64 224.17 528.96 256.91 585.65 253.44 587.65"/><polygon class="cls-4" points="264.55 568.42 241.77 528.96 342.27 354.88 345.74 356.88 246.38 528.96 268.01 566.42 264.55 568.42"/><polygon class="cls-4" points="275.65 549.19 263.98 528.96 353.38 374.11 356.84 376.11 268.59 528.96 279.12 547.19 275.65 549.19"/><rect class="cls-4" x="249.64" y="459.64" width="155.43" height="4" transform="translate(-236.11 514.3) rotate(-60)"/><polygon class="cls-4" points="753.1 529.97 598.23 261.72 443.94 261.72 443.94 257.72 600.54 257.72 756.57 527.97 753.1 529.97"/><polygon class="cls-4" points="730.89 529.97 587.12 280.94 455.03 280.94 455.03 276.94 589.43 276.94 734.36 527.97 730.89 529.97"/><polygon class="cls-4" points="708.69 529.97 576.02 300.18 466.14 300.18 466.14 296.18 578.33 296.18 712.15 527.97 708.69 529.97"/><polygon class="cls-4" points="686.48 529.96 564.92 319.41 477.24 319.41 477.24 315.41 567.23 315.41 689.95 527.96 686.48 529.96"/><polygon class="cls-4" points="664.28 529.96 553.82 338.64 488.35 338.65 488.35 334.65 556.12 334.64 667.74 527.96 664.28 529.96"/><polygon class="cls-4" points="642.06 529.96 542.71 357.88 499.45 357.88 499.45 353.88 545.02 353.88 645.52 527.96 642.06 529.96"/><polygon class="cls-4" points="619.86 529.97 531.61 377.12 510.56 377.12 510.56 373.12 533.92 373.12 623.32 527.97 619.86 529.97"/><rect class="cls-4" x="558.53" y="383.95" width="4" height="155.43" transform="translate(-155.73 342.08) rotate(-30)"/><polygon class="cls-4" points="367.94 664.59 364.48 662.59 442.78 526.97 754.83 526.97 754.83 530.97 445.09 530.97 367.94 664.59"/><polygon class="cls-4" points="134.79 530.78 -177.26 530.78 -177.26 526.78 132.48 526.78 209.63 393.15 213.09 395.15 134.79 530.78"/><polygon class="cls-4" points="123.69 511.54 -166.16 511.54 -166.16 507.54 121.39 507.54 187.43 393.15 190.89 395.15 123.69 511.54"/><polygon class="cls-4" points="112.58 492.31 -155.06 492.31 -155.06 488.31 110.28 488.31 165.22 393.15 168.68 395.15 112.58 492.31"/><polygon class="cls-4" points="101.48 473.08 -143.95 473.08 -143.95 469.08 99.17 469.08 143.01 393.15 146.48 395.15 101.48 473.08"/><polygon class="cls-4" points="90.39 453.85 -132.85 453.85 -132.85 449.85 88.08 449.85 120.8 393.15 124.26 395.15 90.39 453.85"/><polygon class="cls-4" points="79.28 434.61 -121.74 434.61 -121.74 430.61 76.97 430.61 98.59 393.15 102.06 395.15 79.28 434.61"/><polygon class="cls-4" points="68.17 415.38 -110.64 415.38 -110.64 411.38 65.86 411.38 76.38 393.15 79.84 395.15 68.17 415.38"/><rect class="cls-4" x="-99.54" y="392.15" width="155.43" height="4"/><polygon class="cls-4" points="133.63 261.46 -22.97 261.46 -179 -8.79 -175.53 -10.79 -20.66 257.46 133.63 257.46 133.63 261.46"/><polygon class="cls-4" points="287.35 260.46 132.48 -7.78 -21.81 -7.78 -21.81 -11.78 134.79 -11.78 290.81 258.46 287.35 260.46"/><polygon class="cls-4" points="265.14 260.47 121.37 11.45 -10.72 11.45 -10.72 7.45 123.68 7.45 268.61 258.47 265.14 260.47"/><polygon class="cls-4" points="242.94 260.47 110.27 30.68 0.39 30.68 0.39 26.68 112.58 26.68 246.4 258.47 242.94 260.47"/><polygon class="cls-4" points="220.73 260.46 99.17 49.91 11.49 49.91 11.49 45.91 101.48 45.91 224.19 258.46 220.73 260.46"/><polygon class="cls-4" points="198.53 260.46 88.06 69.14 22.6 69.15 22.6 65.15 90.37 65.14 201.99 258.46 198.53 260.46"/><polygon class="cls-4" points="176.31 260.46 76.96 88.38 33.7 88.38 33.7 84.38 79.27 84.38 179.77 258.46 176.31 260.46"/><polygon class="cls-4" points="154.11 260.46 65.86 107.61 44.81 107.61 44.81 103.61 68.17 103.61 157.57 258.46 154.11 260.46"/><rect class="cls-4" x="92.78" y="114.45" width="4" height="155.43" transform="translate(-83.38 73.13) rotate(-30)"/><polygon class="cls-4" points="-97.81 395.09 -101.27 393.09 -22.97 257.46 289.08 257.46 289.08 261.46 -20.66 261.46 -97.81 395.09"/><polygon class="cls-4" points="-75.61 395.09 -79.07 393.09 -11.87 276.7 277.98 276.7 277.98 280.7 -9.56 280.7 -75.61 395.09"/><polygon class="cls-4" points="-53.4 395.09 -56.86 393.09 -0.76 295.93 266.88 295.93 266.88 299.93 1.54 299.93 -53.4 395.09"/><polygon class="cls-4" points="-31.19 395.09 -34.66 393.09 10.34 315.16 255.77 315.16 255.77 319.16 12.64 319.16 -31.19 395.09"/><polygon class="cls-4" points="-8.98 395.09 -12.44 393.09 21.44 334.39 244.67 334.39 244.67 338.39 23.75 338.39 -8.98 395.09"/><polygon class="cls-4" points="13.23 395.09 9.76 393.09 32.55 353.63 233.56 353.63 233.56 357.63 34.85 357.63 13.23 395.09"/><polygon class="cls-4" points="35.44 395.09 31.98 393.09 43.66 372.86 222.46 372.86 222.46 376.86 45.97 376.86 35.44 395.09"/><rect class="cls-4" x="55.93" y="392.09" width="155.43" height="4"/><polygon class="cls-4" points="290.22 260.28 286.75 258.28 441.63 -9.97 364.48 -143.59 367.94 -145.59 446.25 -9.97 290.22 260.28"/><polygon class="cls-4" points="600.54 261.28 288.49 261.28 288.49 257.28 598.23 257.28 675.38 123.65 678.84 125.65 600.54 261.28"/></g></g></svg>