<?xml version="1.0" encoding="UTF-8"?>
<svg width="32px" height="32px" viewBox="0 0 32 32" version="1.1" xmlns="http://www.w3.org/2000/svg" xmlns:xlink="http://www.w3.org/1999/xlink">
    <!-- Generator: Sketch 52.2 (67145) - http://www.bohemiancoding.com/sketch -->
    <title>social_ig</title>
    <desc>Created with Sketch.</desc>
    <g id="REBRAND" stroke="none" stroke-width="1" fill="none" fill-rule="evenodd">
        <g id="social_ig" transform="translate(-1.000000, 0.000000)" fill="#FFFFFF">
            <path d="M25.0574444,5.42900556 C24.0152222,5.42900556 23.1752222,6.27289444 23.1752222,7.31122778 C23.1752222,8.35345 24.0152222,9.19733889 25.0574444,9.19733889 C26.0957778,9.19733889 26.9357778,8.35345 26.9357778,7.31122778 C26.9357778,6.27289444 26.0957778,5.42900556 25.0574444,5.42900556 M16.6846667,20.9106722 C13.7952222,20.9106722 11.4541111,18.57345 11.4541111,15.6840056 C11.4541111,12.79845 13.7952222,10.4573389 16.6846667,10.4573389 C19.5702222,10.4573389 21.9113333,12.79845 21.9113333,15.6840056 C21.9113333,18.57345 19.5702222,20.9106722 16.6846667,20.9106722 M16.6846667,7.63011667 C12.2357778,7.63011667 8.62688889,11.2351167 8.62688889,15.6840056 C8.62688889,20.1290056 12.2357778,23.7378944 16.6846667,23.7378944 C21.1296667,23.7378944 24.7385556,20.1328944 24.7385556,15.6840056 C24.7385556,11.2351167 21.1296667,7.63011667 16.6846667,7.63011667 M16.6846667,0.000116666667 C12.4224444,0.000116666667 11.8896667,0.0156722222 10.2213333,0.09345 C4.52411111,0.354005556 1.35466667,3.51567222 1.09411111,9.21678333 C1.01633333,10.8890056 0.996888889,11.4256722 0.996888889,15.6840056 C0.996888889,19.9423389 1.01633333,20.4751167 1.09411111,22.1512278 C1.35466667,27.84845 4.51633333,31.0101167 10.2174444,31.2745611 C11.8896667,31.34845 12.4224444,31.3678944 16.6846667,31.3678944 C20.943,31.3678944 21.4757778,31.34845 23.1518889,31.2745611 C28.8413333,31.0101167 32.0146667,27.8523389 32.2713333,22.1512278 C32.3491111,20.4751167 32.3685556,19.9423389 32.3685556,15.6840056 C32.3685556,11.4256722 32.3491111,10.8890056 32.2713333,9.22067222 C32.0146667,3.52733889 28.853,0.354005556 23.1518889,0.0973388889 C21.4757778,0.0156722222 20.943,0.000116666667 16.6846667,0.000116666667 M16.6846667,2.82733889 C20.873,2.82733889 21.3668889,2.84289444 23.0235556,2.91678333 C27.2702222,3.11122778 29.2574444,5.12956111 29.4518889,9.34900556 C29.5257778,11.0017833 29.5413333,11.4995611 29.5413333,15.6878944 C29.5413333,19.8723389 29.5257778,20.3701167 29.4518889,22.0228944 C29.2574444,26.23845 27.2741111,28.2567833 23.0235556,28.4512278 C21.3668889,28.5251167 20.873,28.5406722 16.6846667,28.5406722 C12.4963333,28.5406722 12.0024444,28.5251167 10.3457778,28.4512278 C6.08355556,28.2567833 4.108,26.2306722 3.91355556,22.0228944 C3.83966667,20.3701167 3.82411111,19.8723389 3.82411111,15.6840056 C3.82411111,11.4995611 3.84355556,11.0017833 3.91355556,9.34511667 C4.11188889,5.12956111 6.09133333,3.11122778 10.3457778,2.91678333 C12.0024444,2.84289444 12.4963333,2.82733889 16.6846667,2.82733889" id="Fill-1"></path>
        </g>
    </g>
</svg>