<?xml version="1.0" encoding="UTF-8"?>
<svg width="31px" height="31px" viewBox="0 0 31 31" version="1.1" xmlns="http://www.w3.org/2000/svg" xmlns:xlink="http://www.w3.org/1999/xlink">
    <!-- Generator: Sketch 52.2 (67145) - http://www.bohemiancoding.com/sketch -->
    <title>social_in-dark</title>
    <desc>Created with Sketch.</desc>
    <g id="REBRAND" stroke="none" stroke-width="1" fill="none" fill-rule="evenodd">
        <g id="About" transform="translate(-975.000000, -1943.000000)" fill="#141313" fill-rule="nonzero">
            <g id="social_in-dark" transform="translate(975.000000, 1943.000000)">
                <path d="M28.7109271,0 L2.29051435,0 C1.02539798,0 0,0.994106269 0,2.22108119 L0,28.7779819 C0,30.0050289 1.02575835,31 2.29051435,31 L28.7109271,31 C29.9757552,31 31,30.0043802 31,28.7779819 L31,2.22108119 C31,0.994466635 29.9757552,0 28.7109271,0 Z M9.39831626,25.949107 L4.71443783,25.949107 L4.71443783,11.9529873 L9.39831626,11.9529873 L9.39831626,25.949107 Z M7.05684553,10.0408841 L7.02534915,10.0408841 C5.45463866,10.0408841 4.4364481,8.96670449 4.4364481,7.62188981 C4.4364481,6.24997559 5.48454941,5.20491354 7.0863959,5.20491354 C8.68838654,5.20491354 9.6737834,6.2496873 9.7049194,7.62188981 C9.7049194,8.96699278 8.68874691,10.0408841 7.05684553,10.0408841 Z M26.2823188,25.949107 L21.599954,25.949107 L21.599954,18.4606968 C21.599954,16.5790806 20.9215206,15.2951678 19.2282121,15.2951678 C17.9328246,15.2951678 17.1638662,16.1613441 16.8261992,16.99761 C16.7010786,17.2962815 16.6700867,17.714018 16.6700867,18.131178 L16.6700867,25.9488187 L11.9885867,25.9488187 C11.9885867,25.9488187 12.0498497,13.2654411 11.9885867,11.9527711 L16.6708074,11.9527711 L16.6708074,13.9370196 C17.2923743,12.9835627 18.403108,11.6234684 20.8895918,11.6234684 C23.9714796,11.6234684 26.2823188,13.6227082 26.2823188,17.9236791 L26.2823188,25.949107 Z M16.6405363,13.9986358 C16.6516363,13.9804358 16.6671363,13.9585358 16.6825363,13.9372358 L16.6825363,13.9986358 L16.6405363,13.9986358 Z" id="LinkedIn__x28_alt_x29_"></path>
            </g>
        </g>
    </g>
</svg>