<?xml version="1.0" encoding="UTF-8"?>
<svg width="31px" height="31px" viewBox="0 0 31 31" version="1.1" xmlns="http://www.w3.org/2000/svg" xmlns:xlink="http://www.w3.org/1999/xlink">
    <!-- Generator: Sketch 52.2 (67145) - http://www.bohemiancoding.com/sketch -->
    <title>social_fb</title>
    <desc>Created with Sketch.</desc>
    <g id="Symbols" stroke="none" stroke-width="1" fill="none" fill-rule="evenodd">
        <g id="Footer" transform="translate(-1242.000000, -528.000000)" fill="#FFFFFF" fill-rule="nonzero">
            <g id="Group-14">
                <g id="Group-7">
                    <g id="social_fb" transform="translate(1242.000000, 528.000000)">
                        <path d="M29.2879866,0 L1.71099256,0 C0.766679839,0 0,0.765148521 0,1.71099256 L0,29.2879866 C0,30.2338306 0.766679839,31 1.71099256,31 L16.5576302,31 L16.5576302,18.9949779 L12.5180136,18.9949779 L12.5180136,14.3157808 L16.5576302,14.3157808 L16.5576302,10.8652111 C16.5576302,6.86183561 19.0021241,4.68072845 22.5741784,4.68072845 C24.2867022,4.68072845 25.7552361,4.80884871 26.1834947,4.8644866 L26.1834947,9.04906804 L23.7058223,9.05008892 C21.7636007,9.05008892 21.3889383,9.97347362 21.3889383,11.3276691 L21.3889383,14.3142495 L26.0227063,14.3142495 L25.4168149,18.9929362 L21.3884278,18.9929362 L21.3884278,30.9984687 L29.2874761,30.9984687 C30.2328097,30.9984687 31,30.2312784 31,29.2879866 L31,1.70997168 C30.9994896,0.765148521 30.2333202,0 29.2879866,0 Z" id="Shape"></path>
                    </g>
                </g>
            </g>
        </g>
    </g>
</svg>