<?xml version="1.0" encoding="UTF-8"?>
<svg width="34px" height="27px" viewBox="0 0 34 27" version="1.1" xmlns="http://www.w3.org/2000/svg" xmlns:xlink="http://www.w3.org/1999/xlink">
    <!-- Generator: Sketch 52.2 (67145) - http://www.bohemiancoding.com/sketch -->
    <title>social_tw</title>
    <desc>Created with Sketch.</desc>
    <g id="Symbols" stroke="none" stroke-width="1" fill="none" fill-rule="evenodd">
        <g id="Footer" transform="translate(-1188.000000, -530.000000)" fill="#FFFFFF" fill-rule="nonzero">
            <g id="Group-14">
                <g id="Group-7">
                    <g id="social_tw" transform="translate(1188.000000, 530.000000)">
                        <path d="M34,3.19452485 C32.7486091,3.73662242 31.4058847,4.10426679 29.9951046,4.26840052 C31.4356069,3.42508333 32.5382754,2.08746397 33.0608874,0.498484266 C31.7096629,1.27945019 30.2181605,1.84653172 28.6289357,2.15394302 C27.3563225,0.826697431 25.5461529,0 23.5383718,0 C19.6864766,0 16.5633048,3.05331118 16.5633048,6.81698145 C16.5633048,7.35076913 16.6249161,7.87211915 16.7439162,8.37065773 C10.9480179,8.08605787 5.8086206,5.37133362 2.36889276,1.24621067 C1.767614,2.25154339 1.42555788,3.42296513 1.42555788,4.6734122 C1.42555788,7.03923004 2.65783768,9.12669401 4.5275074,10.347975 C3.38444997,10.3106077 2.30939266,10.0031964 1.36822446,9.49222017 L1.36822446,9.57738288 C1.36822446,12.8799362 3.77328394,15.6362098 6.96228915,16.2635244 C6.37801042,16.4172301 5.7618983,16.5023928 5.12450837,16.5023928 C4.67411875,16.5023928 4.23856248,16.4587795 3.81150623,16.3756807 C4.69956323,19.0862771 7.274623,21.0574028 10.3255724,21.1114441 C7.93962408,22.9392922 4.93117472,24.0256055 1.66355827,24.0256055 C1.10055735,24.0256055 0.546000892,23.992366 0,23.932133 C3.0870606,25.8700734 6.75201103,27 10.6910175,27 C23.5214829,27 30.5348277,16.6104212 30.5348277,7.60006558 L30.5114387,6.71731718 C31.8817743,5.76178943 33.0672763,4.56125596 34,3.19452485 Z" id="Shape"></path>
                    </g>
                </g>
            </g>
        </g>
    </g>
</svg>