<?xml version="1.0" encoding="UTF-8"?>
<svg width="27px" height="34px" viewBox="0 0 27 34" version="1.1" xmlns="http://www.w3.org/2000/svg" xmlns:xlink="http://www.w3.org/1999/xlink">
    <!-- Generator: Sketch 52.2 (67145) - http://www.bohemiancoding.com/sketch -->
    <title>social_pi-dark</title>
    <desc>Created with Sketch.</desc>
    <g id="REBRAND" stroke="none" stroke-width="1" fill="none" fill-rule="evenodd">
        <g id="About" transform="translate(-972.000000, -1816.000000)" fill="#020303">
            <g id="social_pi-dark" transform="translate(971.000000, 1816.000000)">
                <path d="M6.7072,32.4651271 C6.52491429,30.8204129 6.3592,28.29327 6.78177143,26.4994129 C7.15462857,24.8754129 9.21777143,16.1546986 9.21777143,16.1546986 C9.21777143,16.1546986 8.59634286,14.9118414 8.59634286,13.0641271 C8.59634286,10.1765557 10.2700571,8.01812714 12.3580571,8.01812714 C14.1312,8.01812714 14.9929143,9.34798429 14.9929143,10.9471271 C14.9929143,12.7285557 13.8577714,15.3965557 13.2694857,17.8739843 C12.7764857,19.94127 14.3052,21.6315557 16.3476286,21.6315557 C20.0472,21.6315557 22.8850571,17.7289843 22.8850571,12.1029843 C22.8850571,7.12327 19.3097714,3.63912714 14.2016286,3.63912714 C8.28148571,3.63912714 4.80562857,8.08027 4.80562857,12.6705557 C4.80562857,14.4561271 5.49334286,16.37427 6.35505714,17.4141271 C6.52491429,17.62127 6.54977143,17.8035557 6.49591429,18.0148414 L5.9242,20.3721271 C5.82891429,20.75327 5.61762857,20.8319843 5.22405714,20.6496986 C2.62648571,19.4399843 0.998342857,15.6409843 0.998342857,12.5876986 C0.998342857,6.02541286 5.76677143,0.00169857143 14.7443429,0.00169857143 C21.9653429,0.00169857143 27.5706286,5.14298429 27.5706286,12.0159843 C27.5706286,19.18727 23.0507714,24.95827 16.7784857,24.95827 C14.6697714,24.95827 12.6853429,23.8645557 12.0059143,22.5678414 L10.7133429,27.5144129 C10.2452,29.3206986 8.97748571,31.5868414 8.1282,32.9664129 C7.27891429,34.3459843 6.88534286,33.5878414 6.7072,32.4651271" id="Fill-1"></path>
            </g>
        </g>
    </g>
</svg>