<?xml version="1.0" encoding="utf-8"?>
<!-- Generator: Adobe Illustrator 22.1.0, SVG Export Plug-In . SVG Version: 6.00 Build 0)  -->
<svg version="1.1" id="Layer_1" xmlns="http://www.w3.org/2000/svg" xmlns:xlink="http://www.w3.org/1999/xlink" x="0px" y="0px"
	 viewBox="0 0 931.5 539" style="enable-background:new 0 0 931.5 539;" xml:space="preserve">
<style type="text/css">
	.st0{clip-path:url(#SVGID_2_);}
	.st1{clip-path:url(#SVGID_4_);}
	.st2{fill:#FFFFFF;}
	.st3{clip-path:url(#SVGID_6_);}
	.st4{clip-path:url(#SVGID_8_);}
	.st5{clip-path:url(#SVGID_10_);}
</style>
<g>
	<g>
		<defs>
			<rect id="SVGID_1_" width="931.5" height="539"/>
		</defs>
		<clipPath id="SVGID_2_">
			<use xlink:href="#SVGID_1_"  style="overflow:visible;"/>
		</clipPath>
		<g class="st0">
			<g>
				<defs>
					<rect id="SVGID_3_" x="909.4" y="-279.5" width="931.5" height="539"/>
				</defs>
				<clipPath id="SVGID_4_">
					<use xlink:href="#SVGID_3_"  style="overflow:visible;"/>
				</clipPath>
				<g class="st1">
					<g>
						<polygon class="st2" points="1687.5,529.8 1684,527.8 1838.9,259.5 1761.7,125.9 1765.2,123.9 1843.5,259.5 1842.9,260.5 
													"/>
					</g>
					<g>
						<polygon class="st2" points="1676.4,510.5 1672.9,508.5 1816.7,259.5 1750.6,145.1 1754.1,143.1 1821.3,259.5 1820.7,260.5 
													"/>
					</g>
					<g>
						<polygon class="st2" points="1665.3,491.3 1661.8,489.3 1794.5,259.5 1739.5,164.4 1743,162.4 1799.1,259.5 1798.5,260.5 
													"/>
					</g>
					<g>
						<polygon class="st2" points="1654.2,472.1 1650.7,470.1 1772.3,259.5 1728.4,183.6 1731.9,181.6 1776.9,259.5 1776.3,260.5 
													"/>
					</g>
					<g>
						<polygon class="st2" points="1643.1,452.9 1639.6,450.9 1750.1,259.5 1717.3,202.8 1720.8,200.8 1754.7,259.5 						"/>
					</g>
					<g>
						<polygon class="st2" points="1632,433.6 1628.5,431.6 1727.8,259.5 1706.2,222.1 1709.7,220.1 1732.5,259.5 						"/>
					</g>
					<g>
						<polygon class="st2" points="1620.8,414.4 1617.4,412.4 1705.6,259.5 1695.1,241.3 1698.6,239.3 1710.2,259.5 						"/>
					</g>
					<g>
						
							<rect x="1569.2" y="324.9" transform="matrix(0.5 -0.866 0.866 0.5 540.3369 1589.6228)" class="st2" width="155.4" height="4"/>
					</g>
					<g>
						<polygon class="st2" points="1996.6,261.5 1840,261.5 1684,-8.8 1687.5,-10.8 1842.3,257.5 1996.6,257.5 						"/>
					</g>
					<g>
						<polygon class="st2" points="1985.5,242.2 1851.1,242.2 1706.2,-8.8 1709.7,-10.8 1853.4,238.2 1985.5,238.2 						"/>
					</g>
					<g>
						<polygon class="st2" points="1974.4,223 1862.2,223 1728.4,-8.8 1731.9,-10.8 1864.5,219 1974.4,219 						"/>
					</g>
					<g>
						<polygon class="st2" points="1963.3,203.8 1873.3,203.8 1750.6,-8.8 1754.1,-10.8 1875.7,199.8 1963.3,199.8 						"/>
					</g>
					<g>
						<polygon class="st2" points="1884.4,184.5 1772.8,-8.8 1776.3,-10.8 1886.8,180.5 1952.2,180.5 1952.2,184.5 						"/>
					</g>
					<g>
						<polygon class="st2" points="1941.1,165.3 1895.6,165.3 1795,-8.8 1798.5,-10.8 1897.9,161.3 1941.1,161.3 						"/>
					</g>
					<g>
						<polygon class="st2" points="1930,146.1 1906.7,146.1 1817.3,-8.8 1820.7,-10.8 1909,142.1 1930,142.1 						"/>
					</g>
					<g>
						<rect x="1878" y="-20.2" transform="matrix(0.866 -0.5 0.5 0.866 223.0859 947.6627)" class="st2" width="4" height="155.4"/>
					</g>
					<g>
						<polygon class="st2" points="1606.3,395.1 1528,259.5 1528.6,258.5 1684,-10.8 1687.5,-8.8 1532.6,259.5 1609.7,393.1 						
							"/>
					</g>
					<g>
						<polygon class="st2" points="1617.4,375.9 1550.2,259.5 1550.8,258.5 1695.1,8.4 1698.6,10.4 1554.8,259.5 1620.8,373.9 
													"/>
					</g>
					<g>
						<polygon class="st2" points="1628.5,356.6 1572.4,259.5 1573,258.5 1706.2,27.7 1709.7,29.7 1577,259.5 1632,354.6 						"/>
					</g>
					<g>
						<polygon class="st2" points="1639.6,337.4 1594.6,259.5 1595.2,258.5 1717.3,46.9 1720.8,48.9 1599.2,259.5 1643.1,335.4 
													"/>
					</g>
					<g>
						<polygon class="st2" points="1650.7,318.2 1616.8,259.5 1728.4,66.1 1731.9,68.1 1621.4,259.5 1654.2,316.2 						"/>
					</g>
					<g>
						<polygon class="st2" points="1661.8,298.9 1639,259.5 1739.5,85.4 1743,87.4 1643.6,259.5 1665.3,296.9 						"/>
					</g>
					<g>
						<polygon class="st2" points="1672.9,279.7 1661.2,259.5 1750.6,104.6 1754.1,106.6 1665.8,259.5 1676.4,277.7 						"/>
					</g>
					<g>
						
							<rect x="1646.9" y="190.1" transform="matrix(0.5 -0.866 0.866 0.5 695.8647 1589.5922)" class="st2" width="155.4" height="4"/>
					</g>
					<g>
						<polygon class="st2" points="1765.2,395.1 1761.7,393.1 1840,257.5 2152.1,257.5 2152.1,261.5 1842.3,261.5 						"/>
					</g>
				</g>
				<g class="st1">
					<g>
						<polygon class="st2" points="1530.9,531 1374.3,531 1218.3,260.7 1221.7,258.7 1376.6,527 1530.9,527 						"/>
					</g>
					<g>
						<polygon class="st2" points="1519.8,511.7 1385.4,511.7 1240.5,260.7 1243.9,258.7 1387.7,507.7 1519.8,507.7 						"/>
					</g>
					<g>
						<polygon class="st2" points="1508.7,492.5 1396.5,492.5 1262.7,260.7 1266.1,258.7 1398.8,488.5 1508.7,488.5 						"/>
					</g>
					<g>
						<polygon class="st2" points="1497.6,473.3 1407.6,473.3 1284.9,260.7 1288.3,258.7 1409.9,469.3 1497.6,469.3 						"/>
					</g>
					<g>
						<polygon class="st2" points="1418.7,454 1307.1,260.7 1310.5,258.7 1421,450 1486.5,450 1486.5,454 						"/>
					</g>
					<g>
						<polygon class="st2" points="1475.4,434.8 1429.8,434.8 1329.3,260.7 1332.8,258.7 1432.1,430.8 1475.4,430.8 						"/>
					</g>
					<g>
						<polygon class="st2" points="1464.3,415.6 1440.9,415.6 1351.5,260.7 1355,258.7 1443.2,411.6 1464.3,411.6 						"/>
					</g>
					<g>
						
							<rect x="1412.3" y="249.3" transform="matrix(0.866 -0.5 0.5 0.866 25.9556 750.9044)" class="st2" width="4" height="155.4"/>
					</g>
					<g>
						<polygon class="st2" points="1140.5,664.6 1062.2,529 1062.8,528 1218.3,258.7 1221.7,260.7 1066.8,529 1144,662.6 						"/>
					</g>
					<g>
						<polygon class="st2" points="1684.6,530 1529.7,261.7 1375.4,261.7 1375.4,257.7 1532,257.7 1688.1,528 						"/>
					</g>
				</g>
				<g class="st1">
					<g>
						<polygon class="st2" points="756,529.8 752.5,527.8 907.4,259.5 830.2,125.9 833.7,123.9 912,259.5 911.4,260.5 						"/>
					</g>
					<g>
						<polygon class="st2" points="1065.1,261.5 908.5,261.5 752.5,-8.8 756,-10.8 910.8,257.5 1065.1,257.5 						"/>
					</g>
					<g>
						<polygon class="st2" points="1054,242.2 919.6,242.2 774.7,-8.8 778.2,-10.8 921.9,238.2 1054,238.2 						"/>
					</g>
					<g>
						<polygon class="st2" points="1042.9,223 930.7,223 796.9,-8.8 800.4,-10.8 933,219 1042.9,219 						"/>
					</g>
					<g>
						<polygon class="st2" points="1031.8,203.8 941.8,203.8 819.1,-8.8 822.6,-10.8 944.2,199.8 1031.8,199.8 						"/>
					</g>
					<g>
						<polygon class="st2" points="952.9,184.5 841.3,-8.8 844.8,-10.8 955.3,180.5 1020.7,180.5 1020.7,184.5 						"/>
					</g>
					<g>
						<polygon class="st2" points="1009.6,165.3 964.1,165.3 863.5,-8.8 867,-10.8 966.4,161.3 1009.6,161.3 						"/>
					</g>
					<g>
						<polygon class="st2" points="998.5,146.1 975.2,146.1 885.8,-8.8 889.2,-10.8 977.5,142.1 998.5,142.1 						"/>
					</g>
					<g>
						<rect x="946.5" y="-20.2" transform="matrix(0.866 -0.5 0.5 0.866 98.3069 481.9445)" class="st2" width="4" height="155.4"/>
					</g>
					<g>
						<polygon class="st2" points="1218.9,260.5 1064,-7.8 909.7,-7.8 909.7,-11.8 1066.3,-11.8 1222.3,258.5 						"/>
					</g>
					<g>
						<polygon class="st2" points="1196.6,260.5 1052.9,11.4 920.8,11.4 920.8,7.4 1055.2,7.4 1200.1,258.5 						"/>
					</g>
					<g>
						<polygon class="st2" points="1174.4,260.5 1041.8,30.7 931.9,30.7 931.9,26.7 1044.1,26.7 1177.9,258.5 						"/>
					</g>
					<g>
						<polygon class="st2" points="1152.2,260.5 1030.7,49.9 943,49.9 943,45.9 1033,45.9 1155.7,258.5 						"/>
					</g>
					<g>
						<polygon class="st2" points="1130,260.5 1019.6,69.1 954.1,69.1 954.1,65.1 1021.9,65.1 1133.5,258.5 						"/>
					</g>
					<g>
						<polygon class="st2" points="1107.8,260.5 1008.5,88.4 965.2,88.4 965.2,84.4 1010.8,84.4 1111.3,258.5 						"/>
					</g>
					<g>
						<polygon class="st2" points="1085.6,260.5 997.4,107.6 976.3,107.6 976.3,103.6 999.7,103.6 1089.1,258.5 						"/>
					</g>
					<g>
						
							<rect x="1024.3" y="114.4" transform="matrix(0.866 -0.5 0.5 0.866 41.3992 538.8423)" class="st2" width="4" height="155.4"/>
					</g>
					<g>
						<polygon class="st2" points="833.7,395.1 830.2,393.1 908.5,257.5 1220.6,257.5 1220.6,261.5 910.8,261.5 						"/>
					</g>
				</g>
				<g class="st1">
					<g>
						<polygon class="st2" points="1687.5,-9.2 1684,-11.2 1838.9,-279.5 1761.7,-413.1 1765.2,-415.1 1843.5,-279.5 1842.9,-278.5 
													"/>
					</g>
					<g>
						<polygon class="st2" points="1676.4,-28.5 1672.9,-30.5 1816.7,-279.5 1750.6,-393.9 1754.1,-395.9 1821.3,-279.5 
							1820.7,-278.5 						"/>
					</g>
					<g>
						<polygon class="st2" points="1665.3,-47.7 1661.8,-49.7 1794.5,-279.5 1739.5,-374.6 1743,-376.6 1799.1,-279.5 
							1798.5,-278.5 						"/>
					</g>
					<g>
						<polygon class="st2" points="1654.2,-66.9 1650.7,-68.9 1772.3,-279.5 1728.4,-355.4 1731.9,-357.4 1776.9,-279.5 
							1776.3,-278.5 						"/>
					</g>
					<g>
						<polygon class="st2" points="1643.1,-86.1 1639.6,-88.1 1750.1,-279.5 1717.3,-336.2 1720.8,-338.2 1754.7,-279.5 						"/>
					</g>
					<g>
						<polygon class="st2" points="1632,-105.4 1628.5,-107.4 1727.8,-279.5 1706.2,-316.9 1709.7,-318.9 1732.5,-279.5 						"/>
					</g>
					<g>
						<polygon class="st2" points="1620.8,-124.6 1617.4,-126.6 1705.6,-279.5 1695.1,-297.7 1698.6,-299.7 1710.2,-279.5 						"/>
					</g>
					<g>
						
							<rect x="1569.2" y="-214.1" transform="matrix(0.5 -0.866 0.866 0.5 1007.1168 1320.1365)" class="st2" width="155.4" height="4"/>
					</g>
					<g>
						<polygon class="st2" points="1997.8,-8.2 1685.7,-8.2 1685.7,-12.2 1995.5,-12.2 2072.6,-145.8 2076.1,-143.8 						"/>
					</g>
					<g>
						<polygon class="st2" points="1986.7,-27.5 1696.8,-27.5 1696.8,-31.5 1984.4,-31.5 2050.4,-145.8 2053.9,-143.8 						"/>
					</g>
					<g>
						<polygon class="st2" points="1975.6,-46.7 1707.9,-46.7 1707.9,-50.7 1973.3,-50.7 2028.2,-145.8 2031.7,-143.8 						"/>
					</g>
					<g>
						<polygon class="st2" points="1964.5,-65.9 1719,-65.9 1719,-69.9 1962.2,-69.9 2006,-145.8 2009.5,-143.8 						"/>
					</g>
					<g>
						<polygon class="st2" points="1953.4,-85.1 1730.2,-85.1 1730.2,-89.1 1951.1,-89.1 1983.8,-145.8 1987.3,-143.8 						"/>
					</g>
					<g>
						<polygon class="st2" points="1942.3,-104.4 1741.3,-104.4 1741.3,-108.4 1940,-108.4 1961.6,-145.8 1965.1,-143.8 						"/>
					</g>
					<g>
						<polygon class="st2" points="1931.2,-123.6 1752.4,-123.6 1752.4,-127.6 1928.9,-127.6 1939.4,-145.8 1942.8,-143.8 						"/>
					</g>
					<g>
						<rect x="1763.5" y="-146.8" class="st2" width="155.4" height="4"/>
					</g>
					<g>
						<polygon class="st2" points="1996.6,-277.5 1840,-277.5 1684,-547.8 1687.5,-549.8 1842.3,-281.5 1996.6,-281.5 						"/>
					</g>
					<g>
						<polygon class="st2" points="1606.3,-143.9 1528,-279.5 1528.6,-280.5 1684,-549.8 1687.5,-547.8 1532.6,-279.5 
							1609.7,-145.9 						"/>
					</g>
					<g>
						<polygon class="st2" points="1617.4,-163.1 1550.2,-279.5 1550.8,-280.5 1695.1,-530.6 1698.6,-528.6 1554.8,-279.5 
							1620.8,-165.1 						"/>
					</g>
					<g>
						<polygon class="st2" points="1628.5,-182.4 1572.4,-279.5 1573,-280.5 1706.2,-511.3 1709.7,-509.3 1577,-279.5 1632,-184.4 
													"/>
					</g>
					<g>
						<polygon class="st2" points="1639.6,-201.6 1594.6,-279.5 1595.2,-280.5 1717.3,-492.1 1720.8,-490.1 1599.2,-279.5 
							1643.1,-203.6 						"/>
					</g>
					<g>
						<polygon class="st2" points="1650.7,-220.8 1616.8,-279.5 1728.4,-472.9 1731.9,-470.9 1621.4,-279.5 1654.2,-222.8 						"/>
					</g>
					<g>
						<polygon class="st2" points="1661.8,-240.1 1639,-279.5 1739.5,-453.6 1743,-451.6 1643.6,-279.5 1665.3,-242.1 						"/>
					</g>
					<g>
						<polygon class="st2" points="1672.9,-259.3 1661.2,-279.5 1750.6,-434.4 1754.1,-432.4 1665.8,-279.5 1676.4,-261.3 						"/>
					</g>
					<g>
						
							<rect x="1646.9" y="-348.9" transform="matrix(0.5 -0.866 0.866 0.5 1162.6445 1320.1058)" class="st2" width="155.4" height="4"/>
					</g>
					<g>
						<polygon class="st2" points="1765.2,-143.9 1761.7,-145.9 1840,-281.5 2152.1,-281.5 2152.1,-277.5 1842.3,-277.5 						"/>
					</g>
					<g>
						<polygon class="st2" points="1787.4,-143.9 1783.9,-145.9 1851.1,-262.3 2141,-262.3 2141,-258.3 1853.4,-258.3 						"/>
					</g>
					<g>
						<polygon class="st2" points="1809.6,-143.9 1806.1,-145.9 1862.2,-243.1 2129.9,-243.1 2129.9,-239.1 1864.5,-239.1 						"/>
					</g>
					<g>
						<polygon class="st2" points="1831.8,-143.9 1828.3,-145.9 1873.3,-223.8 2118.8,-223.8 2118.8,-219.8 1875.6,-219.8 						"/>
					</g>
				</g>
				<g class="st1">
					<g>
						<polygon class="st2" points="1221.7,260.3 1218.3,258.3 1373.1,-10 1296,-143.6 1299.4,-145.6 1377.7,-10 1377.2,-9 						"/>
					</g>
					<g>
						<polygon class="st2" points="1210.6,241 1207.2,239 1350.9,-10 1284.9,-124.4 1288.3,-126.4 1355.5,-10 1355,-9 						"/>
					</g>
					<g>
						<polygon class="st2" points="1199.5,221.8 1196,219.8 1328.7,-10 1273.8,-105.1 1277.2,-107.1 1333.3,-10 1332.8,-9 						"/>
					</g>
					<g>
						<polygon class="st2" points="1188.4,202.6 1184.9,200.6 1306.5,-10 1262.7,-85.9 1266.1,-87.9 1311.1,-10 1310.6,-9 						"/>
					</g>
					<g>
						<polygon class="st2" points="1177.3,183.4 1173.8,181.4 1284.3,-10 1251.6,-66.7 1255,-68.7 1288.9,-10 						"/>
					</g>
					<g>
						<polygon class="st2" points="1166.2,164.1 1162.7,162.1 1262.1,-10 1240.5,-47.4 1243.9,-49.4 1266.7,-10 						"/>
					</g>
					<g>
						<polygon class="st2" points="1155.1,144.9 1151.6,142.9 1239.9,-10 1229.4,-28.2 1232.8,-30.2 1244.5,-10 						"/>
					</g>
					<g>
						
							<rect x="1103.4" y="55.4" transform="matrix(0.5 -0.866 0.866 0.5 540.8636 1051.5352)" class="st2" width="155.4" height="4"/>
					</g>
					<g>
						<polygon class="st2" points="1532,261.3 1220,261.3 1220,257.3 1529.7,257.3 1606.9,123.7 1610.3,125.7 						"/>
					</g>
					<g>
						<polygon class="st2" points="1520.9,242 1231.1,242 1231.1,238 1518.6,238 1584.7,123.7 1588.1,125.7 						"/>
					</g>
					<g>
						<polygon class="st2" points="1509.8,222.8 1242.2,222.8 1242.2,218.8 1507.5,218.8 1562.5,123.7 1565.9,125.7 						"/>
					</g>
					<g>
						<polygon class="st2" points="1498.7,203.6 1253.3,203.6 1253.3,199.6 1496.4,199.6 1540.3,123.7 1543.7,125.7 						"/>
					</g>
					<g>
						<polygon class="st2" points="1487.6,184.4 1264.4,184.4 1264.4,180.4 1485.3,180.4 1518,123.7 1521.5,125.7 						"/>
					</g>
					<g>
						<polygon class="st2" points="1476.5,165.1 1275.5,165.1 1275.5,161.1 1474.2,161.1 1495.8,123.7 1499.3,125.7 						"/>
					</g>
					<g>
						<polygon class="st2" points="1465.4,145.9 1286.6,145.9 1286.6,141.9 1463.1,141.9 1473.6,123.7 1477.1,125.7 						"/>
					</g>
					<g>
						<rect x="1297.7" y="122.7" class="st2" width="155.4" height="4"/>
					</g>
					<g>
						<polygon class="st2" points="1530.9,-8 1374.3,-8 1218.3,-278.3 1221.7,-280.3 1376.6,-12 1530.9,-12 						"/>
					</g>
					<g>
						<polygon class="st2" points="1519.8,-27.3 1385.4,-27.3 1240.5,-278.3 1243.9,-280.3 1387.7,-31.3 1519.8,-31.3 						"/>
					</g>
					<g>
						<polygon class="st2" points="1508.7,-46.5 1396.5,-46.5 1262.7,-278.3 1266.1,-280.3 1398.8,-50.5 1508.7,-50.5 						"/>
					</g>
					<g>
						<polygon class="st2" points="1497.6,-65.7 1407.6,-65.7 1284.9,-278.3 1288.3,-280.3 1409.9,-69.7 1497.6,-69.7 						"/>
					</g>
					<g>
						<polygon class="st2" points="1418.7,-85 1307.1,-278.3 1310.5,-280.3 1421,-89 1486.5,-89 1486.5,-85 						"/>
					</g>
					<g>
						<polygon class="st2" points="1475.4,-104.2 1429.8,-104.2 1329.3,-278.3 1332.8,-280.3 1432.1,-108.2 1475.4,-108.2 						"/>
					</g>
					<g>
						<polygon class="st2" points="1464.3,-123.4 1440.9,-123.4 1351.5,-278.3 1355,-280.3 1443.2,-127.4 1464.3,-127.4 						"/>
					</g>
					<g>
						
							<rect x="1412.3" y="-289.7" transform="matrix(0.866 -0.5 0.5 0.866 295.4372 678.7028)" class="st2" width="4" height="155.4"/>
					</g>
					<g>
						<polygon class="st2" points="1140.5,125.6 1062.2,-10 1062.8,-11 1218.3,-280.3 1221.7,-278.3 1066.8,-10 1144,123.6 						
							"/>
					</g>
					<g>
						<polygon class="st2" points="1151.6,106.4 1084.4,-10 1085,-11 1229.4,-261.1 1232.8,-259.1 1089.1,-10 1155.1,104.4 						
							"/>
					</g>
					<g>
						<polygon class="st2" points="1162.7,87.1 1106.6,-10 1107.2,-11 1240.5,-241.8 1243.9,-239.8 1111.3,-10 1166.2,85.1 						
							"/>
					</g>
					<g>
						<polygon class="st2" points="1173.8,67.9 1128.8,-10 1129.4,-11 1251.6,-222.6 1255,-220.6 1133.5,-10 1177.3,65.9 						"/>
					</g>
					<g>
						<polygon class="st2" points="1184.9,48.7 1151,-10 1262.7,-203.4 1266.1,-201.4 1155.7,-10 1188.4,46.7 						"/>
					</g>
					<g>
						<polygon class="st2" points="1196,29.4 1173.3,-10 1273.8,-184.1 1277.2,-182.1 1177.9,-10 1199.5,27.4 						"/>
					</g>
					<g>
						<polygon class="st2" points="1207.2,10.2 1195.5,-10 1284.9,-164.9 1288.3,-162.9 1200.1,-10 1210.6,8.2 						"/>
					</g>
					<g>
						
							<rect x="1181.1" y="-79.4" transform="matrix(0.5 -0.866 0.866 0.5 696.3915 1051.5045)" class="st2" width="155.4" height="4"/>
					</g>
					<g>
						<polygon class="st2" points="1684.6,-9 1529.7,-277.3 1375.4,-277.3 1375.4,-281.3 1532,-281.3 1688.1,-11 						"/>
					</g>
					<g>
						<polygon class="st2" points="1662.4,-9 1518.6,-258.1 1386.5,-258.1 1386.5,-262.1 1520.9,-262.1 1665.9,-11 						"/>
					</g>
					<g>
						<polygon class="st2" points="1640.2,-9 1507.5,-238.8 1397.6,-238.8 1397.6,-242.8 1509.8,-242.8 1643.7,-11 						"/>
					</g>
					<g>
						<polygon class="st2" points="1618,-9 1496.4,-219.6 1408.7,-219.6 1408.7,-223.6 1498.7,-223.6 1621.4,-11 						"/>
					</g>
					<g>
						<polygon class="st2" points="1595.8,-9 1485.3,-200.4 1419.8,-200.4 1419.8,-204.4 1487.6,-204.4 1599.2,-11 						"/>
					</g>
					<g>
						<polygon class="st2" points="1573.6,-9 1474.2,-181.1 1431,-181.1 1431,-185.1 1476.5,-185.1 1577,-11 						"/>
					</g>
					<g>
						<polygon class="st2" points="1551.4,-9 1463.1,-161.9 1442.1,-161.9 1442.1,-165.9 1465.4,-165.9 1554.8,-11 						"/>
					</g>
					<g>
						
							<rect x="1490" y="-155.1" transform="matrix(0.866 -0.5 0.5 0.866 238.5288 735.6002)" class="st2" width="4" height="155.4"/>
					</g>
					<g>
						<polygon class="st2" points="1299.4,125.6 1296,123.6 1374.3,-12 1686.3,-12 1686.3,-8 1376.6,-8 						"/>
					</g>
					<g>
						<polygon class="st2" points="1321.6,125.6 1318.2,123.6 1385.4,7.2 1675.2,7.2 1675.2,11.2 1387.7,11.2 						"/>
					</g>
					<g>
						<polygon class="st2" points="1343.9,125.6 1340.4,123.6 1396.5,26.4 1664.1,26.4 1664.1,30.4 1398.8,30.4 						"/>
					</g>
					<g>
						<polygon class="st2" points="1366.1,125.6 1362.6,123.6 1407.6,45.7 1653,45.7 1653,49.7 1409.9,49.7 						"/>
					</g>
					<g>
						<polygon class="st2" points="1388.3,125.6 1384.8,123.6 1418.7,64.9 1641.9,64.9 1641.9,68.9 1421,68.9 						"/>
					</g>
					<g>
						<polygon class="st2" points="1410.5,125.6 1407,123.6 1429.8,84.1 1630.8,84.1 1630.8,88.1 1432.1,88.1 						"/>
					</g>
					<g>
						<polygon class="st2" points="1432.7,125.6 1429.2,123.6 1440.9,103.4 1619.7,103.4 1619.7,107.4 1443.2,107.4 						"/>
					</g>
					<g>
						<rect x="1453.2" y="122.6" class="st2" width="155.4" height="4"/>
					</g>
				</g>
				<g class="st1">
					<g>
						<polygon class="st2" points="756,-9.2 752.5,-11.2 907.4,-279.5 830.2,-413.1 833.7,-415.1 912,-279.5 911.4,-278.5 						"/>
					</g>
					<g>
						<polygon class="st2" points="1066.3,-8.2 754.2,-8.2 754.2,-12.2 1064,-12.2 1141.1,-145.8 1144.6,-143.8 						"/>
					</g>
					<g>
						<polygon class="st2" points="1055.2,-27.5 765.3,-27.5 765.3,-31.5 1052.9,-31.5 1118.9,-145.8 1122.4,-143.8 						"/>
					</g>
					<g>
						<polygon class="st2" points="1044.1,-46.7 776.4,-46.7 776.4,-50.7 1041.8,-50.7 1096.7,-145.8 1100.2,-143.8 						"/>
					</g>
					<g>
						<polygon class="st2" points="1033,-65.9 787.5,-65.9 787.5,-69.9 1030.7,-69.9 1074.5,-145.8 1078,-143.8 						"/>
					</g>
					<g>
						<polygon class="st2" points="1021.9,-85.1 798.7,-85.1 798.7,-89.1 1019.6,-89.1 1052.3,-145.8 1055.8,-143.8 						"/>
					</g>
					<g>
						<polygon class="st2" points="1010.8,-104.4 809.8,-104.4 809.8,-108.4 1008.5,-108.4 1030.1,-145.8 1033.6,-143.8 						"/>
					</g>
					<g>
						<polygon class="st2" points="999.7,-123.6 820.9,-123.6 820.9,-127.6 997.4,-127.6 1007.9,-145.8 1011.3,-143.8 						"/>
					</g>
					<g>
						<rect x="832" y="-146.8" class="st2" width="155.4" height="4"/>
					</g>
					<g>
						<polygon class="st2" points="1065.1,-277.5 908.5,-277.5 752.5,-547.8 756,-549.8 910.8,-281.5 1065.1,-281.5 						"/>
					</g>
					<g>
						<polygon class="st2" points="1218.9,-278.5 1064,-546.8 909.7,-546.8 909.7,-550.8 1066.3,-550.8 1222.3,-280.5 						"/>
					</g>
					<g>
						<polygon class="st2" points="1196.6,-278.5 1052.9,-527.6 920.8,-527.6 920.8,-531.6 1055.2,-531.6 1200.1,-280.5 						"/>
					</g>
					<g>
						<polygon class="st2" points="1174.4,-278.5 1041.8,-508.3 931.9,-508.3 931.9,-512.3 1044.1,-512.3 1177.9,-280.5 						"/>
					</g>
					<g>
						<polygon class="st2" points="1152.2,-278.5 1030.7,-489.1 943,-489.1 943,-493.1 1033,-493.1 1155.7,-280.5 						"/>
					</g>
					<g>
						<polygon class="st2" points="1130,-278.5 1019.6,-469.9 954.1,-469.9 954.1,-473.9 1021.9,-473.9 1133.5,-280.5 						"/>
					</g>
					<g>
						<polygon class="st2" points="1107.8,-278.5 1008.5,-450.6 965.2,-450.6 965.2,-454.6 1010.8,-454.6 1111.3,-280.5 						"/>
					</g>
					<g>
						<polygon class="st2" points="1085.6,-278.5 997.4,-431.4 976.3,-431.4 976.3,-435.4 999.7,-435.4 1089.1,-280.5 						"/>
					</g>
					<g>
						
							<rect x="1024.3" y="-424.6" transform="matrix(0.866 -0.5 0.5 0.866 310.8801 466.6411)" class="st2" width="4" height="155.4"/>
					</g>
					<g>
						<polygon class="st2" points="833.7,-143.9 830.2,-145.9 908.5,-281.5 1220.6,-281.5 1220.6,-277.5 910.8,-277.5 						"/>
					</g>
					<g>
						<polygon class="st2" points="855.9,-143.9 852.4,-145.9 919.6,-262.3 1209.5,-262.3 1209.5,-258.3 921.9,-258.3 						"/>
					</g>
					<g>
						<polygon class="st2" points="878.1,-143.9 874.6,-145.9 930.7,-243.1 1198.4,-243.1 1198.4,-239.1 933,-239.1 						"/>
					</g>
					<g>
						<polygon class="st2" points="900.3,-143.9 896.8,-145.9 941.8,-223.8 1187.3,-223.8 1187.3,-219.8 944.1,-219.8 						"/>
					</g>
					<g>
						<polygon class="st2" points="922.5,-143.9 919.1,-145.9 952.9,-204.6 1176.2,-204.6 1176.2,-200.6 955.2,-200.6 						"/>
					</g>
					<g>
						<polygon class="st2" points="944.7,-143.9 941.3,-145.9 964,-185.4 1165.1,-185.4 1165.1,-181.4 966.4,-181.4 						"/>
					</g>
					<g>
						<polygon class="st2" points="966.9,-143.9 963.5,-145.9 975.2,-166.1 1154,-166.1 1154,-162.1 977.5,-162.1 						"/>
					</g>
					<g>
						<rect x="987.4" y="-146.9" class="st2" width="155.4" height="4"/>
					</g>
				</g>
				<g class="st1">
					<g>
						<polygon class="st2" points="1221.7,-278.7 1218.3,-280.7 1373.1,-549 1296,-682.6 1299.4,-684.6 1377.7,-549 1377.2,-548 
													"/>
					</g>
					<g>
						<polygon class="st2" points="1532,-277.7 1220,-277.7 1220,-281.7 1529.7,-281.7 1606.9,-415.3 1610.3,-413.3 						"/>
					</g>
				</g>
			</g>
		</g>
		<g class="st0">
			<g>
				<defs>
					<rect id="SVGID_5_" x="909.4" y="259.5" width="931.5" height="539"/>
				</defs>
				<clipPath id="SVGID_6_">
					<use xlink:href="#SVGID_5_"  style="overflow:visible;"/>
				</clipPath>
				<g class="st3">
					<g>
						<polygon class="st2" points="1687.5,1068.8 1684,1066.8 1838.9,798.5 1761.7,664.9 1765.2,662.9 1843.5,798.5 1842.9,799.5 
													"/>
					</g>
					<g>
						<polygon class="st2" points="1676.4,1049.5 1672.9,1047.5 1816.7,798.5 1750.6,684.1 1754.1,682.1 1821.3,798.5 1820.7,799.5 
													"/>
					</g>
					<g>
						<polygon class="st2" points="1665.3,1030.3 1661.8,1028.3 1794.5,798.5 1739.5,703.4 1743,701.4 1799.1,798.5 1798.5,799.5 
													"/>
					</g>
					<g>
						<polygon class="st2" points="1654.2,1011.1 1650.7,1009.1 1772.3,798.5 1728.4,722.6 1731.9,720.6 1776.9,798.5 1776.3,799.5 
													"/>
					</g>
					<g>
						<polygon class="st2" points="1643.1,991.9 1639.6,989.9 1750.1,798.5 1717.3,741.8 1720.8,739.8 1754.7,798.5 						"/>
					</g>
					<g>
						<polygon class="st2" points="1632,972.6 1628.5,970.6 1727.8,798.5 1706.2,761.1 1709.7,759.1 1732.5,798.5 						"/>
					</g>
					<g>
						<polygon class="st2" points="1620.8,953.4 1617.4,951.4 1705.6,798.5 1695.1,780.3 1698.6,778.3 1710.2,798.5 						"/>
					</g>
					<g>
						
							<rect x="1569.2" y="863.9" transform="matrix(0.5 -0.866 0.866 0.5 73.5571 1859.1091)" class="st2" width="155.4" height="4"/>
					</g>
					<g>
						<polygon class="st2" points="1996.6,800.5 1840,800.5 1684,530.2 1687.5,528.2 1842.3,796.5 1996.6,796.5 						"/>
					</g>
					<g>
						<polygon class="st2" points="1985.5,781.2 1851.1,781.2 1706.2,530.2 1709.7,528.2 1853.4,777.2 1985.5,777.2 						"/>
					</g>
					<g>
						<polygon class="st2" points="1974.4,762 1862.2,762 1728.4,530.2 1731.9,528.2 1864.5,758 1974.4,758 						"/>
					</g>
					<g>
						<polygon class="st2" points="1963.3,742.8 1873.3,742.8 1750.6,530.2 1754.1,528.2 1875.7,738.8 1963.3,738.8 						"/>
					</g>
					<g>
						<polygon class="st2" points="1884.4,723.5 1772.8,530.2 1776.3,528.2 1886.8,719.5 1952.2,719.5 1952.2,723.5 						"/>
					</g>
					<g>
						<polygon class="st2" points="1941.1,704.3 1895.6,704.3 1795,530.2 1798.5,528.2 1897.9,700.3 1941.1,700.3 						"/>
					</g>
					<g>
						<polygon class="st2" points="1930,685.1 1906.7,685.1 1817.3,530.2 1820.7,528.2 1909,681.1 1930,681.1 						"/>
					</g>
					<g>
						
							<rect x="1878" y="518.8" transform="matrix(0.866 -0.5 0.5 0.866 -46.3957 1019.8644)" class="st2" width="4" height="155.4"/>
					</g>
					<g>
						<polygon class="st2" points="1606.3,934.1 1528,798.5 1528.6,797.5 1684,528.2 1687.5,530.2 1532.6,798.5 1609.7,932.1 						
							"/>
					</g>
					<g>
						<polygon class="st2" points="1617.4,914.9 1550.2,798.5 1550.8,797.5 1695.1,547.4 1698.6,549.4 1554.8,798.5 1620.8,912.9 
													"/>
					</g>
					<g>
						<polygon class="st2" points="1628.5,895.6 1572.4,798.5 1573,797.5 1706.2,566.7 1709.7,568.7 1577,798.5 1632,893.6 						
							"/>
					</g>
					<g>
						<polygon class="st2" points="1639.6,876.4 1594.6,798.5 1595.2,797.5 1717.3,585.9 1720.8,587.9 1599.2,798.5 1643.1,874.4 
													"/>
					</g>
					<g>
						<polygon class="st2" points="1650.7,857.2 1616.8,798.5 1728.4,605.1 1731.9,607.1 1621.4,798.5 1654.2,855.2 						"/>
					</g>
					<g>
						<polygon class="st2" points="1661.8,837.9 1639,798.5 1739.5,624.4 1743,626.4 1643.6,798.5 1665.3,835.9 						"/>
					</g>
					<g>
						<polygon class="st2" points="1672.9,818.7 1661.2,798.5 1750.6,643.6 1754.1,645.6 1665.8,798.5 1676.4,816.7 						"/>
					</g>
					<g>
						
							<rect x="1646.9" y="729.1" transform="matrix(0.5 -0.866 0.866 0.5 229.0849 1859.0785)" class="st2" width="155.4" height="4"/>
					</g>
					<g>
						<polygon class="st2" points="1765.2,934.1 1761.7,932.1 1840,796.5 2152.1,796.5 2152.1,800.5 1842.3,800.5 						"/>
					</g>
				</g>
				<g class="st3">
					<g>
						<polygon class="st2" points="1530.9,1070 1374.3,1070 1218.3,799.7 1221.7,797.7 1376.6,1066 1530.9,1066 						"/>
					</g>
					<g>
						<polygon class="st2" points="1519.8,1050.7 1385.4,1050.7 1240.5,799.7 1243.9,797.7 1387.7,1046.7 1519.8,1046.7 						"/>
					</g>
					<g>
						<polygon class="st2" points="1508.7,1031.5 1396.5,1031.5 1262.7,799.7 1266.1,797.7 1398.8,1027.5 1508.7,1027.5 						"/>
					</g>
					<g>
						<polygon class="st2" points="1497.6,1012.3 1407.6,1012.3 1284.9,799.7 1288.3,797.7 1409.9,1008.3 1497.6,1008.3 						"/>
					</g>
					<g>
						<polygon class="st2" points="1418.7,993 1307.1,799.7 1310.5,797.7 1421,989 1486.5,989 1486.5,993 						"/>
					</g>
					<g>
						<polygon class="st2" points="1475.4,973.8 1429.8,973.8 1329.3,799.7 1332.8,797.7 1432.1,969.8 1475.4,969.8 						"/>
					</g>
					<g>
						<polygon class="st2" points="1464.3,954.6 1440.9,954.6 1351.5,799.7 1355,797.7 1443.2,950.6 1464.3,950.6 						"/>
					</g>
					<g>
						
							<rect x="1412.3" y="788.3" transform="matrix(0.866 -0.5 0.5 0.866 -243.526 823.1061)" class="st2" width="4" height="155.4"/>
					</g>
					<g>
						<polygon class="st2" points="1140.5,1203.6 1062.2,1068 1062.8,1067 1218.3,797.7 1221.7,799.7 1066.8,1068 1144,1201.6 
													"/>
					</g>
					<g>
						<polygon class="st2" points="1684.6,1069 1529.7,800.7 1375.4,800.7 1375.4,796.7 1532,796.7 1688.1,1067 						"/>
					</g>
				</g>
				<g class="st3">
					<g>
						<polygon class="st2" points="756,1068.8 752.5,1066.8 907.4,798.5 830.2,664.9 833.7,662.9 912,798.5 911.4,799.5 						"/>
					</g>
					<g>
						<polygon class="st2" points="1065.1,800.5 908.5,800.5 752.5,530.2 756,528.2 910.8,796.5 1065.1,796.5 						"/>
					</g>
					<g>
						<polygon class="st2" points="1054,781.2 919.6,781.2 774.7,530.2 778.2,528.2 921.9,777.2 1054,777.2 						"/>
					</g>
					<g>
						<polygon class="st2" points="1042.9,762 930.7,762 796.9,530.2 800.4,528.2 933,758 1042.9,758 						"/>
					</g>
					<g>
						<polygon class="st2" points="1031.8,742.8 941.8,742.8 819.1,530.2 822.6,528.2 944.2,738.8 1031.8,738.8 						"/>
					</g>
					<g>
						<polygon class="st2" points="952.9,723.5 841.3,530.2 844.8,528.2 955.3,719.5 1020.7,719.5 1020.7,723.5 						"/>
					</g>
					<g>
						<polygon class="st2" points="1009.6,704.3 964.1,704.3 863.5,530.2 867,528.2 966.4,700.3 1009.6,700.3 						"/>
					</g>
					<g>
						<polygon class="st2" points="998.5,685.1 975.2,685.1 885.8,530.2 889.2,528.2 977.5,681.1 998.5,681.1 						"/>
					</g>
					<g>
						
							<rect x="946.5" y="518.8" transform="matrix(0.866 -0.5 0.5 0.866 -171.1747 554.1462)" class="st2" width="4" height="155.4"/>
					</g>
					<g>
						<polygon class="st2" points="1218.9,799.5 1064,531.2 909.7,531.2 909.7,527.2 1066.3,527.2 1222.3,797.5 						"/>
					</g>
					<g>
						<polygon class="st2" points="1196.6,799.5 1052.9,550.4 920.8,550.4 920.8,546.4 1055.2,546.4 1200.1,797.5 						"/>
					</g>
					<g>
						<polygon class="st2" points="1174.4,799.5 1041.8,569.7 931.9,569.7 931.9,565.7 1044.1,565.7 1177.9,797.5 						"/>
					</g>
					<g>
						<polygon class="st2" points="1152.2,799.5 1030.7,588.9 943,588.9 943,584.9 1033,584.9 1155.7,797.5 						"/>
					</g>
					<g>
						<polygon class="st2" points="1130,799.5 1019.6,608.1 954.1,608.1 954.1,604.1 1021.9,604.1 1133.5,797.5 						"/>
					</g>
					<g>
						<polygon class="st2" points="1107.8,799.5 1008.5,627.4 965.2,627.4 965.2,623.4 1010.8,623.4 1111.3,797.5 						"/>
					</g>
					<g>
						<polygon class="st2" points="1085.6,799.5 997.4,646.6 976.3,646.6 976.3,642.6 999.7,642.6 1089.1,797.5 						"/>
					</g>
					<g>
						
							<rect x="1024.3" y="653.4" transform="matrix(0.866 -0.5 0.5 0.866 -228.0816 611.0436)" class="st2" width="4" height="155.4"/>
					</g>
					<g>
						<polygon class="st2" points="833.7,934.1 830.2,932.1 908.5,796.5 1220.6,796.5 1220.6,800.5 910.8,800.5 						"/>
					</g>
				</g>
				<g class="st3">
					<g>
						<polygon class="st2" points="1687.5,529.8 1684,527.8 1838.9,259.5 1761.7,125.9 1765.2,123.9 1843.5,259.5 1842.9,260.5 
													"/>
					</g>
					<g>
						<polygon class="st2" points="1676.4,510.5 1672.9,508.5 1816.7,259.5 1750.6,145.1 1754.1,143.1 1821.3,259.5 1820.7,260.5 
													"/>
					</g>
					<g>
						<polygon class="st2" points="1665.3,491.3 1661.8,489.3 1794.5,259.5 1739.5,164.4 1743,162.4 1799.1,259.5 1798.5,260.5 
													"/>
					</g>
					<g>
						<polygon class="st2" points="1654.2,472.1 1650.7,470.1 1772.3,259.5 1728.4,183.6 1731.9,181.6 1776.9,259.5 1776.3,260.5 
													"/>
					</g>
					<g>
						<polygon class="st2" points="1643.1,452.9 1639.6,450.9 1750.1,259.5 1717.3,202.8 1720.8,200.8 1754.7,259.5 						"/>
					</g>
					<g>
						<polygon class="st2" points="1632,433.6 1628.5,431.6 1727.8,259.5 1706.2,222.1 1709.7,220.1 1732.5,259.5 						"/>
					</g>
					<g>
						<polygon class="st2" points="1620.8,414.4 1617.4,412.4 1705.6,259.5 1695.1,241.3 1698.6,239.3 1710.2,259.5 						"/>
					</g>
					<g>
						
							<rect x="1569.2" y="324.9" transform="matrix(0.5 -0.866 0.866 0.5 540.3369 1589.6228)" class="st2" width="155.4" height="4"/>
					</g>
					<g>
						<polygon class="st2" points="1997.8,530.8 1685.7,530.8 1685.7,526.8 1995.5,526.8 2072.6,393.2 2076.1,395.2 						"/>
					</g>
					<g>
						<polygon class="st2" points="1986.7,511.5 1696.8,511.5 1696.8,507.5 1984.4,507.5 2050.4,393.2 2053.9,395.2 						"/>
					</g>
					<g>
						<polygon class="st2" points="1975.6,492.3 1707.9,492.3 1707.9,488.3 1973.3,488.3 2028.2,393.2 2031.7,395.2 						"/>
					</g>
					<g>
						<polygon class="st2" points="1964.5,473.1 1719,473.1 1719,469.1 1962.2,469.1 2006,393.2 2009.5,395.2 						"/>
					</g>
					<g>
						<polygon class="st2" points="1953.4,453.9 1730.2,453.9 1730.2,449.9 1951.1,449.9 1983.8,393.2 1987.3,395.2 						"/>
					</g>
					<g>
						<polygon class="st2" points="1942.3,434.6 1741.3,434.6 1741.3,430.6 1940,430.6 1961.6,393.2 1965.1,395.2 						"/>
					</g>
					<g>
						<polygon class="st2" points="1931.2,415.4 1752.4,415.4 1752.4,411.4 1928.9,411.4 1939.4,393.2 1942.8,395.2 						"/>
					</g>
					<g>
						<rect x="1763.5" y="392.2" class="st2" width="155.4" height="4"/>
					</g>
					<g>
						<polygon class="st2" points="1996.6,261.5 1840,261.5 1684,-8.8 1687.5,-10.8 1842.3,257.5 1996.6,257.5 						"/>
					</g>
					<g>
						<polygon class="st2" points="1606.3,395.1 1528,259.5 1528.6,258.5 1684,-10.8 1687.5,-8.8 1532.6,259.5 1609.7,393.1 						
							"/>
					</g>
					<g>
						<polygon class="st2" points="1617.4,375.9 1550.2,259.5 1550.8,258.5 1695.1,8.4 1698.6,10.4 1554.8,259.5 1620.8,373.9 
													"/>
					</g>
					<g>
						<polygon class="st2" points="1628.5,356.6 1572.4,259.5 1573,258.5 1706.2,27.7 1709.7,29.7 1577,259.5 1632,354.6 						"/>
					</g>
					<g>
						<polygon class="st2" points="1639.6,337.4 1594.6,259.5 1595.2,258.5 1717.3,46.9 1720.8,48.9 1599.2,259.5 1643.1,335.4 
													"/>
					</g>
					<g>
						<polygon class="st2" points="1650.7,318.2 1616.8,259.5 1728.4,66.1 1731.9,68.1 1621.4,259.5 1654.2,316.2 						"/>
					</g>
					<g>
						<polygon class="st2" points="1661.8,298.9 1639,259.5 1739.5,85.4 1743,87.4 1643.6,259.5 1665.3,296.9 						"/>
					</g>
					<g>
						<polygon class="st2" points="1672.9,279.7 1661.2,259.5 1750.6,104.6 1754.1,106.6 1665.8,259.5 1676.4,277.7 						"/>
					</g>
					<g>
						
							<rect x="1646.9" y="190.1" transform="matrix(0.5 -0.866 0.866 0.5 695.8647 1589.5922)" class="st2" width="155.4" height="4"/>
					</g>
					<g>
						<polygon class="st2" points="1765.2,395.1 1761.7,393.1 1840,257.5 2152.1,257.5 2152.1,261.5 1842.3,261.5 						"/>
					</g>
					<g>
						<polygon class="st2" points="1787.4,395.1 1783.9,393.1 1851.1,276.7 2141,276.7 2141,280.7 1853.4,280.7 						"/>
					</g>
					<g>
						<polygon class="st2" points="1809.6,395.1 1806.1,393.1 1862.2,295.9 2129.9,295.9 2129.9,299.9 1864.5,299.9 						"/>
					</g>
					<g>
						<polygon class="st2" points="1831.8,395.1 1828.3,393.1 1873.3,315.2 2118.8,315.2 2118.8,319.2 1875.6,319.2 						"/>
					</g>
				</g>
				<g class="st3">
					<g>
						<polygon class="st2" points="1221.7,799.3 1218.3,797.3 1373.1,529 1296,395.4 1299.4,393.4 1377.7,529 1377.2,530 						"/>
					</g>
					<g>
						<polygon class="st2" points="1210.6,780 1207.2,778 1350.9,529 1284.9,414.6 1288.3,412.6 1355.5,529 1355,530 						"/>
					</g>
					<g>
						<polygon class="st2" points="1199.5,760.8 1196,758.8 1328.7,529 1273.8,433.9 1277.2,431.9 1333.3,529 1332.8,530 						"/>
					</g>
					<g>
						<polygon class="st2" points="1188.4,741.6 1184.9,739.6 1306.5,529 1262.7,453.1 1266.1,451.1 1311.1,529 1310.6,530 						
							"/>
					</g>
					<g>
						<polygon class="st2" points="1177.3,722.4 1173.8,720.4 1284.3,529 1251.6,472.3 1255,470.3 1288.9,529 						"/>
					</g>
					<g>
						<polygon class="st2" points="1166.2,703.1 1162.7,701.1 1262.1,529 1240.5,491.6 1243.9,489.6 1266.7,529 						"/>
					</g>
					<g>
						<polygon class="st2" points="1155.1,683.9 1151.6,681.9 1239.9,529 1229.4,510.8 1232.8,508.8 1244.5,529 						"/>
					</g>
					<g>
						
							<rect x="1103.4" y="594.4" transform="matrix(0.5 -0.866 0.866 0.5 74.0839 1321.0215)" class="st2" width="155.4" height="4"/>
					</g>
					<g>
						<polygon class="st2" points="1532,800.3 1220,800.3 1220,796.3 1529.7,796.3 1606.9,662.7 1610.3,664.7 						"/>
					</g>
					<g>
						<polygon class="st2" points="1520.9,781 1231.1,781 1231.1,777 1518.6,777 1584.7,662.7 1588.1,664.7 						"/>
					</g>
					<g>
						<polygon class="st2" points="1509.8,761.8 1242.2,761.8 1242.2,757.8 1507.5,757.8 1562.5,662.7 1565.9,664.7 						"/>
					</g>
					<g>
						<polygon class="st2" points="1498.7,742.6 1253.3,742.6 1253.3,738.6 1496.4,738.6 1540.3,662.7 1543.7,664.7 						"/>
					</g>
					<g>
						<polygon class="st2" points="1487.6,723.4 1264.4,723.4 1264.4,719.4 1485.3,719.4 1518,662.7 1521.5,664.7 						"/>
					</g>
					<g>
						<polygon class="st2" points="1476.5,704.1 1275.5,704.1 1275.5,700.1 1474.2,700.1 1495.8,662.7 1499.3,664.7 						"/>
					</g>
					<g>
						<polygon class="st2" points="1465.4,684.9 1286.6,684.9 1286.6,680.9 1463.1,680.9 1473.6,662.7 1477.1,664.7 						"/>
					</g>
					<g>
						<rect x="1297.7" y="661.7" class="st2" width="155.4" height="4"/>
					</g>
					<g>
						<polygon class="st2" points="1530.9,531 1374.3,531 1218.3,260.7 1221.7,258.7 1376.6,527 1530.9,527 						"/>
					</g>
					<g>
						<polygon class="st2" points="1519.8,511.7 1385.4,511.7 1240.5,260.7 1243.9,258.7 1387.7,507.7 1519.8,507.7 						"/>
					</g>
					<g>
						<polygon class="st2" points="1508.7,492.5 1396.5,492.5 1262.7,260.7 1266.1,258.7 1398.8,488.5 1508.7,488.5 						"/>
					</g>
					<g>
						<polygon class="st2" points="1497.6,473.3 1407.6,473.3 1284.9,260.7 1288.3,258.7 1409.9,469.3 1497.6,469.3 						"/>
					</g>
					<g>
						<polygon class="st2" points="1418.7,454 1307.1,260.7 1310.5,258.7 1421,450 1486.5,450 1486.5,454 						"/>
					</g>
					<g>
						<polygon class="st2" points="1475.4,434.8 1429.8,434.8 1329.3,260.7 1332.8,258.7 1432.1,430.8 1475.4,430.8 						"/>
					</g>
					<g>
						<polygon class="st2" points="1464.3,415.6 1440.9,415.6 1351.5,260.7 1355,258.7 1443.2,411.6 1464.3,411.6 						"/>
					</g>
					<g>
						
							<rect x="1412.3" y="249.3" transform="matrix(0.866 -0.5 0.5 0.866 25.9556 750.9044)" class="st2" width="4" height="155.4"/>
					</g>
					<g>
						<polygon class="st2" points="1140.5,664.6 1062.2,529 1062.8,528 1218.3,258.7 1221.7,260.7 1066.8,529 1144,662.6 						"/>
					</g>
					<g>
						<polygon class="st2" points="1151.6,645.4 1084.4,529 1085,528 1229.4,277.9 1232.8,279.9 1089.1,529 1155.1,643.4 						"/>
					</g>
					<g>
						<polygon class="st2" points="1162.7,626.1 1106.6,529 1107.2,528 1240.5,297.2 1243.9,299.2 1111.3,529 1166.2,624.1 						
							"/>
					</g>
					<g>
						<polygon class="st2" points="1173.8,606.9 1128.8,529 1129.4,528 1251.6,316.4 1255,318.4 1133.5,529 1177.3,604.9 						"/>
					</g>
					<g>
						<polygon class="st2" points="1184.9,587.7 1151,529 1262.7,335.6 1266.1,337.6 1155.7,529 1188.4,585.7 						"/>
					</g>
					<g>
						<polygon class="st2" points="1196,568.4 1173.3,529 1273.8,354.9 1277.2,356.9 1177.9,529 1199.5,566.4 						"/>
					</g>
					<g>
						<polygon class="st2" points="1207.2,549.2 1195.5,529 1284.9,374.1 1288.3,376.1 1200.1,529 1210.6,547.2 						"/>
					</g>
					<g>
						
							<rect x="1181.1" y="459.6" transform="matrix(0.5 -0.866 0.866 0.5 229.6117 1320.9908)" class="st2" width="155.4" height="4"/>
					</g>
					<g>
						<polygon class="st2" points="1684.6,530 1529.7,261.7 1375.4,261.7 1375.4,257.7 1532,257.7 1688.1,528 						"/>
					</g>
					<g>
						<polygon class="st2" points="1662.4,530 1518.6,280.9 1386.5,280.9 1386.5,276.9 1520.9,276.9 1665.9,528 						"/>
					</g>
					<g>
						<polygon class="st2" points="1640.2,530 1507.5,300.2 1397.6,300.2 1397.6,296.2 1509.8,296.2 1643.7,528 						"/>
					</g>
					<g>
						<polygon class="st2" points="1618,530 1496.4,319.4 1408.7,319.4 1408.7,315.4 1498.7,315.4 1621.4,528 						"/>
					</g>
					<g>
						<polygon class="st2" points="1595.8,530 1485.3,338.6 1419.8,338.6 1419.8,334.6 1487.6,334.6 1599.2,528 						"/>
					</g>
					<g>
						<polygon class="st2" points="1573.6,530 1474.2,357.9 1431,357.9 1431,353.9 1476.5,353.9 1577,528 						"/>
					</g>
					<g>
						<polygon class="st2" points="1551.4,530 1463.1,377.1 1442.1,377.1 1442.1,373.1 1465.4,373.1 1554.8,528 						"/>
					</g>
					<g>
						<rect x="1490" y="383.9" transform="matrix(0.866 -0.5 0.5 0.866 -30.9521 807.8014)" class="st2" width="4" height="155.4"/>
					</g>
					<g>
						<polygon class="st2" points="1299.4,664.6 1296,662.6 1374.3,527 1686.3,527 1686.3,531 1376.6,531 						"/>
					</g>
					<g>
						<polygon class="st2" points="1321.6,664.6 1318.2,662.6 1385.4,546.2 1675.2,546.2 1675.2,550.2 1387.7,550.2 						"/>
					</g>
					<g>
						<polygon class="st2" points="1343.9,664.6 1340.4,662.6 1396.5,565.4 1664.1,565.4 1664.1,569.4 1398.8,569.4 						"/>
					</g>
					<g>
						<polygon class="st2" points="1366.1,664.6 1362.6,662.6 1407.6,584.7 1653,584.7 1653,588.7 1409.9,588.7 						"/>
					</g>
					<g>
						<polygon class="st2" points="1388.3,664.6 1384.8,662.6 1418.7,603.9 1641.9,603.9 1641.9,607.9 1421,607.9 						"/>
					</g>
					<g>
						<polygon class="st2" points="1410.5,664.6 1407,662.6 1429.8,623.1 1630.8,623.1 1630.8,627.1 1432.1,627.1 						"/>
					</g>
					<g>
						<polygon class="st2" points="1432.7,664.6 1429.2,662.6 1440.9,642.4 1619.7,642.4 1619.7,646.4 1443.2,646.4 						"/>
					</g>
					<g>
						<rect x="1453.2" y="661.6" class="st2" width="155.4" height="4"/>
					</g>
				</g>
				<g class="st3">
					<g>
						<polygon class="st2" points="756,529.8 752.5,527.8 907.4,259.5 830.2,125.9 833.7,123.9 912,259.5 911.4,260.5 						"/>
					</g>
					<g>
						<polygon class="st2" points="1066.3,530.8 754.2,530.8 754.2,526.8 1064,526.8 1141.1,393.2 1144.6,395.2 						"/>
					</g>
					<g>
						<polygon class="st2" points="1055.2,511.5 765.3,511.5 765.3,507.5 1052.9,507.5 1118.9,393.2 1122.4,395.2 						"/>
					</g>
					<g>
						<polygon class="st2" points="1044.1,492.3 776.4,492.3 776.4,488.3 1041.8,488.3 1096.7,393.2 1100.2,395.2 						"/>
					</g>
					<g>
						<polygon class="st2" points="1033,473.1 787.5,473.1 787.5,469.1 1030.7,469.1 1074.5,393.2 1078,395.2 						"/>
					</g>
					<g>
						<polygon class="st2" points="1021.9,453.9 798.7,453.9 798.7,449.9 1019.6,449.9 1052.3,393.2 1055.8,395.2 						"/>
					</g>
					<g>
						<polygon class="st2" points="1010.8,434.6 809.8,434.6 809.8,430.6 1008.5,430.6 1030.1,393.2 1033.6,395.2 						"/>
					</g>
					<g>
						<polygon class="st2" points="999.7,415.4 820.9,415.4 820.9,411.4 997.4,411.4 1007.9,393.2 1011.3,395.2 						"/>
					</g>
					<g>
						<rect x="832" y="392.2" class="st2" width="155.4" height="4"/>
					</g>
					<g>
						<polygon class="st2" points="1065.1,261.5 908.5,261.5 752.5,-8.8 756,-10.8 910.8,257.5 1065.1,257.5 						"/>
					</g>
					<g>
						<polygon class="st2" points="1218.9,260.5 1064,-7.8 909.7,-7.8 909.7,-11.8 1066.3,-11.8 1222.3,258.5 						"/>
					</g>
					<g>
						<polygon class="st2" points="1196.6,260.5 1052.9,11.4 920.8,11.4 920.8,7.4 1055.2,7.4 1200.1,258.5 						"/>
					</g>
					<g>
						<polygon class="st2" points="1174.4,260.5 1041.8,30.7 931.9,30.7 931.9,26.7 1044.1,26.7 1177.9,258.5 						"/>
					</g>
					<g>
						<polygon class="st2" points="1152.2,260.5 1030.7,49.9 943,49.9 943,45.9 1033,45.9 1155.7,258.5 						"/>
					</g>
					<g>
						<polygon class="st2" points="1130,260.5 1019.6,69.1 954.1,69.1 954.1,65.1 1021.9,65.1 1133.5,258.5 						"/>
					</g>
					<g>
						<polygon class="st2" points="1107.8,260.5 1008.5,88.4 965.2,88.4 965.2,84.4 1010.8,84.4 1111.3,258.5 						"/>
					</g>
					<g>
						<polygon class="st2" points="1085.6,260.5 997.4,107.6 976.3,107.6 976.3,103.6 999.7,103.6 1089.1,258.5 						"/>
					</g>
					<g>
						
							<rect x="1024.3" y="114.4" transform="matrix(0.866 -0.5 0.5 0.866 41.3992 538.8423)" class="st2" width="4" height="155.4"/>
					</g>
					<g>
						<polygon class="st2" points="833.7,395.1 830.2,393.1 908.5,257.5 1220.6,257.5 1220.6,261.5 910.8,261.5 						"/>
					</g>
					<g>
						<polygon class="st2" points="855.9,395.1 852.4,393.1 919.6,276.7 1209.5,276.7 1209.5,280.7 921.9,280.7 						"/>
					</g>
					<g>
						<polygon class="st2" points="878.1,395.1 874.6,393.1 930.7,295.9 1198.4,295.9 1198.4,299.9 933,299.9 						"/>
					</g>
					<g>
						<polygon class="st2" points="900.3,395.1 896.8,393.1 941.8,315.2 1187.3,315.2 1187.3,319.2 944.1,319.2 						"/>
					</g>
					<g>
						<polygon class="st2" points="922.5,395.1 919.1,393.1 952.9,334.4 1176.2,334.4 1176.2,338.4 955.2,338.4 						"/>
					</g>
					<g>
						<polygon class="st2" points="944.7,395.1 941.3,393.1 964,353.6 1165.1,353.6 1165.1,357.6 966.4,357.6 						"/>
					</g>
					<g>
						<polygon class="st2" points="966.9,395.1 963.5,393.1 975.2,372.9 1154,372.9 1154,376.9 977.5,376.9 						"/>
					</g>
					<g>
						<rect x="987.4" y="392.1" class="st2" width="155.4" height="4"/>
					</g>
				</g>
				<g class="st3">
					<g>
						<polygon class="st2" points="1221.7,260.3 1218.3,258.3 1373.1,-10 1296,-143.6 1299.4,-145.6 1377.7,-10 1377.2,-9 						"/>
					</g>
					<g>
						<polygon class="st2" points="1532,261.3 1220,261.3 1220,257.3 1529.7,257.3 1606.9,123.7 1610.3,125.7 						"/>
					</g>
				</g>
			</g>
		</g>
		<g class="st0">
			<g>
				<defs>
					<rect id="SVGID_7_" x="-22.1" y="-279.5" width="931.5" height="539"/>
				</defs>
				<clipPath id="SVGID_8_">
					<use xlink:href="#SVGID_7_"  style="overflow:visible;"/>
				</clipPath>
				<g class="st4">
					<g>
						<polygon class="st2" points="756,529.8 752.5,527.8 907.4,259.5 830.2,125.9 833.7,123.9 912,259.5 911.4,260.5 						"/>
					</g>
					<g>
						<polygon class="st2" points="744.9,510.5 741.4,508.5 885.2,259.5 819.1,145.1 822.6,143.1 889.8,259.5 889.2,260.5 						"/>
					</g>
					<g>
						<polygon class="st2" points="733.8,491.3 730.3,489.3 863,259.5 808,164.4 811.5,162.4 867.6,259.5 867,260.5 						"/>
					</g>
					<g>
						<polygon class="st2" points="722.7,472.1 719.2,470.1 840.8,259.5 796.9,183.6 800.4,181.6 845.4,259.5 844.8,260.5 						"/>
					</g>
					<g>
						<polygon class="st2" points="711.6,452.9 708.1,450.9 818.6,259.5 785.8,202.8 789.3,200.8 823.2,259.5 						"/>
					</g>
					<g>
						<polygon class="st2" points="700.5,433.6 697,431.6 796.3,259.5 774.7,222.1 778.2,220.1 801,259.5 						"/>
					</g>
					<g>
						<polygon class="st2" points="689.3,414.4 685.9,412.4 774.1,259.5 763.6,241.3 767.1,239.3 778.7,259.5 						"/>
					</g>
					<g>
						<rect x="637.7" y="324.9" transform="matrix(0.5 -0.866 0.866 0.5 74.6106 782.9338)" class="st2" width="155.4" height="4"/>
					</g>
					<g>
						<polygon class="st2" points="1065.1,261.5 908.5,261.5 752.5,-8.8 756,-10.8 910.8,257.5 1065.1,257.5 						"/>
					</g>
					<g>
						<polygon class="st2" points="1054,242.2 919.6,242.2 774.7,-8.8 778.2,-10.8 921.9,238.2 1054,238.2 						"/>
					</g>
					<g>
						<polygon class="st2" points="1042.9,223 930.7,223 796.9,-8.8 800.4,-10.8 933,219 1042.9,219 						"/>
					</g>
					<g>
						<polygon class="st2" points="1031.8,203.8 941.8,203.8 819.1,-8.8 822.6,-10.8 944.2,199.8 1031.8,199.8 						"/>
					</g>
					<g>
						<polygon class="st2" points="952.9,184.5 841.3,-8.8 844.8,-10.8 955.3,180.5 1020.7,180.5 1020.7,184.5 						"/>
					</g>
					<g>
						<polygon class="st2" points="1009.6,165.3 964.1,165.3 863.5,-8.8 867,-10.8 966.4,161.3 1009.6,161.3 						"/>
					</g>
					<g>
						<polygon class="st2" points="998.5,146.1 975.2,146.1 885.8,-8.8 889.2,-10.8 977.5,142.1 998.5,142.1 						"/>
					</g>
					<g>
						<rect x="946.5" y="-20.2" transform="matrix(0.866 -0.5 0.5 0.866 98.3069 481.9445)" class="st2" width="4" height="155.4"/>
					</g>
					<g>
						<polygon class="st2" points="674.8,395.1 596.5,259.5 752.5,-10.8 756,-8.8 601.1,259.5 678.2,393.1 						"/>
					</g>
					<g>
						<polygon class="st2" points="685.9,375.9 618.7,259.5 619.3,258.5 763.6,8.4 767.1,10.4 623.3,259.5 689.3,373.9 						"/>
					</g>
					<g>
						<polygon class="st2" points="697,356.6 640.9,259.5 641.5,258.5 774.7,27.7 778.2,29.7 645.5,259.5 700.5,354.6 						"/>
					</g>
					<g>
						<polygon class="st2" points="708.1,337.4 663.1,259.5 663.7,258.5 785.8,46.9 789.3,48.9 667.7,259.5 711.6,335.4 						"/>
					</g>
					<g>
						<polygon class="st2" points="719.2,318.2 685.3,259.5 796.9,66.1 800.4,68.1 689.9,259.5 722.7,316.2 						"/>
					</g>
					<g>
						<polygon class="st2" points="730.3,298.9 707.5,259.5 808,85.4 811.5,87.4 712.1,259.5 733.8,296.9 						"/>
					</g>
					<g>
						<polygon class="st2" points="741.4,279.7 729.7,259.5 819.1,104.6 822.6,106.6 734.3,259.5 744.9,277.7 						"/>
					</g>
					<g>
						
							<rect x="715.4" y="190.1" transform="matrix(0.5 -0.866 0.866 0.5 230.1384 782.9031)" class="st2" width="155.4" height="4"/>
					</g>
					<g>
						<polygon class="st2" points="833.7,395.1 830.2,393.1 908.5,257.5 1220.6,257.5 1220.6,261.5 910.8,261.5 						"/>
					</g>
				</g>
				<g class="st4">
					<g>
						<polygon class="st2" points="599.4,531 442.8,531 286.8,260.7 290.2,258.7 445.1,527 599.4,527 						"/>
					</g>
					<g>
						<polygon class="st2" points="588.3,511.7 453.9,511.7 309,260.7 312.4,258.7 456.2,507.7 588.3,507.7 						"/>
					</g>
					<g>
						<polygon class="st2" points="577.2,492.5 465,492.5 331.2,260.7 334.6,258.7 467.3,488.5 577.2,488.5 						"/>
					</g>
					<g>
						<polygon class="st2" points="566.1,473.3 476.1,473.3 353.4,260.7 356.8,258.7 478.4,469.3 566.1,469.3 						"/>
					</g>
					<g>
						<polygon class="st2" points="487.2,454 375.6,260.7 379,258.7 489.5,450 555,450 555,454 						"/>
					</g>
					<g>
						<polygon class="st2" points="543.9,434.8 498.3,434.8 397.8,260.7 401.3,258.7 500.6,430.8 543.9,430.8 						"/>
					</g>
					<g>
						<polygon class="st2" points="532.8,415.6 509.4,415.6 420,260.7 423.5,258.7 511.7,411.6 532.8,411.6 						"/>
					</g>
					<g>
						
							<rect x="480.8" y="249.3" transform="matrix(0.866 -0.5 0.5 0.866 -98.8234 285.1862)" class="st2" width="4" height="155.4"/>
					</g>
					<g>
						<polygon class="st2" points="209,664.6 130.7,529 286.8,258.7 290.2,260.7 135.3,529 212.5,662.6 						"/>
					</g>
					<g>
						<polygon class="st2" points="753.1,530 598.2,261.7 443.9,261.7 443.9,257.7 600.5,257.7 756.6,528 						"/>
					</g>
				</g>
				<g class="st4">
					<g>
						<polygon class="st2" points="-175.5,529.8 -179,527.8 -24.1,259.5 -101.3,125.9 -97.8,123.9 -19.5,259.5 						"/>
					</g>
					<g>
						<polygon class="st2" points="133.6,261.5 -23,261.5 -179,-8.8 -175.5,-10.8 -20.7,257.5 133.6,257.5 						"/>
					</g>
					<g>
						<polygon class="st2" points="122.5,242.2 -11.9,242.2 -156.8,-8.8 -153.3,-10.8 -9.5,238.2 122.5,238.2 						"/>
					</g>
					<g>
						<polygon class="st2" points="111.4,223 -0.8,223 -134.6,-8.8 -131.1,-10.8 1.5,219 111.4,219 						"/>
					</g>
					<g>
						<polygon class="st2" points="100.3,203.8 10.3,203.8 -112.4,-8.8 -108.9,-10.8 12.7,199.8 100.3,199.8 						"/>
					</g>
					<g>
						<polygon class="st2" points="21.4,184.5 -90.2,-8.8 -86.7,-10.8 23.8,180.5 89.2,180.5 89.2,184.5 						"/>
					</g>
					<g>
						<polygon class="st2" points="78.1,165.3 32.6,165.3 -68,-8.8 -64.5,-10.8 34.9,161.3 78.1,161.3 						"/>
					</g>
					<g>
						<polygon class="st2" points="67,146.1 43.7,146.1 -45.7,-8.8 -42.3,-10.8 46,142.1 67,142.1 						"/>
					</g>
					<g>
						<rect x="15" y="-20.2" transform="matrix(0.866 -0.5 0.5 0.866 -26.4721 16.2263)" class="st2" width="4" height="155.4"/>
					</g>
					<g>
						<polygon class="st2" points="287.4,260.5 132.5,-7.8 -21.8,-7.8 -21.8,-11.8 134.8,-11.8 290.8,258.5 						"/>
					</g>
					<g>
						<polygon class="st2" points="265.1,260.5 121.4,11.4 -10.7,11.4 -10.7,7.4 123.7,7.4 268.6,258.5 						"/>
					</g>
					<g>
						<polygon class="st2" points="242.9,260.5 110.3,30.7 0.4,30.7 0.4,26.7 112.6,26.7 246.4,258.5 						"/>
					</g>
					<g>
						<polygon class="st2" points="220.7,260.5 99.2,49.9 11.5,49.9 11.5,45.9 101.5,45.9 224.2,258.5 						"/>
					</g>
					<g>
						<polygon class="st2" points="198.5,260.5 88.1,69.1 22.6,69.1 22.6,65.1 90.4,65.1 202,258.5 						"/>
					</g>
					<g>
						<polygon class="st2" points="176.3,260.5 77,88.4 33.7,88.4 33.7,84.4 79.3,84.4 179.8,258.5 						"/>
					</g>
					<g>
						<polygon class="st2" points="154.1,260.5 65.9,107.6 44.8,107.6 44.8,103.6 68.2,103.6 157.6,258.5 						"/>
					</g>
					<g>
						<rect x="92.8" y="114.4" transform="matrix(0.866 -0.5 0.5 0.866 -83.379 73.1254)" class="st2" width="4" height="155.4"/>
					</g>
					<g>
						<polygon class="st2" points="-97.8,395.1 -101.3,393.1 -23,257.5 289.1,257.5 289.1,261.5 -20.7,261.5 						"/>
					</g>
				</g>
				<g class="st4">
					<g>
						<polygon class="st2" points="756,-9.2 752.5,-11.2 907.4,-279.5 830.2,-413.1 833.7,-415.1 912,-279.5 911.4,-278.5 						"/>
					</g>
					<g>
						<polygon class="st2" points="744.9,-28.5 741.4,-30.5 885.2,-279.5 819.1,-393.9 822.6,-395.9 889.8,-279.5 889.2,-278.5 
													"/>
					</g>
					<g>
						<polygon class="st2" points="733.8,-47.7 730.3,-49.7 863,-279.5 808,-374.6 811.5,-376.6 867.6,-279.5 867,-278.5 						"/>
					</g>
					<g>
						<polygon class="st2" points="722.7,-66.9 719.2,-68.9 840.8,-279.5 796.9,-355.4 800.4,-357.4 845.4,-279.5 844.8,-278.5 
													"/>
					</g>
					<g>
						<polygon class="st2" points="711.6,-86.1 708.1,-88.1 818.6,-279.5 785.8,-336.2 789.3,-338.2 823.2,-279.5 						"/>
					</g>
					<g>
						<polygon class="st2" points="700.5,-105.4 697,-107.4 796.3,-279.5 774.7,-316.9 778.2,-318.9 801,-279.5 						"/>
					</g>
					<g>
						<polygon class="st2" points="689.3,-124.6 685.9,-126.6 774.1,-279.5 763.6,-297.7 767.1,-299.7 778.7,-279.5 						"/>
					</g>
					<g>
						
							<rect x="637.7" y="-214.1" transform="matrix(0.5 -0.866 0.866 0.5 541.3904 513.4475)" class="st2" width="155.4" height="4"/>
					</g>
					<g>
						<polygon class="st2" points="1066.3,-8.2 754.2,-8.2 754.2,-12.2 1064,-12.2 1141.1,-145.8 1144.6,-143.8 						"/>
					</g>
					<g>
						<polygon class="st2" points="1055.2,-27.5 765.3,-27.5 765.3,-31.5 1052.9,-31.5 1118.9,-145.8 1122.4,-143.8 						"/>
					</g>
					<g>
						<polygon class="st2" points="1044.1,-46.7 776.4,-46.7 776.4,-50.7 1041.8,-50.7 1096.7,-145.8 1100.2,-143.8 						"/>
					</g>
					<g>
						<polygon class="st2" points="1033,-65.9 787.5,-65.9 787.5,-69.9 1030.7,-69.9 1074.5,-145.8 1078,-143.8 						"/>
					</g>
					<g>
						<polygon class="st2" points="1021.9,-85.1 798.7,-85.1 798.7,-89.1 1019.6,-89.1 1052.3,-145.8 1055.8,-143.8 						"/>
					</g>
					<g>
						<polygon class="st2" points="1010.8,-104.4 809.8,-104.4 809.8,-108.4 1008.5,-108.4 1030.1,-145.8 1033.6,-143.8 						"/>
					</g>
					<g>
						<polygon class="st2" points="999.7,-123.6 820.9,-123.6 820.9,-127.6 997.4,-127.6 1007.9,-145.8 1011.3,-143.8 						"/>
					</g>
					<g>
						<rect x="832" y="-146.8" class="st2" width="155.4" height="4"/>
					</g>
					<g>
						<polygon class="st2" points="1065.1,-277.5 908.5,-277.5 752.5,-547.8 756,-549.8 910.8,-281.5 1065.1,-281.5 						"/>
					</g>
					<g>
						<polygon class="st2" points="674.8,-143.9 596.5,-279.5 752.5,-549.8 756,-547.8 601.1,-279.5 678.2,-145.9 						"/>
					</g>
					<g>
						<polygon class="st2" points="685.9,-163.1 618.7,-279.5 619.3,-280.5 763.6,-530.6 767.1,-528.6 623.3,-279.5 689.3,-165.1 
													"/>
					</g>
					<g>
						<polygon class="st2" points="697,-182.4 640.9,-279.5 641.5,-280.5 774.7,-511.3 778.2,-509.3 645.5,-279.5 700.5,-184.4 
													"/>
					</g>
					<g>
						<polygon class="st2" points="708.1,-201.6 663.1,-279.5 663.7,-280.5 785.8,-492.1 789.3,-490.1 667.7,-279.5 711.6,-203.6 
													"/>
					</g>
					<g>
						<polygon class="st2" points="719.2,-220.8 685.3,-279.5 796.9,-472.9 800.4,-470.9 689.9,-279.5 722.7,-222.8 						"/>
					</g>
					<g>
						<polygon class="st2" points="730.3,-240.1 707.5,-279.5 808,-453.6 811.5,-451.6 712.1,-279.5 733.8,-242.1 						"/>
					</g>
					<g>
						<polygon class="st2" points="741.4,-259.3 729.7,-279.5 819.1,-434.4 822.6,-432.4 734.3,-279.5 744.9,-261.3 						"/>
					</g>
					<g>
						
							<rect x="715.4" y="-348.9" transform="matrix(0.5 -0.866 0.866 0.5 696.9182 513.4168)" class="st2" width="155.4" height="4"/>
					</g>
					<g>
						<polygon class="st2" points="833.7,-143.9 830.2,-145.9 908.5,-281.5 1220.6,-281.5 1220.6,-277.5 910.8,-277.5 						"/>
					</g>
					<g>
						<polygon class="st2" points="855.9,-143.9 852.4,-145.9 919.6,-262.3 1209.5,-262.3 1209.5,-258.3 921.9,-258.3 						"/>
					</g>
					<g>
						<polygon class="st2" points="878.1,-143.9 874.6,-145.9 930.7,-243.1 1198.4,-243.1 1198.4,-239.1 933,-239.1 						"/>
					</g>
					<g>
						<polygon class="st2" points="900.3,-143.9 896.8,-145.9 941.8,-223.8 1187.3,-223.8 1187.3,-219.8 944.1,-219.8 						"/>
					</g>
				</g>
				<g class="st4">
					<g>
						<polygon class="st2" points="290.2,260.3 286.8,258.3 441.6,-10 364.5,-143.6 367.9,-145.6 446.2,-10 						"/>
					</g>
					<g>
						<polygon class="st2" points="279.1,241 275.7,239 419.4,-10 353.4,-124.4 356.8,-126.4 424,-10 						"/>
					</g>
					<g>
						<polygon class="st2" points="268,221.8 264.5,219.8 397.2,-10 342.3,-105.1 345.7,-107.1 401.8,-10 						"/>
					</g>
					<g>
						<polygon class="st2" points="256.9,202.6 253.4,200.6 375,-10 331.2,-85.9 334.6,-87.9 379.6,-10 						"/>
					</g>
					<g>
						<polygon class="st2" points="245.8,183.4 242.3,181.4 352.8,-10 320.1,-66.7 323.5,-68.7 357.4,-10 						"/>
					</g>
					<g>
						<polygon class="st2" points="234.7,164.1 231.2,162.1 330.6,-10 309,-47.4 312.4,-49.4 335.2,-10 						"/>
					</g>
					<g>
						<polygon class="st2" points="223.6,144.9 220.1,142.9 308.4,-10 297.9,-28.2 301.3,-30.2 313,-10 						"/>
					</g>
					<g>
						<rect x="171.9" y="55.4" transform="matrix(0.5 -0.866 0.866 0.5 75.1372 244.8461)" class="st2" width="155.4" height="4"/>
					</g>
					<g>
						<polygon class="st2" points="600.5,261.3 288.5,261.3 288.5,257.3 598.2,257.3 675.4,123.7 678.8,125.7 						"/>
					</g>
					<g>
						<polygon class="st2" points="589.4,242 299.6,242 299.6,238 587.1,238 653.2,123.7 656.6,125.7 						"/>
					</g>
					<g>
						<polygon class="st2" points="578.3,222.8 310.7,222.8 310.7,218.8 576,218.8 631,123.7 634.4,125.7 						"/>
					</g>
					<g>
						<polygon class="st2" points="567.2,203.6 321.8,203.6 321.8,199.6 564.9,199.6 608.8,123.7 612.2,125.7 						"/>
					</g>
					<g>
						<polygon class="st2" points="556.1,184.4 332.9,184.4 332.9,180.4 553.8,180.4 586.5,123.7 590,125.7 						"/>
					</g>
					<g>
						<polygon class="st2" points="545,165.1 344,165.1 344,161.1 542.7,161.1 564.3,123.7 567.8,125.7 						"/>
					</g>
					<g>
						<polygon class="st2" points="533.9,145.9 355.1,145.9 355.1,141.9 531.6,141.9 542.1,123.7 545.6,125.7 						"/>
					</g>
					<g>
						<rect x="366.2" y="122.7" class="st2" width="155.4" height="4"/>
					</g>
					<g>
						<polygon class="st2" points="599.4,-8 442.8,-8 286.8,-278.3 290.2,-280.3 445.1,-12 599.4,-12 						"/>
					</g>
					<g>
						<polygon class="st2" points="588.3,-27.3 453.9,-27.3 309,-278.3 312.4,-280.3 456.2,-31.3 588.3,-31.3 						"/>
					</g>
					<g>
						<polygon class="st2" points="577.2,-46.5 465,-46.5 331.2,-278.3 334.6,-280.3 467.3,-50.5 577.2,-50.5 						"/>
					</g>
					<g>
						<polygon class="st2" points="566.1,-65.7 476.1,-65.7 353.4,-278.3 356.8,-280.3 478.4,-69.7 566.1,-69.7 						"/>
					</g>
					<g>
						<polygon class="st2" points="487.2,-85 375.6,-278.3 379,-280.3 489.5,-89 555,-89 555,-85 						"/>
					</g>
					<g>
						<polygon class="st2" points="543.9,-104.2 498.3,-104.2 397.8,-278.3 401.3,-280.3 500.6,-108.2 543.9,-108.2 						"/>
					</g>
					<g>
						<polygon class="st2" points="532.8,-123.4 509.4,-123.4 420,-278.3 423.5,-280.3 511.7,-127.4 532.8,-127.4 						"/>
					</g>
					<g>
						
							<rect x="480.8" y="-289.7" transform="matrix(0.866 -0.5 0.5 0.866 170.6582 212.9846)" class="st2" width="4" height="155.4"/>
					</g>
					<g>
						<polygon class="st2" points="209,125.6 130.7,-10 286.8,-280.3 290.2,-278.3 135.3,-10 212.5,123.6 						"/>
					</g>
					<g>
						<polygon class="st2" points="220.1,106.4 152.9,-10 297.9,-261.1 301.3,-259.1 157.6,-10 223.6,104.4 						"/>
					</g>
					<g>
						<polygon class="st2" points="231.2,87.1 175.1,-10 309,-241.8 312.4,-239.8 179.8,-10 234.7,85.1 						"/>
					</g>
					<g>
						<polygon class="st2" points="242.3,67.9 197.3,-10 320.1,-222.6 323.5,-220.6 202,-10 245.8,65.9 						"/>
					</g>
					<g>
						<polygon class="st2" points="253.4,48.7 219.5,-10 331.2,-203.4 334.6,-201.4 224.2,-10 256.9,46.7 						"/>
					</g>
					<g>
						<polygon class="st2" points="264.5,29.4 241.8,-10 342.3,-184.1 345.7,-182.1 246.4,-10 268,27.4 						"/>
					</g>
					<g>
						<polygon class="st2" points="275.7,10.2 264,-10 353.4,-164.9 356.8,-162.9 268.6,-10 279.1,8.2 						"/>
					</g>
					<g>
						
							<rect x="249.6" y="-79.4" transform="matrix(0.5 -0.866 0.866 0.5 230.6652 244.8157)" class="st2" width="155.4" height="4"/>
					</g>
					<g>
						<polygon class="st2" points="753.1,-9 598.2,-277.3 443.9,-277.3 443.9,-281.3 600.5,-281.3 756.6,-11 						"/>
					</g>
					<g>
						<polygon class="st2" points="730.9,-9 587.1,-258.1 455,-258.1 455,-262.1 589.4,-262.1 734.4,-11 						"/>
					</g>
					<g>
						<polygon class="st2" points="708.7,-9 576,-238.8 466.1,-238.8 466.1,-242.8 578.3,-242.8 712.2,-11 						"/>
					</g>
					<g>
						<polygon class="st2" points="686.5,-9 564.9,-219.6 477.2,-219.6 477.2,-223.6 567.2,-223.6 689.9,-11 						"/>
					</g>
					<g>
						<polygon class="st2" points="664.3,-9 553.8,-200.4 488.3,-200.4 488.3,-204.4 556.1,-204.4 667.7,-11 						"/>
					</g>
					<g>
						<polygon class="st2" points="642.1,-9 542.7,-181.1 499.5,-181.1 499.5,-185.1 545,-185.1 645.5,-11 						"/>
					</g>
					<g>
						<polygon class="st2" points="619.9,-9 531.6,-161.9 510.6,-161.9 510.6,-165.9 533.9,-165.9 623.3,-11 						"/>
					</g>
					<g>
						
							<rect x="558.5" y="-155.1" transform="matrix(0.866 -0.5 0.5 0.866 113.7505 269.8832)" class="st2" width="4" height="155.4"/>
					</g>
					<g>
						<polygon class="st2" points="367.9,125.6 364.5,123.6 442.8,-12 754.8,-12 754.8,-8 445.1,-8 						"/>
					</g>
					<g>
						<polygon class="st2" points="390.1,125.6 386.7,123.6 453.9,7.2 743.7,7.2 743.7,11.2 456.2,11.2 						"/>
					</g>
					<g>
						<polygon class="st2" points="412.4,125.6 408.9,123.6 465,26.4 732.6,26.4 732.6,30.4 467.3,30.4 						"/>
					</g>
					<g>
						<polygon class="st2" points="434.6,125.6 431.1,123.6 476.1,45.7 721.5,45.7 721.5,49.7 478.4,49.7 						"/>
					</g>
					<g>
						<polygon class="st2" points="456.8,125.6 453.3,123.6 487.2,64.9 710.4,64.9 710.4,68.9 489.5,68.9 						"/>
					</g>
					<g>
						<polygon class="st2" points="479,125.6 475.5,123.6 498.3,84.1 699.3,84.1 699.3,88.1 500.6,88.1 						"/>
					</g>
					<g>
						<polygon class="st2" points="501.2,125.6 497.7,123.6 509.4,103.4 688.2,103.4 688.2,107.4 511.7,107.4 						"/>
					</g>
					<g>
						<rect x="521.7" y="122.6" class="st2" width="155.4" height="4"/>
					</g>
				</g>
				<g class="st4">
					<g>
						<polygon class="st2" points="-175.5,-9.2 -179,-11.2 -24.1,-279.5 -101.3,-413.1 -97.8,-415.1 -19.5,-279.5 						"/>
					</g>
					<g>
						<polygon class="st2" points="134.8,-8.2 -177.3,-8.2 -177.3,-12.2 132.5,-12.2 209.6,-145.8 213.1,-143.8 						"/>
					</g>
					<g>
						<polygon class="st2" points="123.7,-27.5 -166.2,-27.5 -166.2,-31.5 121.4,-31.5 187.4,-145.8 190.9,-143.8 						"/>
					</g>
					<g>
						<polygon class="st2" points="112.6,-46.7 -155.1,-46.7 -155.1,-50.7 110.3,-50.7 165.2,-145.8 168.7,-143.8 						"/>
					</g>
					<g>
						<polygon class="st2" points="101.5,-65.9 -144,-65.9 -144,-69.9 99.2,-69.9 143,-145.8 146.5,-143.8 						"/>
					</g>
					<g>
						<polygon class="st2" points="90.4,-85.1 -132.8,-85.1 -132.8,-89.1 88.1,-89.1 120.8,-145.8 124.3,-143.8 						"/>
					</g>
					<g>
						<polygon class="st2" points="79.3,-104.4 -121.7,-104.4 -121.7,-108.4 77,-108.4 98.6,-145.8 102.1,-143.8 						"/>
					</g>
					<g>
						<polygon class="st2" points="68.2,-123.6 -110.6,-123.6 -110.6,-127.6 65.9,-127.6 76.4,-145.8 79.8,-143.8 						"/>
					</g>
					<g>
						<rect x="-99.5" y="-146.8" class="st2" width="155.4" height="4"/>
					</g>
					<g>
						<polygon class="st2" points="133.6,-277.5 -23,-277.5 -179,-547.8 -175.5,-549.8 -20.7,-281.5 133.6,-281.5 						"/>
					</g>
					<g>
						<polygon class="st2" points="287.4,-278.5 132.5,-546.8 -21.8,-546.8 -21.8,-550.8 134.8,-550.8 290.8,-280.5 						"/>
					</g>
					<g>
						<polygon class="st2" points="265.1,-278.5 121.4,-527.6 -10.7,-527.6 -10.7,-531.6 123.7,-531.6 268.6,-280.5 						"/>
					</g>
					<g>
						<polygon class="st2" points="242.9,-278.5 110.3,-508.3 0.4,-508.3 0.4,-512.3 112.6,-512.3 246.4,-280.5 						"/>
					</g>
					<g>
						<polygon class="st2" points="220.7,-278.5 99.2,-489.1 11.5,-489.1 11.5,-493.1 101.5,-493.1 224.2,-280.5 						"/>
					</g>
					<g>
						<polygon class="st2" points="198.5,-278.5 88.1,-469.9 22.6,-469.9 22.6,-473.9 90.4,-473.9 202,-280.5 						"/>
					</g>
					<g>
						<polygon class="st2" points="176.3,-278.5 77,-450.6 33.7,-450.6 33.7,-454.6 79.3,-454.6 179.8,-280.5 						"/>
					</g>
					<g>
						<polygon class="st2" points="154.1,-278.5 65.9,-431.4 44.8,-431.4 44.8,-435.4 68.2,-435.4 157.6,-280.5 						"/>
					</g>
					<g>
						<rect x="92.8" y="-424.6" transform="matrix(0.866 -0.5 0.5 0.866 186.1019 0.9242)" class="st2" width="4" height="155.4"/>
					</g>
					<g>
						<polygon class="st2" points="-97.8,-143.9 -101.3,-145.9 -23,-281.5 289.1,-281.5 289.1,-277.5 -20.7,-277.5 						"/>
					</g>
					<g>
						<polygon class="st2" points="-75.6,-143.9 -79.1,-145.9 -11.9,-262.3 278,-262.3 278,-258.3 -9.6,-258.3 						"/>
					</g>
					<g>
						<polygon class="st2" points="-53.4,-143.9 -56.9,-145.9 -0.8,-243.1 266.9,-243.1 266.9,-239.1 1.5,-239.1 						"/>
					</g>
					<g>
						<polygon class="st2" points="-31.2,-143.9 -34.7,-145.9 10.3,-223.8 255.8,-223.8 255.8,-219.8 12.6,-219.8 						"/>
					</g>
					<g>
						<polygon class="st2" points="-9,-143.9 -12.4,-145.9 21.4,-204.6 244.7,-204.6 244.7,-200.6 23.7,-200.6 						"/>
					</g>
					<g>
						<polygon class="st2" points="13.2,-143.9 9.8,-145.9 32.5,-185.4 233.6,-185.4 233.6,-181.4 34.9,-181.4 						"/>
					</g>
					<g>
						<polygon class="st2" points="35.4,-143.9 32,-145.9 43.7,-166.1 222.5,-166.1 222.5,-162.1 46,-162.1 						"/>
					</g>
					<g>
						<rect x="55.9" y="-146.9" class="st2" width="155.4" height="4"/>
					</g>
				</g>
				<g class="st4">
					<g>
						<polygon class="st2" points="290.2,-278.7 286.8,-280.7 441.6,-549 364.5,-682.6 367.9,-684.6 446.2,-549 						"/>
					</g>
					<g>
						<polygon class="st2" points="600.5,-277.7 288.5,-277.7 288.5,-281.7 598.2,-281.7 675.4,-415.3 678.8,-413.3 						"/>
					</g>
				</g>
			</g>
		</g>
		<g class="st0">
			<g>
				<defs>
					<rect id="SVGID_9_" x="-22.1" y="259.5" width="931.5" height="539"/>
				</defs>
				<clipPath id="SVGID_10_">
					<use xlink:href="#SVGID_9_"  style="overflow:visible;"/>
				</clipPath>
				<g class="st5">
					<g>
						<polygon class="st2" points="756,1068.8 752.5,1066.8 907.4,798.5 830.2,664.9 833.7,662.9 912,798.5 911.4,799.5 						"/>
					</g>
					<g>
						<polygon class="st2" points="744.9,1049.5 741.4,1047.5 885.2,798.5 819.1,684.1 822.6,682.1 889.8,798.5 889.2,799.5 						
							"/>
					</g>
					<g>
						<polygon class="st2" points="733.8,1030.3 730.3,1028.3 863,798.5 808,703.4 811.5,701.4 867.6,798.5 867,799.5 						"/>
					</g>
					<g>
						<polygon class="st2" points="722.7,1011.1 719.2,1009.1 840.8,798.5 796.9,722.6 800.4,720.6 845.4,798.5 844.8,799.5 						
							"/>
					</g>
					<g>
						<polygon class="st2" points="711.6,991.9 708.1,989.9 818.6,798.5 785.8,741.8 789.3,739.8 823.2,798.5 						"/>
					</g>
					<g>
						<polygon class="st2" points="700.5,972.6 697,970.6 796.3,798.5 774.7,761.1 778.2,759.1 801,798.5 						"/>
					</g>
					<g>
						<polygon class="st2" points="689.3,953.4 685.9,951.4 774.1,798.5 763.6,780.3 767.1,778.3 778.7,798.5 						"/>
					</g>
					<g>
						
							<rect x="637.7" y="863.9" transform="matrix(0.5 -0.866 0.866 0.5 -392.1692 1052.4202)" class="st2" width="155.4" height="4"/>
					</g>
					<g>
						<polygon class="st2" points="1065.1,800.5 908.5,800.5 752.5,530.2 756,528.2 910.8,796.5 1065.1,796.5 						"/>
					</g>
					<g>
						<polygon class="st2" points="1054,781.2 919.6,781.2 774.7,530.2 778.2,528.2 921.9,777.2 1054,777.2 						"/>
					</g>
					<g>
						<polygon class="st2" points="1042.9,762 930.7,762 796.9,530.2 800.4,528.2 933,758 1042.9,758 						"/>
					</g>
					<g>
						<polygon class="st2" points="1031.8,742.8 941.8,742.8 819.1,530.2 822.6,528.2 944.2,738.8 1031.8,738.8 						"/>
					</g>
					<g>
						<polygon class="st2" points="952.9,723.5 841.3,530.2 844.8,528.2 955.3,719.5 1020.7,719.5 1020.7,723.5 						"/>
					</g>
					<g>
						<polygon class="st2" points="1009.6,704.3 964.1,704.3 863.5,530.2 867,528.2 966.4,700.3 1009.6,700.3 						"/>
					</g>
					<g>
						<polygon class="st2" points="998.5,685.1 975.2,685.1 885.8,530.2 889.2,528.2 977.5,681.1 998.5,681.1 						"/>
					</g>
					<g>
						
							<rect x="946.5" y="518.8" transform="matrix(0.866 -0.5 0.5 0.866 -171.1747 554.1462)" class="st2" width="4" height="155.4"/>
					</g>
					<g>
						<polygon class="st2" points="674.8,934.1 596.5,798.5 752.5,528.2 756,530.2 601.1,798.5 678.2,932.1 						"/>
					</g>
					<g>
						<polygon class="st2" points="685.9,914.9 618.7,798.5 619.3,797.5 763.6,547.4 767.1,549.4 623.3,798.5 689.3,912.9 						"/>
					</g>
					<g>
						<polygon class="st2" points="697,895.6 640.9,798.5 641.5,797.5 774.7,566.7 778.2,568.7 645.5,798.5 700.5,893.6 						"/>
					</g>
					<g>
						<polygon class="st2" points="708.1,876.4 663.1,798.5 663.7,797.5 785.8,585.9 789.3,587.9 667.7,798.5 711.6,874.4 						"/>
					</g>
					<g>
						<polygon class="st2" points="719.2,857.2 685.3,798.5 796.9,605.1 800.4,607.1 689.9,798.5 722.7,855.2 						"/>
					</g>
					<g>
						<polygon class="st2" points="730.3,837.9 707.5,798.5 808,624.4 811.5,626.4 712.1,798.5 733.8,835.9 						"/>
					</g>
					<g>
						<polygon class="st2" points="741.4,818.7 729.7,798.5 819.1,643.6 822.6,645.6 734.3,798.5 744.9,816.7 						"/>
					</g>
					<g>
						
							<rect x="715.4" y="729.1" transform="matrix(0.5 -0.866 0.866 0.5 -236.6414 1052.3894)" class="st2" width="155.4" height="4"/>
					</g>
					<g>
						<polygon class="st2" points="833.7,934.1 830.2,932.1 908.5,796.5 1220.6,796.5 1220.6,800.5 910.8,800.5 						"/>
					</g>
				</g>
				<g class="st5">
					<g>
						<polygon class="st2" points="599.4,1070 442.8,1070 286.8,799.7 290.2,797.7 445.1,1066 599.4,1066 						"/>
					</g>
					<g>
						<polygon class="st2" points="588.3,1050.7 453.9,1050.7 309,799.7 312.4,797.7 456.2,1046.7 588.3,1046.7 						"/>
					</g>
					<g>
						<polygon class="st2" points="577.2,1031.5 465,1031.5 331.2,799.7 334.6,797.7 467.3,1027.5 577.2,1027.5 						"/>
					</g>
					<g>
						<polygon class="st2" points="566.1,1012.3 476.1,1012.3 353.4,799.7 356.8,797.7 478.4,1008.3 566.1,1008.3 						"/>
					</g>
					<g>
						<polygon class="st2" points="487.2,993 375.6,799.7 379,797.7 489.5,989 555,989 555,993 						"/>
					</g>
					<g>
						<polygon class="st2" points="543.9,973.8 498.3,973.8 397.8,799.7 401.3,797.7 500.6,969.8 543.9,969.8 						"/>
					</g>
					<g>
						<polygon class="st2" points="532.8,954.6 509.4,954.6 420,799.7 423.5,797.7 511.7,950.6 532.8,950.6 						"/>
					</g>
					<g>
						
							<rect x="480.8" y="788.3" transform="matrix(0.866 -0.5 0.5 0.866 -368.305 357.3879)" class="st2" width="4" height="155.4"/>
					</g>
					<g>
						<polygon class="st2" points="209,1203.6 130.7,1068 286.8,797.7 290.2,799.7 135.3,1068 212.5,1201.6 						"/>
					</g>
					<g>
						<polygon class="st2" points="753.1,1069 598.2,800.7 443.9,800.7 443.9,796.7 600.5,796.7 756.6,1067 						"/>
					</g>
				</g>
				<g class="st5">
					<g>
						<polygon class="st2" points="-175.5,1068.8 -179,1066.8 -24.1,798.5 -101.3,664.9 -97.8,662.9 -19.5,798.5 						"/>
					</g>
					<g>
						<polygon class="st2" points="133.6,800.5 -23,800.5 -179,530.2 -175.5,528.2 -20.7,796.5 133.6,796.5 						"/>
					</g>
					<g>
						<polygon class="st2" points="122.5,781.2 -11.9,781.2 -156.8,530.2 -153.3,528.2 -9.5,777.2 122.5,777.2 						"/>
					</g>
					<g>
						<polygon class="st2" points="111.4,762 -0.8,762 -134.6,530.2 -131.1,528.2 1.5,758 111.4,758 						"/>
					</g>
					<g>
						<polygon class="st2" points="100.3,742.8 10.3,742.8 -112.4,530.2 -108.9,528.2 12.7,738.8 100.3,738.8 						"/>
					</g>
					<g>
						<polygon class="st2" points="21.4,723.5 -90.2,530.2 -86.7,528.2 23.8,719.5 89.2,719.5 89.2,723.5 						"/>
					</g>
					<g>
						<polygon class="st2" points="78.1,704.3 32.6,704.3 -68,530.2 -64.5,528.2 34.9,700.3 78.1,700.3 						"/>
					</g>
					<g>
						<polygon class="st2" points="67,685.1 43.7,685.1 -45.7,530.2 -42.3,528.2 46,681.1 67,681.1 						"/>
					</g>
					<g>
						<rect x="15" y="518.8" transform="matrix(0.866 -0.5 0.5 0.866 -295.9537 88.428)" class="st2" width="4" height="155.4"/>
					</g>
					<g>
						<polygon class="st2" points="287.4,799.5 132.5,531.2 -21.8,531.2 -21.8,527.2 134.8,527.2 290.8,797.5 						"/>
					</g>
					<g>
						<polygon class="st2" points="265.1,799.5 121.4,550.4 -10.7,550.4 -10.7,546.4 123.7,546.4 268.6,797.5 						"/>
					</g>
					<g>
						<polygon class="st2" points="242.9,799.5 110.3,569.7 0.4,569.7 0.4,565.7 112.6,565.7 246.4,797.5 						"/>
					</g>
					<g>
						<polygon class="st2" points="220.7,799.5 99.2,588.9 11.5,588.9 11.5,584.9 101.5,584.9 224.2,797.5 						"/>
					</g>
					<g>
						<polygon class="st2" points="198.5,799.5 88.1,608.1 22.6,608.1 22.6,604.1 90.4,604.1 202,797.5 						"/>
					</g>
					<g>
						<polygon class="st2" points="176.3,799.5 77,627.4 33.7,627.4 33.7,623.4 79.3,623.4 179.8,797.5 						"/>
					</g>
					<g>
						<polygon class="st2" points="154.1,799.5 65.9,646.6 44.8,646.6 44.8,642.6 68.2,642.6 157.6,797.5 						"/>
					</g>
					<g>
						
							<rect x="92.8" y="653.4" transform="matrix(0.866 -0.5 0.5 0.866 -352.8599 145.3267)" class="st2" width="4" height="155.4"/>
					</g>
					<g>
						<polygon class="st2" points="-97.8,934.1 -101.3,932.1 -23,796.5 289.1,796.5 289.1,800.5 -20.7,800.5 						"/>
					</g>
				</g>
				<g class="st5">
					<g>
						<polygon class="st2" points="756,529.8 752.5,527.8 907.4,259.5 830.2,125.9 833.7,123.9 912,259.5 911.4,260.5 						"/>
					</g>
					<g>
						<polygon class="st2" points="744.9,510.5 741.4,508.5 885.2,259.5 819.1,145.1 822.6,143.1 889.8,259.5 889.2,260.5 						"/>
					</g>
					<g>
						<polygon class="st2" points="733.8,491.3 730.3,489.3 863,259.5 808,164.4 811.5,162.4 867.6,259.5 867,260.5 						"/>
					</g>
					<g>
						<polygon class="st2" points="722.7,472.1 719.2,470.1 840.8,259.5 796.9,183.6 800.4,181.6 845.4,259.5 844.8,260.5 						"/>
					</g>
					<g>
						<polygon class="st2" points="711.6,452.9 708.1,450.9 818.6,259.5 785.8,202.8 789.3,200.8 823.2,259.5 						"/>
					</g>
					<g>
						<polygon class="st2" points="700.5,433.6 697,431.6 796.3,259.5 774.7,222.1 778.2,220.1 801,259.5 						"/>
					</g>
					<g>
						<polygon class="st2" points="689.3,414.4 685.9,412.4 774.1,259.5 763.6,241.3 767.1,239.3 778.7,259.5 						"/>
					</g>
					<g>
						<rect x="637.7" y="324.9" transform="matrix(0.5 -0.866 0.866 0.5 74.6106 782.9338)" class="st2" width="155.4" height="4"/>
					</g>
					<g>
						<polygon class="st2" points="1066.3,530.8 754.2,530.8 754.2,526.8 1064,526.8 1141.1,393.2 1144.6,395.2 						"/>
					</g>
					<g>
						<polygon class="st2" points="1055.2,511.5 765.3,511.5 765.3,507.5 1052.9,507.5 1118.9,393.2 1122.4,395.2 						"/>
					</g>
					<g>
						<polygon class="st2" points="1044.1,492.3 776.4,492.3 776.4,488.3 1041.8,488.3 1096.7,393.2 1100.2,395.2 						"/>
					</g>
					<g>
						<polygon class="st2" points="1033,473.1 787.5,473.1 787.5,469.1 1030.7,469.1 1074.5,393.2 1078,395.2 						"/>
					</g>
					<g>
						<polygon class="st2" points="1021.9,453.9 798.7,453.9 798.7,449.9 1019.6,449.9 1052.3,393.2 1055.8,395.2 						"/>
					</g>
					<g>
						<polygon class="st2" points="1010.8,434.6 809.8,434.6 809.8,430.6 1008.5,430.6 1030.1,393.2 1033.6,395.2 						"/>
					</g>
					<g>
						<polygon class="st2" points="999.7,415.4 820.9,415.4 820.9,411.4 997.4,411.4 1007.9,393.2 1011.3,395.2 						"/>
					</g>
					<g>
						<rect x="832" y="392.2" class="st2" width="155.4" height="4"/>
					</g>
					<g>
						<polygon class="st2" points="1065.1,261.5 908.5,261.5 752.5,-8.8 756,-10.8 910.8,257.5 1065.1,257.5 						"/>
					</g>
					<g>
						<polygon class="st2" points="674.8,395.1 596.5,259.5 752.5,-10.8 756,-8.8 601.1,259.5 678.2,393.1 						"/>
					</g>
					<g>
						<polygon class="st2" points="685.9,375.9 618.7,259.5 619.3,258.5 763.6,8.4 767.1,10.4 623.3,259.5 689.3,373.9 						"/>
					</g>
					<g>
						<polygon class="st2" points="697,356.6 640.9,259.5 641.5,258.5 774.7,27.7 778.2,29.7 645.5,259.5 700.5,354.6 						"/>
					</g>
					<g>
						<polygon class="st2" points="708.1,337.4 663.1,259.5 663.7,258.5 785.8,46.9 789.3,48.9 667.7,259.5 711.6,335.4 						"/>
					</g>
					<g>
						<polygon class="st2" points="719.2,318.2 685.3,259.5 796.9,66.1 800.4,68.1 689.9,259.5 722.7,316.2 						"/>
					</g>
					<g>
						<polygon class="st2" points="730.3,298.9 707.5,259.5 808,85.4 811.5,87.4 712.1,259.5 733.8,296.9 						"/>
					</g>
					<g>
						<polygon class="st2" points="741.4,279.7 729.7,259.5 819.1,104.6 822.6,106.6 734.3,259.5 744.9,277.7 						"/>
					</g>
					<g>
						
							<rect x="715.4" y="190.1" transform="matrix(0.5 -0.866 0.866 0.5 230.1384 782.9031)" class="st2" width="155.4" height="4"/>
					</g>
					<g>
						<polygon class="st2" points="833.7,395.1 830.2,393.1 908.5,257.5 1220.6,257.5 1220.6,261.5 910.8,261.5 						"/>
					</g>
					<g>
						<polygon class="st2" points="855.9,395.1 852.4,393.1 919.6,276.7 1209.5,276.7 1209.5,280.7 921.9,280.7 						"/>
					</g>
					<g>
						<polygon class="st2" points="878.1,395.1 874.6,393.1 930.7,295.9 1198.4,295.9 1198.4,299.9 933,299.9 						"/>
					</g>
					<g>
						<polygon class="st2" points="900.3,395.1 896.8,393.1 941.8,315.2 1187.3,315.2 1187.3,319.2 944.1,319.2 						"/>
					</g>
				</g>
				<g class="st5">
					<g>
						<polygon class="st2" points="290.2,799.3 286.8,797.3 441.6,529 364.5,395.4 367.9,393.4 446.2,529 						"/>
					</g>
					<g>
						<polygon class="st2" points="279.1,780 275.7,778 419.4,529 353.4,414.6 356.8,412.6 424,529 						"/>
					</g>
					<g>
						<polygon class="st2" points="268,760.8 264.5,758.8 397.2,529 342.3,433.9 345.7,431.9 401.8,529 						"/>
					</g>
					<g>
						<polygon class="st2" points="256.9,741.6 253.4,739.6 375,529 331.2,453.1 334.6,451.1 379.6,529 						"/>
					</g>
					<g>
						<polygon class="st2" points="245.8,722.4 242.3,720.4 352.8,529 320.1,472.3 323.5,470.3 357.4,529 						"/>
					</g>
					<g>
						<polygon class="st2" points="234.7,703.1 231.2,701.1 330.6,529 309,491.6 312.4,489.6 335.2,529 						"/>
					</g>
					<g>
						<polygon class="st2" points="223.6,683.9 220.1,681.9 308.4,529 297.9,510.8 301.3,508.8 313,529 						"/>
					</g>
					<g>
						
							<rect x="171.9" y="594.4" transform="matrix(0.5 -0.866 0.866 0.5 -391.6425 514.3324)" class="st2" width="155.4" height="4"/>
					</g>
					<g>
						<polygon class="st2" points="600.5,800.3 288.5,800.3 288.5,796.3 598.2,796.3 675.4,662.7 678.8,664.7 						"/>
					</g>
					<g>
						<polygon class="st2" points="589.4,781 299.6,781 299.6,777 587.1,777 653.2,662.7 656.6,664.7 						"/>
					</g>
					<g>
						<polygon class="st2" points="578.3,761.8 310.7,761.8 310.7,757.8 576,757.8 631,662.7 634.4,664.7 						"/>
					</g>
					<g>
						<polygon class="st2" points="567.2,742.6 321.8,742.6 321.8,738.6 564.9,738.6 608.8,662.7 612.2,664.7 						"/>
					</g>
					<g>
						<polygon class="st2" points="556.1,723.4 332.9,723.4 332.9,719.4 553.8,719.4 586.5,662.7 590,664.7 						"/>
					</g>
					<g>
						<polygon class="st2" points="545,704.1 344,704.1 344,700.1 542.7,700.1 564.3,662.7 567.8,664.7 						"/>
					</g>
					<g>
						<polygon class="st2" points="533.9,684.9 355.1,684.9 355.1,680.9 531.6,680.9 542.1,662.7 545.6,664.7 						"/>
					</g>
					<g>
						<rect x="366.2" y="661.7" class="st2" width="155.4" height="4"/>
					</g>
					<g>
						<polygon class="st2" points="599.4,531 442.8,531 286.8,260.7 290.2,258.7 445.1,527 599.4,527 						"/>
					</g>
					<g>
						<polygon class="st2" points="588.3,511.7 453.9,511.7 309,260.7 312.4,258.7 456.2,507.7 588.3,507.7 						"/>
					</g>
					<g>
						<polygon class="st2" points="577.2,492.5 465,492.5 331.2,260.7 334.6,258.7 467.3,488.5 577.2,488.5 						"/>
					</g>
					<g>
						<polygon class="st2" points="566.1,473.3 476.1,473.3 353.4,260.7 356.8,258.7 478.4,469.3 566.1,469.3 						"/>
					</g>
					<g>
						<polygon class="st2" points="487.2,454 375.6,260.7 379,258.7 489.5,450 555,450 555,454 						"/>
					</g>
					<g>
						<polygon class="st2" points="543.9,434.8 498.3,434.8 397.8,260.7 401.3,258.7 500.6,430.8 543.9,430.8 						"/>
					</g>
					<g>
						<polygon class="st2" points="532.8,415.6 509.4,415.6 420,260.7 423.5,258.7 511.7,411.6 532.8,411.6 						"/>
					</g>
					<g>
						
							<rect x="480.8" y="249.3" transform="matrix(0.866 -0.5 0.5 0.866 -98.8234 285.1862)" class="st2" width="4" height="155.4"/>
					</g>
					<g>
						<polygon class="st2" points="209,664.6 130.7,529 286.8,258.7 290.2,260.7 135.3,529 212.5,662.6 						"/>
					</g>
					<g>
						<polygon class="st2" points="220.1,645.4 152.9,529 297.9,277.9 301.3,279.9 157.6,529 223.6,643.4 						"/>
					</g>
					<g>
						<polygon class="st2" points="231.2,626.1 175.1,529 309,297.2 312.4,299.2 179.8,529 234.7,624.1 						"/>
					</g>
					<g>
						<polygon class="st2" points="242.3,606.9 197.3,529 320.1,316.4 323.5,318.4 202,529 245.8,604.9 						"/>
					</g>
					<g>
						<polygon class="st2" points="253.4,587.7 219.5,529 331.2,335.6 334.6,337.6 224.2,529 256.9,585.7 						"/>
					</g>
					<g>
						<polygon class="st2" points="264.5,568.4 241.8,529 342.3,354.9 345.7,356.9 246.4,529 268,566.4 						"/>
					</g>
					<g>
						<polygon class="st2" points="275.7,549.2 264,529 353.4,374.1 356.8,376.1 268.6,529 279.1,547.2 						"/>
					</g>
					<g>
						
							<rect x="249.6" y="459.6" transform="matrix(0.5 -0.866 0.866 0.5 -236.1146 514.302)" class="st2" width="155.4" height="4"/>
					</g>
					<g>
						<polygon class="st2" points="753.1,530 598.2,261.7 443.9,261.7 443.9,257.7 600.5,257.7 756.6,528 						"/>
					</g>
					<g>
						<polygon class="st2" points="730.9,530 587.1,280.9 455,280.9 455,276.9 589.4,276.9 734.4,528 						"/>
					</g>
					<g>
						<polygon class="st2" points="708.7,530 576,300.2 466.1,300.2 466.1,296.2 578.3,296.2 712.2,528 						"/>
					</g>
					<g>
						<polygon class="st2" points="686.5,530 564.9,319.4 477.2,319.4 477.2,315.4 567.2,315.4 689.9,528 						"/>
					</g>
					<g>
						<polygon class="st2" points="664.3,530 553.8,338.6 488.3,338.6 488.3,334.6 556.1,334.6 667.7,528 						"/>
					</g>
					<g>
						<polygon class="st2" points="642.1,530 542.7,357.9 499.5,357.9 499.5,353.9 545,353.9 645.5,528 						"/>
					</g>
					<g>
						<polygon class="st2" points="619.9,530 531.6,377.1 510.6,377.1 510.6,373.1 533.9,373.1 623.3,528 						"/>
					</g>
					<g>
						
							<rect x="558.5" y="383.9" transform="matrix(0.866 -0.5 0.5 0.866 -155.7303 342.0845)" class="st2" width="4" height="155.4"/>
					</g>
					<g>
						<polygon class="st2" points="367.9,664.6 364.5,662.6 442.8,527 754.8,527 754.8,531 445.1,531 						"/>
					</g>
					<g>
						<polygon class="st2" points="390.1,664.6 386.7,662.6 453.9,546.2 743.7,546.2 743.7,550.2 456.2,550.2 						"/>
					</g>
					<g>
						<polygon class="st2" points="412.4,664.6 408.9,662.6 465,565.4 732.6,565.4 732.6,569.4 467.3,569.4 						"/>
					</g>
					<g>
						<polygon class="st2" points="434.6,664.6 431.1,662.6 476.1,584.7 721.5,584.7 721.5,588.7 478.4,588.7 						"/>
					</g>
					<g>
						<polygon class="st2" points="456.8,664.6 453.3,662.6 487.2,603.9 710.4,603.9 710.4,607.9 489.5,607.9 						"/>
					</g>
					<g>
						<polygon class="st2" points="479,664.6 475.5,662.6 498.3,623.1 699.3,623.1 699.3,627.1 500.6,627.1 						"/>
					</g>
					<g>
						<polygon class="st2" points="501.2,664.6 497.7,662.6 509.4,642.4 688.2,642.4 688.2,646.4 511.7,646.4 						"/>
					</g>
					<g>
						<rect x="521.7" y="661.6" class="st2" width="155.4" height="4"/>
					</g>
				</g>
				<g class="st5">
					<g>
						<polygon class="st2" points="-175.5,529.8 -179,527.8 -24.1,259.5 -101.3,125.9 -97.8,123.9 -19.5,259.5 						"/>
					</g>
					<g>
						<polygon class="st2" points="134.8,530.8 -177.3,530.8 -177.3,526.8 132.5,526.8 209.6,393.2 213.1,395.2 						"/>
					</g>
					<g>
						<polygon class="st2" points="123.7,511.5 -166.2,511.5 -166.2,507.5 121.4,507.5 187.4,393.2 190.9,395.2 						"/>
					</g>
					<g>
						<polygon class="st2" points="112.6,492.3 -155.1,492.3 -155.1,488.3 110.3,488.3 165.2,393.2 168.7,395.2 						"/>
					</g>
					<g>
						<polygon class="st2" points="101.5,473.1 -144,473.1 -144,469.1 99.2,469.1 143,393.2 146.5,395.2 						"/>
					</g>
					<g>
						<polygon class="st2" points="90.4,453.9 -132.8,453.9 -132.8,449.9 88.1,449.9 120.8,393.2 124.3,395.2 						"/>
					</g>
					<g>
						<polygon class="st2" points="79.3,434.6 -121.7,434.6 -121.7,430.6 77,430.6 98.6,393.2 102.1,395.2 						"/>
					</g>
					<g>
						<polygon class="st2" points="68.2,415.4 -110.6,415.4 -110.6,411.4 65.9,411.4 76.4,393.2 79.8,395.2 						"/>
					</g>
					<g>
						<rect x="-99.5" y="392.2" class="st2" width="155.4" height="4"/>
					</g>
					<g>
						<polygon class="st2" points="133.6,261.5 -23,261.5 -179,-8.8 -175.5,-10.8 -20.7,257.5 133.6,257.5 						"/>
					</g>
					<g>
						<polygon class="st2" points="287.4,260.5 132.5,-7.8 -21.8,-7.8 -21.8,-11.8 134.8,-11.8 290.8,258.5 						"/>
					</g>
					<g>
						<polygon class="st2" points="265.1,260.5 121.4,11.4 -10.7,11.4 -10.7,7.4 123.7,7.4 268.6,258.5 						"/>
					</g>
					<g>
						<polygon class="st2" points="242.9,260.5 110.3,30.7 0.4,30.7 0.4,26.7 112.6,26.7 246.4,258.5 						"/>
					</g>
					<g>
						<polygon class="st2" points="220.7,260.5 99.2,49.9 11.5,49.9 11.5,45.9 101.5,45.9 224.2,258.5 						"/>
					</g>
					<g>
						<polygon class="st2" points="198.5,260.5 88.1,69.1 22.6,69.1 22.6,65.1 90.4,65.1 202,258.5 						"/>
					</g>
					<g>
						<polygon class="st2" points="176.3,260.5 77,88.4 33.7,88.4 33.7,84.4 79.3,84.4 179.8,258.5 						"/>
					</g>
					<g>
						<polygon class="st2" points="154.1,260.5 65.9,107.6 44.8,107.6 44.8,103.6 68.2,103.6 157.6,258.5 						"/>
					</g>
					<g>
						<rect x="92.8" y="114.4" transform="matrix(0.866 -0.5 0.5 0.866 -83.379 73.1254)" class="st2" width="4" height="155.4"/>
					</g>
					<g>
						<polygon class="st2" points="-97.8,395.1 -101.3,393.1 -23,257.5 289.1,257.5 289.1,261.5 -20.7,261.5 						"/>
					</g>
					<g>
						<polygon class="st2" points="-75.6,395.1 -79.1,393.1 -11.9,276.7 278,276.7 278,280.7 -9.6,280.7 						"/>
					</g>
					<g>
						<polygon class="st2" points="-53.4,395.1 -56.9,393.1 -0.8,295.9 266.9,295.9 266.9,299.9 1.5,299.9 						"/>
					</g>
					<g>
						<polygon class="st2" points="-31.2,395.1 -34.7,393.1 10.3,315.2 255.8,315.2 255.8,319.2 12.6,319.2 						"/>
					</g>
					<g>
						<polygon class="st2" points="-9,395.1 -12.4,393.1 21.4,334.4 244.7,334.4 244.7,338.4 23.7,338.4 						"/>
					</g>
					<g>
						<polygon class="st2" points="13.2,395.1 9.8,393.1 32.5,353.6 233.6,353.6 233.6,357.6 34.9,357.6 						"/>
					</g>
					<g>
						<polygon class="st2" points="35.4,395.1 32,393.1 43.7,372.9 222.5,372.9 222.5,376.9 46,376.9 						"/>
					</g>
					<g>
						<rect x="55.9" y="392.1" class="st2" width="155.4" height="4"/>
					</g>
				</g>
				<g class="st5">
					<g>
						<polygon class="st2" points="290.2,260.3 286.8,258.3 441.6,-10 364.5,-143.6 367.9,-145.6 446.2,-10 						"/>
					</g>
					<g>
						<polygon class="st2" points="600.5,261.3 288.5,261.3 288.5,257.3 598.2,257.3 675.4,123.7 678.8,125.7 						"/>
					</g>
				</g>
			</g>
		</g>
	</g>
</g>
</svg>
