<?xml version="1.0" encoding="UTF-8"?>
<svg width="102px" height="94px" viewBox="0 0 102 94" version="1.1" xmlns="http://www.w3.org/2000/svg" xmlns:xlink="http://www.w3.org/1999/xlink">
    <!-- Generator: Sketch 52.2 (67145) - http://www.bohemiancoding.com/sketch -->
    <title>icon_plan</title>
    <desc>Created with Sketch.</desc>
    <g id="REBRAND" stroke="none" stroke-width="1" fill="none" fill-rule="evenodd">
        <g id="Services" transform="translate(-310.000000, -1220.000000)" fill="#000000">
            <g id="icon_plan" transform="translate(310.000000, 1220.000000)">
                <path d="M95.625,8.6 L14.8750664,8.6 L14.8750664,12.8666 L95.625,12.8666 C96.7985977,12.8666 97.7500664,13.8218 97.7500664,15 L97.7500664,47 L102,47 L102,15 C102,11.4654 99.145793,8.6 95.625,8.6 Z" id="Path"></path>
                <path d="M8.50006641,81.1334 C6.15287109,81.1334 4.25013281,79.2232 4.25013281,76.8668 C4.25013281,74.5104 6.15287109,72.6002 8.50006641,72.6002 C10.8472617,72.6 12.75,74.5102 12.75,76.8666 L16.9999336,76.8666 C16.9999336,72.1538 13.194457,68.3332 8.49986719,68.3332 C3.80527734,68.3332 0,72.1538 0,76.8666 C0,81.5796 3.80567578,85.4 8.50006641,85.4 L55.2501328,85.4 L55.2501328,81.1334 L8.50006641,81.1334 Z" id="Path"></path>
                <path d="M8.50006641,0.066600001 C3.80567578,0.066600001 0,3.8872 0,8.6 L0,76.8666 L4.24993359,76.8666 L4.24993359,8.6 C4.24993359,6.2436 6.15267188,4.3334 8.49986719,4.3334 C10.8472617,4.3334 12.75,6.2436 12.75,8.6 L12.75,76.8666 L16.9999336,76.8666 L16.9999336,8.6 C16.9999336,3.8872 13.194457,0.066600001 8.50006641,0.066600001 Z" id="Path"></path>
                <path d="M65.8750664,34.2 L40.3750664,34.2 C39.2014688,34.2 38.25,35.1552 38.25,36.3334 L38.25,61.9334 C38.25,63.1116 39.2014688,64.0668 40.3750664,64.0668 L65.8750664,64.0668 C67.0486641,64.0668 68.0001328,63.1116 68.0001328,61.9334 L68.0001328,36.3334 C67.9999336,35.1552 67.0486641,34.2 65.8750664,34.2 Z M63.75,59.8 L42.4999336,59.8 L42.4999336,38.4666 L63.75,38.4666 L63.75,59.8 Z" id="Shape" fill-rule="nonzero"></path>
                <path d="M54.627375,19.8918 C53.7976289,19.059 52.4525039,19.059 51.6225586,19.8918 L32.4975586,39.0918 L35.502375,42.1084 L53.1250664,24.4166 L70.7477578,42.1084 L73.7525742,39.0918 L54.627375,19.8918 Z" id="Path"></path>
                <path d="M48.8749336,44.8666 C47.7013359,44.8666 46.7498672,45.8218 46.7498672,47 L46.7498672,61.9334 L51,61.9334 L51,49.1334 L57.375,49.1334 L57.375,44.8668 L48.8749336,44.8668 L48.8749336,44.8666 Z" id="Path"></path>
                <path d="M101.377441,58.0358 L95.2574414,51.8918 C94.4276953,51.059 93.0825703,51.059 92.252625,51.8918 L60.122625,84.1478 C59.2930781,84.9808 59.2930781,86.3312 60.122625,87.1644 L66.242625,93.3084 C66.6410625,93.7084 67.181543,93.9334 67.7449336,93.9334 C68.3085234,93.9332 68.8488047,93.7084 69.2472422,93.3084 L101.377242,61.0524 C102.206988,60.2192 102.206988,58.8688 101.377441,58.0358 Z M67.7449336,88.7834 L64.62975,85.656 L93.7549336,56.4166 L96.8701172,59.544 L67.7449336,88.7834 Z" id="Shape" fill-rule="nonzero"></path>
                <path d="M63.75,89.6666 L63.75,85.4 L59.5000664,85.4 L59.5000664,91.8 C59.5000664,92.9782 60.4515352,93.9334 61.6251328,93.9334 L68.0001328,93.9334 L68.0001328,89.6668 L63.75,89.6668 L63.75,89.6666 Z" id="Path"></path>
                <path d="M97.7500664,68.3334 L97.7500664,79 C97.7500664,80.1782 96.7985977,81.1334 95.625,81.1334 L82.875,81.1334 L82.875,85.4 L95.625,85.4 C99.145793,85.4 102,82.5346 102,79 L102,68.3334 L97.7500664,68.3334 Z" id="Path"></path>
                <rect id="Rectangle" x="21.2500664" y="70.4666" width="16.9999336" height="4.2666"></rect>
                <rect id="Rectangle" x="42.4999336" y="70.4666" width="4.24993359" height="4.2666"></rect>
                <path d="M87.1249336,17.1334 L82.875,17.1334 L82.875,21.4 L87.1249336,21.4 C88.2985312,21.4 89.25,22.3552 89.25,23.5334 L89.25,27.8 L93.4999336,27.8 L93.4999336,23.5334 C93.4999336,19.9988 90.6457266,17.1334 87.1249336,17.1334 Z" id="Path"></path>
            </g>
        </g>
    </g>
</svg>