<?xml version="1.0" encoding="UTF-8"?>
<svg width="80px" height="80px" viewBox="0 0 80 80" version="1.1" xmlns="http://www.w3.org/2000/svg" xmlns:xlink="http://www.w3.org/1999/xlink">
    <!-- Generator: Sketch 52.2 (67145) - http://www.bohemiancoding.com/sketch -->
    <title>Group 2</title>
    <desc>Created with Sketch.</desc>
    <g id="REBRAND" stroke="none" stroke-width="1" fill="none" fill-rule="evenodd">
        <g id="Homepage" transform="translate(-173.000000, -5919.000000)">
            <g id="Group-2" transform="translate(173.000000, 5919.000000)">
                <rect id="Rectangle" fill="#FFE424" x="0" y="0" width="80" height="80"></rect>
                <path d="M54.9142857,53.0907042 L42.8379879,53.0907042 L42.8379879,41.7691751 C42.8379879,38.1909949 43.4949096,35.2558129 44.8087726,32.9635412 C46.1226357,30.6712696 48.42885,28.8262981 51.7274849,27.4285714 L54.4111066,32.2926358 C52.2865621,33.298999 50.8469253,34.4311406 50.0921529,35.6890946 C49.3373805,36.9470485 48.96,38.6662265 48.96,40.8466801 L54.9142857,40.8466801 L54.9142857,53.0907042 Z M37.1352918,53.0907042 L25.1428571,53.0907042 L25.1428571,41.7691751 C25.1428571,38.1350858 25.7718247,35.1859268 27.0297787,32.9216097 C28.2877326,30.6572925 30.5659929,28.8262981 33.8646278,27.4285714 L36.5482495,32.2926358 C34.423705,33.298999 32.9840682,34.4311406 32.2292958,35.6890946 C31.4745234,36.9470485 31.0971429,38.6662265 31.0971429,40.8466801 L37.1352918,40.8466801 L37.1352918,53.0907042 Z" id="“" fill="#141313" transform="translate(40.028571, 40.259638) rotate(-180.000000) translate(-40.028571, -40.259638) "></path>
            </g>
        </g>
    </g>
</svg>