<?xml version="1.0" encoding="UTF-8"?>
<svg width="95px" height="33px" viewBox="0 0 95 33" version="1.1" xmlns="http://www.w3.org/2000/svg" xmlns:xlink="http://www.w3.org/1999/xlink">
    <!-- Generator: Sketch 52.2 (67145) - http://www.bohemiancoding.com/sketch -->
    <title>Group 36</title>
    <desc>Created with Sketch.</desc>
    <defs>
        <polygon id="path-1" points="0 0.0484488483 19.3126067 0.0484488483 19.3126067 16.7160339 0 16.7160339"></polygon>
    </defs>
    <g id="Symbols" stroke="none" stroke-width="1" fill="none" fill-rule="evenodd">
        <g id="Footer" transform="translate(-178.000000, -840.000000)">
            <g id="Group-14">
                <g id="Group-7">
                    <g id="Group-36" transform="translate(178.000000, 840.000000)">
                        <path d="M42.7672134,12.3771571 L40.4909928,12.3771571 L40.4909928,9.08503216 L42.7672134,9.08503216 C43.6914448,9.08503216 44.3940669,9.76982154 44.3940669,10.6942872 C44.3940669,11.6564163 43.6914448,12.3771571 42.7672134,12.3771571 Z M40.4909928,3.81386595 L42.5076383,3.81386595 C43.4507667,3.81386595 44.06234,4.46099191 44.06234,5.38545756 C44.06234,6.31163519 43.4507667,7.05120772 42.5076383,7.05120772 L40.4909928,7.05120772 L40.4909928,3.81386595 Z M44.7462369,7.97224943 C45.7080904,7.49118489 46.5962459,6.42291347 46.5962459,5.03450301 C46.5962459,3.09312513 44.8939765,1.61226811 42.6931718,1.61226811 L38.1046546,1.61226811 L38.1046546,14.5599232 L42.9338499,14.5599232 C45.1894557,14.5599232 46.9655949,13.0619465 46.9655949,10.9904586 C46.9655949,9.25280556 45.8199259,8.34203569 44.7462369,7.97224943 Z" id="Fill-1" fill="#FFFFFF"></path>
                        <polygon id="Fill-3" fill="#FFFFFF" points="58.1320289 1.61219963 58.1320289 3.83262918 52.3049042 3.83262918 52.3049042 6.86624611 57.2266944 6.86624611 57.2266944 9.10379539 52.3049042 9.10379539 52.3049042 12.3411372 58.1320289 12.3411372 58.1320289 14.5598547 49.8998409 14.5598547 49.8998409 1.61219963"></polygon>
                        <polygon id="Fill-5" fill="#FFFFFF" points="69.3963834 1.61219963 69.3963834 3.83262918 63.5692586 3.83262918 63.5692586 6.86624611 68.490877 6.86624611 68.490877 9.10379539 63.5692586 9.10379539 63.5692586 12.3411372 69.3963834 12.3411372 69.3963834 14.5598547 61.1641953 14.5598547 61.1641953 1.61219963"></polygon>
                        <path d="M46.6152116,27.4561507 C46.6152116,29.3615771 44.9677432,31.1197738 42.3599675,31.1197738 C40.028774,31.1197738 38.8262423,30.138813 38.2902568,29.6767514 C38.2747957,29.6645964 38.1596962,29.5637612 38.0069747,29.431768 L39.1217215,27.5143578 C39.3141266,27.690691 39.4756094,27.8310728 39.4927884,27.8449398 C40.2503834,28.4182797 41.083566,28.991962 42.2860976,28.991962 C43.248123,28.991962 43.9698137,28.3634966 43.9698137,27.5674289 C43.9698137,26.6243028 43.1742532,25.9770056 41.6195515,25.3487114 C39.8810344,24.6450903 38.142689,23.5359027 38.142689,21.3531365 C38.142689,19.7060469 39.3622278,17.8023324 42.3049946,17.8023324 C44.1912514,17.8023324 45.6342893,18.7629207 46.0036383,19.0400892 C46.0175533,19.0488203 46.1513779,19.1496555 46.3472188,19.2951733 L45.094868,21.1783441 C44.9093345,21.0345383 44.7789458,20.9369558 44.7650307,20.926684 C43.9698137,20.4284997 43.2103291,19.9097717 42.1933309,19.9097717 C41.1385389,19.9097717 40.5647595,20.5021145 40.5647595,21.2040237 C40.5647595,22.0738774 41.2503743,22.6662202 42.7482134,23.2772235 C44.5434213,23.9979643 46.6152116,25.0698309 46.6152116,27.4561507" id="Fill-7" fill="#FFFFFF"></path>
                        <path d="M54.5261175,23.7942908 L52.3048698,23.7942908 L52.3048698,20.0758845 L54.5261175,20.0758845 C55.5620127,20.0758845 56.3574014,20.8531205 56.3574014,21.8700327 C56.3574014,22.9622717 55.5620127,23.7942908 54.5261175,23.7942908 M54.6001591,17.8023838 L49.8998065,17.8023838 L49.8998065,30.7483269 L52.3048698,30.7483269 L52.3048698,26.0506718 L54.6171664,26.0506718 C56.8744901,26.0506718 58.7437396,24.1829088 58.7437396,21.8888644 C58.7437396,19.6513151 56.8744901,17.8023838 54.6001591,17.8023838" id="Fill-9" fill="#FFFFFF"></path>
                        <path d="M82.0744684,27.4168609 L83.6892966,29.0603554 C83.541557,29.2108378 83.4384828,29.3171514 83.4298933,29.32554 C82.1723888,30.5461771 80.5816112,31.1198594 78.9341429,31.1198594 C75.2337812,31.1198594 72.2566564,28.178689 72.2566564,24.4791144 C72.2566564,20.7793686 75.2337812,17.802418 78.9341429,17.802418 C80.8032206,17.802418 82.1534919,18.3930489 83.4109964,19.5212394 C83.4213038,19.53134 83.5278137,19.6410775 83.6721175,19.7900192 L82.0864937,21.4386496 C81.9628047,21.3205234 81.8580127,21.2227698 81.8391157,21.2041093 C81.0626239,20.5210319 80.0267288,20.1135822 78.9908336,20.1135822 C76.6218463,20.1135822 74.8644322,22.0924523 74.8644322,24.4226193 C74.8644322,26.7354954 76.6407432,28.695705 79.0080127,28.695705 C80.1194955,28.695705 81.0626239,28.2711356 81.8391157,27.6411294 C81.851141,27.6308575 81.9439078,27.5435469 82.0744684,27.4168609" id="Fill-11" fill="#FFFFFF"></path>
                        <polygon id="Fill-13" fill="#FFFFFF" points="94.9122667 17.8023838 94.9122667 20.0211014 89.0834241 20.0211014 89.0834241 23.0547183 94.0053861 23.0547183 94.0053861 25.2922676 89.0834241 25.2922676 89.0834241 28.5296094 94.9122667 28.5296094 94.9122667 30.7483269 86.6800787 30.7483269 86.6800787 17.8023838"></polygon>
                        <path d="M63.3097351,26.5128875 L65.031245,23.066685 L66.7766338,26.5128875 L63.3097351,26.5128875 Z M65.0810642,17.7903829 L58.6834241,30.9332029 L61.2190479,30.9332029 L62.2789937,28.5775275 L67.8211184,28.5775275 L68.8965253,30.9332029 L71.4132523,30.9332029 L65.0810642,17.7903829 Z" id="Fill-15" fill="#FFFFFF"></path>
                        <g id="Group-19" transform="translate(0.000000, 0.122748)">
                            <mask id="mask-2" fill="white">
                                <use xlink:href="#path-1"></use>
                            </mask>
                            <g id="Clip-18"></g>
                            <path d="M1.19011121,8.38214723 L5.42336618,15.6886787 L13.889189,15.6886787 L18.1224439,8.38214723 L13.889189,1.07561579 L5.42336618,1.07561579 L1.19011121,8.38214723 Z M4.82811302,16.7160339 L-5.15370705e-05,8.38214723 L4.82811302,0.0484317286 L14.4844421,0.0484317286 L19.3126067,8.38214723 L14.4844421,16.7158627 L4.82811302,16.7160339 Z" id="Fill-17" fill="#FFFFFF" mask="url(#mask-2)"></path>
                        </g>
                        <polygon id="Fill-20" fill="#FFFFFF" points="8.78042224 16.5053585 7.81547649 16.1446457 13.704274 0.504398734 14.6692197 0.865111538"></polygon>
                        <polygon id="Fill-22" fill="#FFFFFF" points="10.2473562 10.6564012 2.65594575 4.81052552 3.28607233 3.99750934 10.8774828 9.84355624"></polygon>
                        <path d="M19.0150316,23.6316191 L27.4810262,23.6316191 L31.7141094,16.3250877 L27.4810262,9.01838504 L19.0150316,9.01855624 L14.7817767,16.3250877 L19.0150316,23.6316191 Z M28.0762794,24.6588032 L18.4197785,24.6588032 L13.5917857,16.3250877 L18.4197785,7.99137217 L28.0762794,7.99120098 L32.9042722,16.3250877 L28.0762794,24.6588032 Z" id="Fill-24" fill="#FFFFFF"></path>
                        <polygon id="Fill-26" fill="#FFFFFF" points="27.3805805 24.4713934 16.7331935 11.5689344 17.5294412 10.9165013 28.1768282 23.8189604"></polygon>
                        <polygon id="Fill-28" fill="#FFFFFF" points="21.4533192 16.718191 21.0621528 15.7678746 29.9588255 12.1306158 30.3499919 13.0807611"></polygon>
                        <path d="M5.42329747,31.4516912 L13.889292,31.4518624 L18.1223752,24.1451598 L13.8891203,16.8386283 L5.42329747,16.8386283 L1.1900425,24.1451598 L5.42329747,31.4516912 Z M14.4845452,32.4790465 L4.8280443,32.4788753 L5.15370705e-05,24.1451598 L4.8280443,15.8114443 L14.4843734,15.8114443 L19.312538,24.1451598 L14.4845452,32.4790465 Z" id="Fill-30" fill="#FFFFFF"></path>
                        <polygon id="Fill-32" fill="#FFFFFF" points="0.679447559 24.6517841 0.510749548 23.6386382 17.0467622 20.9010215 17.215632 21.9141674"></polygon>
                        <polygon id="Fill-34" fill="#FFFFFF" points="9.94588156 32.0341731 8.92458861 31.8967016 10.2090642 22.4219558 11.2305289 22.5592561"></polygon>
                    </g>
                </g>
            </g>
        </g>
    </g>
</svg>