<?xml version="1.0" encoding="UTF-8"?>
<svg width="210px" height="72px" viewBox="0 0 210 72" version="1.1" xmlns="http://www.w3.org/2000/svg" xmlns:xlink="http://www.w3.org/1999/xlink">
    <!-- Generator: Sketch 52.2 (67145) - http://www.bohemiancoding.com/sketch -->
    <title>Group 36</title>
    <desc>Created with Sketch.</desc>
    <defs>
        <polygon id="path-1" points="0 0.107174725 42.6910253 0.107174725 42.6910253 36.9778932 0 36.9778932"></polygon>
    </defs>
    <g id="REBRAND" stroke="none" stroke-width="1" fill="none" fill-rule="evenodd">
        <g id="Homepage" transform="translate(-198.000000, -25.000000)">
            <g id="Group-36" transform="translate(198.000000, 25.000000)">
                <path d="M94.5380506,27.3797717 L89.5064051,27.3797717 L89.5064051,20.0971924 L94.5380506,20.0971924 C96.5810886,20.0971924 98.1342532,21.6120295 98.1342532,23.6570596 C98.1342532,25.7854057 96.5810886,27.3797717 94.5380506,27.3797717 Z M89.5064051,8.43673376 L93.9642532,8.43673376 C96.0490633,8.43673376 97.400962,9.86825482 97.400962,11.9132849 C97.400962,13.9621021 96.0490633,15.5981262 93.9642532,15.5981262 L89.5064051,15.5981262 L89.5064051,8.43673376 Z M98.9127342,17.6355821 C101.038937,16.571409 103.002228,14.2082631 103.002228,11.1369309 C103.002228,6.84236771 99.2393165,3.56653248 94.3743797,3.56653248 L84.2313418,3.56653248 L84.2313418,32.208315 L94.9064051,32.208315 C99.892481,32.208315 103.818684,28.8946088 103.818684,24.3122266 C103.818684,20.4683275 101.286152,18.4535941 98.9127342,17.6355821 Z" id="Fill-1" fill="#141313"></path>
                <polygon id="Fill-3" fill="#141313" points="128.50238 3.56638099 128.50238 8.4782403 115.621367 8.4782403 115.621367 15.1889687 126.501114 15.1889687 126.501114 20.1386989 115.621367 20.1386989 115.621367 27.3000913 128.50238 27.3000913 128.50238 32.2081635 110.304911 32.2081635 110.304911 3.56638099"></polygon>
                <polygon id="Fill-5" fill="#141313" points="153.402532 3.56638099 153.402532 8.4782403 140.521519 8.4782403 140.521519 15.1889687 151.400886 15.1889687 151.400886 20.1386989 140.521519 20.1386989 140.521519 27.3000913 153.402532 27.3000913 153.402532 32.2081635 135.205063 32.2081635 135.205063 3.56638099"></polygon>
                <path d="M103.044152,60.7363333 C103.044152,64.9513675 99.4023797,68.8407118 93.6378228,68.8407118 C88.4846582,68.8407118 85.8264304,66.6707076 84.6416203,65.6485713 C84.607443,65.6216829 84.3530127,65.3986232 84.0154177,65.1066383 L86.4795949,60.8650944 C86.9049114,61.255165 87.2618734,61.5657066 87.2998481,61.596382 C88.9745316,62.8646794 90.8163038,64.1337342 93.4745316,64.1337342 C95.6011139,64.1337342 97.1964304,62.7434924 97.1964304,60.9824943 C97.1964304,58.8961849 95.4378228,57.4642851 92.0011139,56.0744221 C88.1580759,54.517927 84.3154177,52.0642696 84.3154177,47.2357263 C84.3154177,43.5921643 87.0112405,39.3809172 93.5163038,39.3809172 C97.6859241,39.3809172 100.875797,41.5058549 101.692253,42.1189853 C101.723013,42.1382994 102.018835,42.3613592 102.451747,42.6832621 L99.6833924,46.8490641 C99.2732658,46.5309483 98.985038,46.315084 98.9542785,46.2923615 C97.1964304,45.1903175 95.5175696,44.0428284 93.2694684,44.0428284 C90.9378228,44.0428284 89.6694684,45.3531625 89.6694684,46.9058705 C89.6694684,48.8300923 91.185038,50.1404264 94.4960506,51.4920398 C98.4644051,53.0864059 103.044152,55.4575047 103.044152,60.7363333" id="Fill-7" fill="#141313"></path>
                <path d="M120.531418,52.6358555 L115.621291,52.6358555 L115.621291,44.41029 L120.531418,44.41029 C122.821291,44.41029 124.579519,46.1296301 124.579519,48.3791632 C124.579519,50.7953284 122.821291,52.6358555 120.531418,52.6358555 M120.695089,39.3810308 L110.304835,39.3810308 L110.304835,68.0190263 L115.621291,68.0190263 L115.621291,57.6272437 L120.732684,57.6272437 C125.722557,57.6272437 129.854582,53.4955255 129.854582,48.4208212 C129.854582,43.471091 125.722557,39.3810308 120.695089,39.3810308" id="Fill-9" fill="#141313"></path>
                <path d="M181.427772,60.6494195 L184.997392,64.2850285 C184.67081,64.617914 184.442962,64.8530924 184.423975,64.8716492 C181.644228,67.5718463 178.127772,68.8409011 174.486,68.8409011 C166.306253,68.8409011 159.725241,62.3346758 159.725241,54.1507683 C159.725241,45.9664822 166.306253,39.3811066 174.486,39.3811066 C178.617646,39.3811066 181.602456,40.6876536 184.382203,43.1833477 C184.404987,43.2056915 184.64043,43.4484442 184.959418,43.7779212 L181.454354,47.4248916 C181.180937,47.1635822 180.949291,46.9473392 180.907519,46.9060599 C179.191063,45.3950099 176.90119,44.4936818 174.611316,44.4936818 C169.374608,44.4936818 165.489797,48.8711823 165.489797,54.0257943 C165.489797,59.1421566 169.41638,63.4783778 174.649291,63.4783778 C177.106253,63.4783778 179.191063,62.5391788 180.907519,61.1455286 C180.934101,61.1228061 181.139165,60.9296643 181.427772,60.6494195" id="Fill-11" fill="#141313"></path>
                <polygon id="Fill-13" fill="#141313" points="209.806063 39.3810308 209.806063 44.289103 196.921253 44.289103 196.921253 50.9998314 207.80138 50.9998314 207.80138 55.9495616 196.921253 55.9495616 196.921253 63.110954 209.806063 63.110954 209.806063 68.0190263 191.608595 68.0190263 191.608595 39.3810308"></polygon>
                <path d="M139.947835,58.6497209 L143.753278,51.0263032 L147.611506,58.6497209 L139.947835,58.6497209 Z M143.863405,39.3544833 L129.721253,68.4279944 L135.326316,68.4279944 L137.669354,63.2169548 L149.920367,63.2169548 L152.297582,68.4279944 L157.860873,68.4279944 L143.863405,39.3544833 Z" id="Fill-15" fill="#141313"></path>
                <g id="Group-19" transform="translate(0.000000, 0.271535)">
                    <mask id="mask-2" fill="white">
                        <use xlink:href="#path-1"></use>
                    </mask>
                    <g id="Clip-18"></g>
                    <path d="M2.63077215,18.5423257 L11.9884937,34.7052589 L30.7024177,34.7052589 L40.0601392,18.5423257 L30.7024177,2.37939251 L11.9884937,2.37939251 L2.63077215,18.5423257 Z M10.6726709,36.9778932 L-0.000113924055,18.5423257 L10.6726709,0.107136854 L32.0182405,0.107136854 L42.6910253,18.5423257 L32.0182405,36.9775145 L10.6726709,36.9778932 Z" id="Fill-17" fill="#141313" mask="url(#mask-2)"></path>
                </g>
                <polygon id="Fill-20" fill="#141313" points="19.4093544 36.5118536 17.2763165 35.7139132 30.2936582 1.11579114 32.4266962 1.91373158"></polygon>
                <polygon id="Fill-22" fill="#141313" points="22.6520506 23.5732512 5.87103797 10.6414656 7.26394937 8.8429752 24.044962 21.7751396"></polygon>
                <path d="M42.0332278,52.2760059 L60.7475316,52.2760059 L70.1048734,36.1130727 L60.7475316,19.9497608 L42.0332278,19.9501396 L32.6755063,36.1130727 L42.0332278,52.2760059 Z M62.0633544,54.5482616 L40.7174051,54.5482616 L30.045,36.1130727 L40.7174051,17.6778839 L62.0633544,17.6775052 L72.7357595,36.1130727 L62.0633544,54.5482616 Z" id="Fill-24" fill="#141313"></path>
                <polygon id="Fill-26" fill="#141313" points="60.5254937 54.1336885 36.9891646 25.5918852 38.7492911 24.1486242 62.2856203 52.6904275"></polygon>
                <polygon id="Fill-28" fill="#141313" points="47.4231266 36.982665 46.558443 34.8804498 66.2247722 26.8343925 67.0894557 28.936229"></polygon>
                <path d="M11.9883418,69.5749533 L30.7026456,69.575332 L40.0599873,53.4120201 L30.7022658,37.2490869 L11.9883418,37.2490869 L2.63062025,53.4120201 L11.9883418,69.5749533 Z M32.0184684,71.8475877 L10.672519,71.847209 L0.000113924055,53.4120201 L10.672519,34.9768313 L32.0180886,34.9768313 L42.6908734,53.4120201 L32.0184684,71.8475877 Z" id="Fill-30" fill="#141313"></path>
                <polygon id="Fill-32" fill="#141313" points="1.50193671 54.5327345 1.12902532 52.291533 37.6823165 46.235593 38.0556076 48.4767945"></polygon>
                <polygon id="Fill-34" fill="#141313" points="21.9856329 70.8634737 19.728038 70.5593702 22.5674051 49.600084 24.8253797 49.9038089"></polygon>
            </g>
        </g>
    </g>
</svg>