<?xml version="1.0" encoding="utf-8"?>
<!-- Generator: Adobe Illustrator 22.1.0, SVG Export Plug-In . SVG Version: 6.00 Build 0)  -->
<svg version="1.1" id="Layer_1" xmlns="http://www.w3.org/2000/svg" xmlns:xlink="http://www.w3.org/1999/xlink" x="0px" y="0px"
	 viewBox="0 0 931.5 539" style="enable-background:new 0 0 931.5 539;" xml:space="preserve">
<style type="text/css">
	.st0{clip-path:url(#SVGID_2_);fill:none;stroke:#FFFFFF;stroke-width:3;stroke-miterlimit:10;}
	.st1{clip-path:url(#SVGID_4_);fill:none;stroke:#141313;stroke-width:3;stroke-miterlimit:10;}
</style>
<g>
	<defs>
		<rect id="SVGID_1_" width="931.5" height="539"/>
	</defs>
	<clipPath id="SVGID_2_">
		<use xlink:href="#SVGID_1_"  style="overflow:visible;"/>
	</clipPath>
	<polyline class="st0" points="776.3,808.3 931.8,539 854.1,404.4 	"/>
	<polyline class="st0" points="765.2,789 909.6,539 843,423.6 	"/>
	<polyline class="st0" points="754.1,769.8 887.4,539 831.9,442.9 	"/>
	<polyline class="st0" points="743,750.6 865.2,539 820.8,462.1 	"/>
	<polyline class="st0" points="731.9,731.4 843,539 809.7,481.3 	"/>
	<polyline class="st0" points="720.8,712.1 820.8,539 798.5,500.6 	"/>
	<polyline class="st0" points="709.7,692.9 798.5,539 787.4,519.8 	"/>
	<line class="st0" x1="698.6" y1="673.7" x2="776.3" y2="539.1"/>
	<polyline class="st0" points="776.3,269.7 931.8,539 1087.2,539 	"/>
	<polyline class="st0" points="798.5,269.7 942.9,519.7 1076.1,519.7 	"/>
	<polyline class="st0" points="820.8,269.7 954,500.5 1065,500.5 	"/>
	<polyline class="st0" points="843,269.7 965.1,481.3 1053.9,481.3 	"/>
	<polyline class="st0" points="865.2,269.7 976.2,462 1042.8,462 	"/>
	<polyline class="st0" points="887.4,269.7 987.3,442.8 1031.7,442.8 	"/>
	<polyline class="st0" points="909.6,269.7 998.4,423.6 1020.6,423.6 	"/>
	<line class="st0" x1="931.8" y1="269.7" x2="1009.5" y2="404.3"/>
	<polyline class="st0" points="776.3,269.7 620.9,539 698.6,673.6 	"/>
	<polyline class="st0" points="787.4,288.9 643.1,539 709.7,654.4 	"/>
	<polyline class="st0" points="798.5,308.2 665.3,539 720.8,635.1 	"/>
	<polyline class="st0" points="809.6,327.4 687.5,539 731.9,615.9 	"/>
	<polyline class="st0" points="820.8,346.6 709.7,539 743,596.7 	"/>
	<polyline class="st0" points="831.9,365.9 731.9,539 754.1,577.4 	"/>
	<polyline class="st0" points="843,385.1 754.1,539 765.2,558.2 	"/>
	<line class="st0" x1="854.1" y1="404.3" x2="776.3" y2="538.9"/>
	<polyline class="st0" points="1242.7,539 931.8,539 854.1,673.6 	"/>
	<polyline class="st0" points="310.6,539.2 466,808.5 621.5,808.5 	"/>
	<polyline class="st0" points="332.8,539.2 477.1,789.2 610.4,789.2 	"/>
	<polyline class="st0" points="355,539.2 488.2,770 599.3,770 	"/>
	<polyline class="st0" points="377.2,539.2 499.4,750.8 588.2,750.8 	"/>
	<polyline class="st0" points="399.4,539.2 510.5,731.5 577.1,731.5 	"/>
	<polyline class="st0" points="421.6,539.2 521.6,712.3 566,712.3 	"/>
	<polyline class="st0" points="443.8,539.2 532.7,693.1 554.9,693.1 	"/>
	<line class="st0" x1="466" y1="539.2" x2="543.8" y2="673.8"/>
	<polyline class="st0" points="310.6,539.2 155.1,808.5 232.9,943.1 	"/>
	<polyline class="st0" points="776.9,808.5 621.5,539.2 466,539.2 	"/>
	<polyline class="st0" points="-155.2,808.3 0.3,539 -77.4,404.4 	"/>
	<polyline class="st0" points="-155.2,269.7 0.3,539 155.7,539 	"/>
	<polyline class="st0" points="-133,269.7 11.4,519.7 144.6,519.7 	"/>
	<polyline class="st0" points="-110.7,269.7 22.5,500.5 133.5,500.5 	"/>
	<polyline class="st0" points="-88.5,269.7 33.6,481.3 122.4,481.3 	"/>
	<polyline class="st0" points="-66.3,269.7 44.7,462 111.3,462 	"/>
	<polyline class="st0" points="-44.1,269.7 55.8,442.8 100.2,442.8 	"/>
	<polyline class="st0" points="-21.9,269.7 66.9,423.6 89.1,423.6 	"/>
	<line class="st0" x1="0.3" y1="269.7" x2="78" y2="404.3"/>
	<polyline class="st0" points="311.2,539 155.7,269.7 0.3,269.7 	"/>
	<polyline class="st0" points="289,539 144.6,288.9 11.4,288.9 	"/>
	<polyline class="st0" points="266.8,539 133.5,308.2 22.5,308.2 	"/>
	<polyline class="st0" points="244.6,539 122.4,327.4 33.6,327.4 	"/>
	<polyline class="st0" points="222.4,539 111.3,346.6 44.7,346.6 	"/>
	<polyline class="st0" points="200.1,539 100.2,365.9 55.8,365.9 	"/>
	<polyline class="st0" points="177.9,539 89.1,385.1 66.9,385.1 	"/>
	<line class="st0" x1="155.7" y1="539" x2="78" y2="404.4"/>
	<polyline class="st0" points="311.2,539 0.3,539 -77.4,673.6 	"/>
	<polyline class="st0" points="776.3,269.3 931.8,0 854.1,-134.6 	"/>
	<polyline class="st0" points="765.2,250 909.6,0 843,-115.4 	"/>
	<polyline class="st0" points="754.1,230.8 887.4,0 831.9,-96.1 	"/>
	<polyline class="st0" points="743,211.6 865.2,0 820.8,-76.9 	"/>
	<polyline class="st0" points="731.9,192.4 843,0 809.7,-57.7 	"/>
	<polyline class="st0" points="720.8,173.1 820.8,0 798.5,-38.4 	"/>
	<polyline class="st0" points="709.7,153.9 798.5,0 787.4,-19.2 	"/>
	<line class="st0" x1="698.6" y1="134.7" x2="776.3" y2="0.1"/>
	<polyline class="st0" points="776.3,269.3 1087.2,269.3 1165,134.7 	"/>
	<polyline class="st0" points="787.4,250 1076.1,250 1142.8,134.7 	"/>
	<polyline class="st0" points="798.5,230.8 1065,230.8 1120.6,134.7 	"/>
	<polyline class="st0" points="809.7,211.6 1053.9,211.6 1098.3,134.7 	"/>
	<polyline class="st0" points="820.8,192.4 1042.8,192.4 1076.1,134.7 	"/>
	<polyline class="st0" points="831.9,173.1 1031.7,173.1 1053.9,134.7 	"/>
	<polyline class="st0" points="843,153.9 1020.6,153.9 1031.7,134.7 	"/>
	<line class="st0" x1="854.1" y1="134.7" x2="1009.5" y2="134.7"/>
	<polyline class="st0" points="776.3,-269.3 931.8,0 1087.2,0 	"/>
	<polyline class="st0" points="776.3,-269.3 620.9,0 698.6,134.6 	"/>
	<polyline class="st0" points="787.4,-250.1 643.1,0 709.7,115.4 	"/>
	<polyline class="st0" points="798.5,-230.8 665.3,0 720.8,96.1 	"/>
	<polyline class="st0" points="809.6,-211.6 687.5,0 731.9,76.9 	"/>
	<polyline class="st0" points="820.8,-192.4 709.7,0 743,57.7 	"/>
	<polyline class="st0" points="831.9,-173.1 731.9,0 754.1,38.4 	"/>
	<polyline class="st0" points="843,-153.9 754.1,0 765.2,19.2 	"/>
	<line class="st0" x1="854.1" y1="-134.7" x2="776.3" y2="-0.1"/>
	<polyline class="st0" points="1242.7,0 931.8,0 854.1,134.6 	"/>
	<polyline class="st0" points="1231.6,19.2 942.9,19.2 876.3,134.6 	"/>
	<polyline class="st0" points="1220.5,38.4 954,38.4 898.5,134.6 	"/>
	<polyline class="st0" points="1209.4,57.7 965.1,57.7 920.7,134.6 	"/>
	<polyline class="st0" points="310.6,538.8 466,269.5 388.3,134.9 	"/>
	<polyline class="st0" points="299.5,519.5 443.8,269.5 377.2,154.1 	"/>
	<polyline class="st0" points="288.4,500.3 421.6,269.5 366.1,173.4 	"/>
	<polyline class="st0" points="277.3,481.1 399.4,269.5 355,192.6 	"/>
	<polyline class="st0" points="266.2,461.9 377.2,269.5 343.9,211.8 	"/>
	<polyline class="st0" points="255.1,442.6 355,269.5 332.8,231.1 	"/>
	<polyline class="st0" points="244,423.4 332.8,269.5 321.7,250.3 	"/>
	<line class="st0" x1="232.9" y1="404.2" x2="310.6" y2="269.6"/>
	<polyline class="st0" points="310.6,538.8 621.5,538.8 699.2,404.2 	"/>
	<polyline class="st0" points="321.7,519.5 610.4,519.5 677,404.2 	"/>
	<polyline class="st0" points="332.8,500.3 599.3,500.3 654.8,404.2 	"/>
	<polyline class="st0" points="343.9,481.1 588.2,481.1 632.6,404.2 	"/>
	<polyline class="st0" points="355,461.9 577.1,461.9 610.4,404.2 	"/>
	<polyline class="st0" points="366.1,442.6 566,442.6 588.2,404.2 	"/>
	<polyline class="st0" points="377.2,423.4 554.9,423.4 566,404.2 	"/>
	<line class="st0" x1="388.3" y1="404.2" x2="543.7" y2="404.2"/>
	<polyline class="st0" points="310.6,0.2 466,269.5 621.5,269.5 	"/>
	<polyline class="st0" points="332.8,0.2 477.1,250.2 610.4,250.2 	"/>
	<polyline class="st0" points="355,0.2 488.2,231 599.3,231 	"/>
	<polyline class="st0" points="377.2,0.2 499.4,211.8 588.2,211.8 	"/>
	<polyline class="st0" points="399.4,0.2 510.5,192.5 577.1,192.5 	"/>
	<polyline class="st0" points="421.6,0.2 521.6,173.3 566,173.3 	"/>
	<polyline class="st0" points="443.8,0.2 532.7,154.1 554.9,154.1 	"/>
	<line class="st0" x1="466" y1="0.2" x2="543.8" y2="134.8"/>
	<polyline class="st0" points="310.6,0.2 155.1,269.5 232.9,404.1 	"/>
	<polyline class="st0" points="321.7,19.4 177.3,269.5 244,384.9 	"/>
	<polyline class="st0" points="332.8,38.7 199.6,269.5 255.1,365.6 	"/>
	<polyline class="st0" points="343.9,57.9 221.8,269.5 266.2,346.4 	"/>
	<polyline class="st0" points="355,77.1 244,269.5 277.3,327.2 	"/>
	<polyline class="st0" points="366.1,96.4 266.2,269.5 288.4,307.9 	"/>
	<polyline class="st0" points="377.2,115.6 288.4,269.5 299.5,288.7 	"/>
	<line class="st0" x1="388.3" y1="134.8" x2="310.6" y2="269.4"/>
	<polyline class="st0" points="776.9,269.5 621.5,0.2 466,0.2 	"/>
	<polyline class="st0" points="754.7,269.5 610.4,19.4 477.1,19.4 	"/>
	<polyline class="st0" points="732.5,269.5 599.3,38.7 488.2,38.7 	"/>
	<polyline class="st0" points="710.3,269.5 588.2,57.9 499.3,57.9 	"/>
	<polyline class="st0" points="688.1,269.5 577.1,77.1 510.5,77.1 	"/>
	<polyline class="st0" points="665.9,269.5 566,96.4 521.6,96.4 	"/>
	<polyline class="st0" points="643.7,269.5 554.9,115.6 532.7,115.6 	"/>
	<line class="st0" x1="621.5" y1="269.5" x2="543.8" y2="134.9"/>
	<polyline class="st0" points="776.9,269.5 466,269.5 388.3,404.1 	"/>
	<polyline class="st0" points="765.8,288.7 477.1,288.7 410.5,404.1 	"/>
	<polyline class="st0" points="754.7,307.9 488.2,307.9 432.7,404.1 	"/>
	<polyline class="st0" points="743.6,327.2 499.3,327.2 454.9,404.1 	"/>
	<polyline class="st0" points="732.5,346.4 510.4,346.4 477.1,404.1 	"/>
	<polyline class="st0" points="721.4,365.6 521.6,365.6 499.3,404.1 	"/>
	<polyline class="st0" points="710.3,384.9 532.7,384.9 521.6,404.1 	"/>
	<line class="st0" x1="699.2" y1="404.1" x2="543.8" y2="404.1"/>
	<polyline class="st0" points="-155.2,269.3 0.3,0 -77.4,-134.6 	"/>
	<polyline class="st0" points="-155.2,269.3 155.7,269.3 233.5,134.7 	"/>
	<polyline class="st0" points="-144.1,250 144.6,250 211.3,134.7 	"/>
	<polyline class="st0" points="-133,230.8 133.5,230.8 189.1,134.7 	"/>
	<polyline class="st0" points="-121.8,211.6 122.4,211.6 166.8,134.7 	"/>
	<polyline class="st0" points="-110.7,192.4 111.3,192.4 144.6,134.7 	"/>
	<polyline class="st0" points="-99.6,173.1 100.2,173.1 122.4,134.7 	"/>
	<polyline class="st0" points="-88.5,153.9 89.1,153.9 100.2,134.7 	"/>
	<line class="st0" x1="-77.4" y1="134.7" x2="78" y2="134.7"/>
	<polyline class="st0" points="-155.2,-269.3 0.3,0 155.7,0 	"/>
	<polyline class="st0" points="311.2,0 155.7,-269.3 0.3,-269.3 	"/>
	<polyline class="st0" points="289,0 144.6,-250.1 11.4,-250.1 	"/>
	<polyline class="st0" points="266.8,0 133.5,-230.8 22.5,-230.8 	"/>
	<polyline class="st0" points="244.6,0 122.4,-211.6 33.6,-211.6 	"/>
	<polyline class="st0" points="222.4,0 111.3,-192.4 44.7,-192.4 	"/>
	<polyline class="st0" points="200.1,0 100.2,-173.1 55.8,-173.1 	"/>
	<polyline class="st0" points="177.9,0 89.1,-153.9 66.9,-153.9 	"/>
	<line class="st0" x1="155.7" y1="0" x2="78" y2="-134.6"/>
	<polyline class="st0" points="311.2,0 0.3,0 -77.4,134.6 	"/>
	<polyline class="st0" points="300.1,19.2 11.4,19.2 -55.2,134.6 	"/>
	<polyline class="st0" points="289,38.4 22.5,38.4 -33,134.6 	"/>
	<polyline class="st0" points="277.9,57.7 33.6,57.7 -10.8,134.6 	"/>
	<polyline class="st0" points="266.8,76.9 44.7,76.9 11.4,134.6 	"/>
	<polyline class="st0" points="255.7,96.1 55.8,96.1 33.6,134.6 	"/>
	<polyline class="st0" points="244.6,115.4 66.9,115.4 55.8,134.6 	"/>
	<line class="st0" x1="233.5" y1="134.6" x2="78" y2="134.6"/>
	<polyline class="st0" points="310.6,-0.2 466,-269.5 388.3,-404.1 	"/>
	<polyline class="st0" points="310.6,-0.2 621.5,-0.2 699.2,-134.8 	"/>
</g>
<g>
	<defs>
		<rect id="SVGID_3_" x="-1124" width="931.5" height="539"/>
	</defs>
	<clipPath id="SVGID_4_">
		<use xlink:href="#SVGID_3_"  style="overflow:visible;"/>
	</clipPath>
	<polyline class="st1" points="118.7,539 -192.2,539 -269.9,673.6 	"/>
	<polyline class="st1" points="-347.7,269.3 -36.8,269.3 41,134.7 	"/>
	<polyline class="st1" points="-336.6,250 -47.9,250 18.8,134.7 	"/>
	<polyline class="st1" points="118.7,0 -192.2,0 -269.9,134.6 	"/>
	<polyline class="st1" points="107.6,19.2 -181.1,19.2 -247.7,134.6 	"/>
	<polyline class="st1" points="96.5,38.4 -170,38.4 -225.5,134.6 	"/>
	<polyline class="st1" points="85.4,57.7 -158.9,57.7 -203.3,134.6 	"/>
</g>
</svg>
