<?xml version="1.0" encoding="utf-8"?>
<!-- Generator: Adobe Illustrator 22.1.0, SVG Export Plug-In . SVG Version: 6.00 Build 0)  -->
<svg version="1.1" id="Layer_1" xmlns="http://www.w3.org/2000/svg" xmlns:xlink="http://www.w3.org/1999/xlink" x="0px" y="0px"
	 viewBox="0 0 200 346" style="enable-background:new 0 0 200 346;" xml:space="preserve">
<style type="text/css">
	.st0{clip-path:url(#SVGID_2_);fill:none;stroke:#FFFFFF;stroke-width:3;stroke-miterlimit:10;}
	.st1{clip-path:url(#SVGID_4_);fill:none;stroke:#141313;stroke-width:3;stroke-miterlimit:10;}
</style>
<g>
	<defs>
		<rect id="SVGID_1_" width="200" height="346"/>
	</defs>
	<clipPath id="SVGID_2_">
		<use xlink:href="#SVGID_1_"  style="overflow:visible;"/>
	</clipPath>
	<polyline class="st0" points="116.9,317.2 50.4,432.4 183.4,432.4 	"/>
	<line class="st0" x1="128" y1="336.4" x2="72.5" y2="432.4"/>
	<line class="st0" x1="249.9" y1="432.4" x2="183.4" y2="317.2"/>
	<polyline class="st0" points="116.9,432.4 249.9,432.4 316.4,317.2 	"/>
	<line class="st0" x1="249.9" y1="317.2" x2="183.4" y2="317.2"/>
	<line class="st0" x1="260.9" y1="298" x2="172.3" y2="298"/>
	<line class="st0" x1="272" y1="278.8" x2="161.2" y2="278.8"/>
	<polyline class="st0" points="83.6,374.8 150.1,259.5 283.1,259.5 	"/>
	<line class="st0" x1="150.1" y1="259.5" x2="216.6" y2="374.8"/>
	<line class="st0" x1="150.1" y1="374.8" x2="116.9" y2="317.2"/>
	<line class="st0" x1="172.3" y1="374.8" x2="128" y2="298"/>
	<line class="st0" x1="194.5" y1="374.8" x2="139" y2="278.8"/>
	<line class="st0" x1="49.9" y1="432.4" x2="-16.6" y2="317.2"/>
	<line class="st0" x1="49.9" y1="317.2" x2="83.1" y2="374.8"/>
	<line class="st0" x1="27.7" y1="317.2" x2="72" y2="394"/>
	<line class="st0" x1="5.5" y1="317.2" x2="61" y2="413.2"/>
	<polyline class="st0" points="-83.1,432.4 49.9,432.4 116.4,317.2 	"/>
	<line class="st0" x1="49.9" y1="317.2" x2="-16.6" y2="317.2"/>
	<line class="st0" x1="60.9" y1="298" x2="-27.7" y2="298"/>
	<line class="st0" x1="72" y1="278.8" x2="-38.8" y2="278.8"/>
	<polyline class="st0" points="-116.4,374.8 -49.9,259.5 83.1,259.5 	"/>
	<line class="st0" x1="-49.9" y1="259.5" x2="16.6" y2="374.8"/>
	<polyline class="st0" points="83.1,374.8 149.6,259.5 16.6,259.5 	"/>
	<line class="st0" x1="49.9" y1="317.2" x2="83.1" y2="259.5"/>
	<line class="st0" x1="61" y1="336.4" x2="105.3" y2="259.5"/>
	<line class="st0" x1="72" y1="355.6" x2="127.5" y2="259.5"/>
	<polyline class="st0" points="216.9,144.2 150.4,259.5 283.4,259.5 	"/>
	<line class="st0" x1="239" y1="182.6" x2="194.7" y2="259.5"/>
	<line class="st0" x1="228" y1="163.4" x2="172.5" y2="259.5"/>
	<polyline class="st0" points="183.6,201.8 250.1,86.5 383.1,86.5 	"/>
	<polyline class="st0" points="16.9,144.2 -49.6,259.5 83.4,259.5 	"/>
	<line class="st0" x1="50.1" y1="201.8" x2="16.9" y2="259.5"/>
	<line class="st0" x1="39" y1="182.6" x2="-5.3" y2="259.5"/>
	<line class="st0" x1="28" y1="163.4" x2="-27.5" y2="259.5"/>
	<line class="st0" x1="149.9" y1="259.5" x2="83.4" y2="144.2"/>
	<line class="st0" x1="149.9" y1="144.2" x2="183.1" y2="201.8"/>
	<line class="st0" x1="127.7" y1="144.2" x2="172" y2="221"/>
	<line class="st0" x1="105.5" y1="144.2" x2="161" y2="240.2"/>
	<polyline class="st0" points="16.9,259.5 149.9,259.5 216.4,144.2 	"/>
	<line class="st0" x1="50.1" y1="201.8" x2="116.6" y2="201.8"/>
	<line class="st0" x1="39.1" y1="221" x2="127.7" y2="221"/>
	<line class="st0" x1="28" y1="240.2" x2="138.8" y2="240.2"/>
	<line class="st0" x1="149.9" y1="144.2" x2="83.4" y2="144.2"/>
	<line class="st0" x1="160.9" y1="125" x2="72.3" y2="125"/>
	<line class="st0" x1="172" y1="105.8" x2="61.2" y2="105.8"/>
	<polyline class="st0" points="-16.4,201.8 50.1,86.5 183.1,86.5 	"/>
	<line class="st0" x1="50.1" y1="86.5" x2="116.6" y2="201.8"/>
	<line class="st0" x1="50.1" y1="201.8" x2="16.9" y2="144.2"/>
	<line class="st0" x1="72.3" y1="201.8" x2="28" y2="125"/>
	<line class="st0" x1="94.5" y1="201.8" x2="39" y2="105.8"/>
	<polyline class="st0" points="183.1,201.8 249.6,86.5 116.6,86.5 	"/>
	<line class="st0" x1="149.9" y1="144.2" x2="183.1" y2="86.5"/>
	<line class="st0" x1="161" y1="163.4" x2="205.3" y2="86.5"/>
	<line class="st0" x1="172" y1="182.6" x2="227.5" y2="86.5"/>
	<polyline class="st0" points="-183.1,259.5 -50.1,259.5 16.4,144.2 	"/>
	<polyline class="st0" points="-16.9,201.8 49.6,86.5 -83.4,86.5 	"/>
	<line class="st0" x1="-39" y1="163.4" x2="5.3" y2="86.5"/>
	<line class="st0" x1="-28" y1="182.6" x2="27.5" y2="86.5"/>
	<polyline class="st0" points="116.9,-28.8 50.4,86.5 183.4,86.5 	"/>
	<line class="st0" x1="150.1" y1="28.8" x2="116.9" y2="86.5"/>
	<line class="st0" x1="139" y1="9.6" x2="94.7" y2="86.5"/>
	<line class="st0" x1="128" y1="-9.6" x2="72.5" y2="86.5"/>
	<line class="st0" x1="249.9" y1="86.5" x2="183.4" y2="-28.8"/>
	<polyline class="st0" points="116.9,86.5 249.9,86.5 316.4,-28.8 	"/>
	<line class="st0" x1="150.1" y1="28.8" x2="216.6" y2="28.8"/>
	<line class="st0" x1="139.1" y1="48" x2="227.7" y2="48"/>
	<line class="st0" x1="128" y1="67.2" x2="238.8" y2="67.2"/>
	<polyline class="st0" points="83.6,28.8 150.1,-86.4 283.1,-86.4 	"/>
	<line class="st0" x1="150.1" y1="-86.4" x2="216.6" y2="28.8"/>
	<line class="st0" x1="150.1" y1="28.8" x2="116.9" y2="-28.8"/>
	<line class="st0" x1="172.3" y1="28.8" x2="128" y2="-48"/>
	<line class="st0" x1="194.5" y1="28.8" x2="139" y2="-67.2"/>
	<line class="st0" x1="49.9" y1="86.5" x2="-16.6" y2="-28.8"/>
	<line class="st0" x1="49.9" y1="-28.8" x2="83.1" y2="28.8"/>
	<line class="st0" x1="27.7" y1="-28.8" x2="72" y2="48"/>
	<line class="st0" x1="5.5" y1="-28.8" x2="61" y2="67.2"/>
	<polyline class="st0" points="-83.1,86.5 49.9,86.5 116.4,-28.8 	"/>
	<line class="st0" x1="-49.9" y1="28.8" x2="16.6" y2="28.8"/>
	<line class="st0" x1="-60.9" y1="48" x2="27.7" y2="48"/>
	<line class="st0" x1="-72" y1="67.2" x2="38.8" y2="67.2"/>
	<polyline class="st0" points="-116.4,28.8 -49.9,-86.4 83.1,-86.4 	"/>
	<line class="st0" x1="-49.9" y1="-86.4" x2="16.6" y2="28.8"/>
	<polyline class="st0" points="83.1,28.8 149.6,-86.4 16.6,-86.4 	"/>
	<line class="st0" x1="72" y1="9.6" x2="127.5" y2="-86.4"/>
</g>
</svg>
